<svg version="1.1" id="Layer_1" xmlns="http://www.w3.org/2000/svg" xmlns:xlink="http://www.w3.org/1999/xlink" x="0px" y="0px"
	 width="100%" viewBox="0 0 497 502" enable-background="new 0 0 497 502" xml:space="preserve">
<path fill="#000000" opacity="1.000000" stroke="none" 
	d="
M322.000000,503.000000 
	C214.666687,503.000000 107.833382,503.000000 1.000057,503.000000 
	C1.000038,335.666718 1.000038,168.333466 1.000019,1.000147 
	C166.666565,1.000098 332.333130,1.000098 497.999756,1.000049 
	C497.999847,168.333191 497.999847,335.666382 497.999939,502.999786 
	C439.500000,503.000000 381.000000,503.000000 322.000000,503.000000 
M97.008179,156.006500 
	C97.008179,156.006500 96.998535,155.960571 96.483337,156.105453 
	C96.310226,156.403839 96.137108,156.702240 96.007713,157.001480 
	C96.007713,157.001480 95.988068,156.962433 95.384949,157.153091 
	C94.576675,158.098114 93.768402,159.043137 93.001579,160.008133 
	C93.001579,160.008133 93.001289,159.962128 92.491722,160.116364 
	C92.314621,160.411652 92.137520,160.706940 92.008980,161.009186 
	C92.008980,161.009186 92.002136,160.960617 91.494270,161.118958 
	C91.316040,161.413620 91.137810,161.708282 91.009460,162.009415 
	C91.009460,162.009415 91.002678,161.959564 90.496216,162.118774 
	C90.318192,162.412735 90.140167,162.706696 90.008644,163.007309 
	C90.008644,163.007309 89.999870,162.961166 89.487480,163.109940 
	C89.312584,163.406647 89.137688,163.703369 89.007812,164.007751 
	C89.007812,164.007751 88.999893,163.962799 88.485420,164.112656 
	C88.309822,164.410919 88.134216,164.709198 88.011398,165.013443 
	C88.011398,165.013443 88.008148,164.960434 87.517975,165.149429 
	C87.332260,165.437393 87.146545,165.725342 87.016212,166.015289 
	C87.016212,166.015289 87.012566,165.959991 86.510513,166.135239 
	C86.327087,166.428131 86.143661,166.721024 86.016106,167.016785 
	C86.016106,167.016785 86.014053,166.960892 85.526215,167.154221 
	C85.337173,167.439941 85.148140,167.725647 85.015068,168.013367 
	C85.015068,168.013367 85.010216,167.957565 84.495544,168.114578 
	C84.316200,168.412872 84.136848,168.711166 84.012596,169.014633 
	C84.012596,169.014633 84.010170,168.959351 83.527199,169.158340 
	C83.337807,169.442490 83.148407,169.726624 83.014832,170.012650 
	C83.014832,170.012650 83.009407,169.957047 82.498138,170.113434 
	C82.319168,170.409286 82.140198,170.705124 82.008476,171.008163 
	C82.008476,171.008163 82.000664,170.960999 81.490845,171.113235 
	C81.315414,171.408798 81.139977,171.704376 81.007858,171.999741 
	C81.007858,171.999741 80.986252,171.962219 80.348381,172.176071 
	C77.550735,175.111130 74.753098,178.046188 71.996460,181.007919 
	C71.996460,181.007919 71.999115,180.959076 71.493523,181.124100 
	C71.313881,181.418533 71.134232,181.712967 71.011589,182.011856 
	C71.011589,182.011856 71.007141,181.954849 70.508873,182.134293 
	C70.324242,182.425217 70.139603,182.716125 70.011826,183.012558 
	C70.011826,183.012558 70.008972,182.955505 69.453552,183.141174 
	C69.193138,183.432175 68.932724,183.723175 68.139771,184.358246 
	C54.719189,197.748856 41.340523,211.181824 27.865356,224.517258 
	C16.132200,236.128769 16.051411,250.526932 27.797091,262.271027 
	C59.085609,293.555328 90.417259,324.796692 121.631432,356.155029 
	C128.237320,362.791412 135.754761,366.195343 145.888504,364.694061 
	C151.554169,363.879303 155.870987,360.827484 159.722687,356.750183 
	C164.371582,351.828888 169.301071,347.173706 174.012375,342.309631 
	C175.218567,341.064301 176.060501,339.466156 177.010269,338.002350 
	C177.010269,338.002350 176.999268,338.067078 177.625671,338.108459 
	C178.096664,337.735504 178.567657,337.362549 178.984955,336.985443 
	C178.984955,336.985443 178.987534,337.039246 179.507004,336.752441 
	C180.009766,336.163025 180.512527,335.573608 180.984253,334.989807 
	C180.984253,334.989807 180.986298,335.021271 181.554108,334.668518 
	C184.396927,331.454498 187.239731,328.240509 190.014297,325.005859 
	C190.014297,325.005859 189.996552,325.074921 190.594162,325.040070 
	C191.045975,324.688965 191.497787,324.337860 192.005142,323.997375 
	C192.005142,323.997375 191.988998,323.943176 192.503799,323.681427 
	C193.002121,323.112030 193.500443,322.542664 193.985748,321.987366 
	C193.985748,321.987366 193.974747,322.003082 194.491669,321.718781 
	C195.006912,321.142334 195.522171,320.565887 195.984818,319.987762 
	C195.984818,319.987762 195.990829,320.040039 196.568771,319.700623 
	C200.728210,315.465912 204.887634,311.231201 208.989532,306.990509 
	C208.989532,306.990509 208.993713,307.048187 209.574677,306.713013 
	C213.743652,302.150330 217.912628,297.587646 222.013336,293.008606 
	C222.013336,293.008606 222.004471,293.078278 222.691345,293.007996 
	C223.818771,291.676331 224.946182,290.344635 226.006943,289.007843 
	C226.006943,289.007843 226.019058,289.073578 226.707397,288.999817 
	C230.130371,285.659454 233.553345,282.319092 237.000000,279.000000 
	C237.000000,279.000000 236.980194,278.975769 237.501144,278.714233 
	C238.003433,278.135315 238.505722,277.556366 238.984238,276.985748 
	C238.984238,276.985748 238.978012,277.010162 239.537003,276.701935 
	C240.666183,275.468811 241.795380,274.235657 243.542847,272.767212 
	C245.158966,273.469482 247.118820,273.803314 248.333130,274.936249 
	C254.326187,280.527832 260.121857,286.331055 266.255310,292.558655 
	C266.825653,293.039581 267.395966,293.520508 268.222900,294.528931 
	C268.807465,295.027435 269.391998,295.525909 270.000000,296.000000 
	C270.000000,296.000000 269.976166,296.025604 270.276703,296.618164 
	C274.512695,300.766937 278.748688,304.915710 283.273254,309.593597 
	C284.155518,310.402985 285.037750,311.212372 286.248108,312.608185 
	C289.129181,315.106262 292.010254,317.604309 294.992889,319.998505 
	C294.992889,319.998505 294.897644,320.106293 294.988190,320.731140 
	C295.626892,321.181122 296.265594,321.631104 296.937469,322.085541 
	C296.937469,322.085541 296.924133,322.056610 296.926849,322.667053 
	C297.274963,323.142517 297.623077,323.617950 298.206909,324.484222 
	C298.403381,324.727112 298.647919,324.903290 299.231964,325.562439 
	C300.143585,326.383820 301.055176,327.205200 301.998779,328.001221 
	C301.998779,328.001221 301.973846,328.033234 302.273346,328.625732 
	C307.477631,333.441101 312.681915,338.256470 317.929474,343.071686 
	C317.929474,343.071686 317.927429,343.114929 317.961578,343.797546 
	C323.616180,349.204803 329.270782,354.612061 334.940399,360.053009 
	C334.940399,360.053009 334.972321,360.071503 334.908142,360.611328 
	C335.347107,360.787323 335.786041,360.963318 336.733032,361.601196 
	C346.629486,367.388062 358.404358,366.063812 366.249268,358.244995 
	C375.216248,349.307831 384.160797,340.348145 393.112518,331.395691 
	C416.550781,307.955505 439.864227,284.388611 463.478546,261.127228 
	C474.810028,249.965042 473.626373,234.677521 463.103607,225.478348 
	C456.886780,220.043472 451.303894,213.881912 445.453979,208.029083 
	C427.367859,189.933945 409.286194,171.834396 391.211578,153.727768 
	C382.774384,145.275635 374.330597,136.829834 365.939117,128.332428 
	C357.782928,120.073227 344.240570,118.683571 335.563202,126.179100 
	C326.476654,134.028046 318.034576,142.632278 309.436829,151.035294 
	C301.310455,158.977585 293.347565,167.087143 285.312988,175.123306 
	C273.181305,187.257355 261.055023,199.396820 248.910233,211.517715 
	C247.665024,212.760468 246.309143,213.892334 244.929977,215.143341 
	C243.908875,214.215240 243.278076,213.688141 242.699219,213.109100 
	C216.321289,186.721771 189.796249,160.478699 163.667969,133.846375 
	C155.992188,126.022530 148.211639,119.860756 136.547852,121.782669 
	C136.547852,121.782669 136.512009,121.879807 136.165634,122.184471 
	C136.165634,122.184471 135.864655,122.534035 135.166534,122.410156 
	C131.765091,124.271309 128.363647,126.132454 125.004951,128.009888 
	C125.004951,128.009888 125.005890,127.964134 124.505363,128.131943 
	C124.324501,128.422958 124.143639,128.713959 124.010887,129.010056 
	C124.010887,129.010056 124.004379,128.962128 123.491241,129.110672 
	C123.314888,129.407135 123.138535,129.703613 123.007866,130.007736 
	C123.007866,130.007736 122.999847,129.962128 122.488190,130.112183 
	C122.312714,130.408524 122.137238,130.704880 122.008354,131.008606 
	C122.008354,131.008606 122.001122,130.961990 121.492744,131.117325 
	C121.315819,131.412155 121.138893,131.706970 121.008919,132.008484 
	C121.008919,132.008484 121.001350,131.961670 120.490524,132.113876 
	C120.314034,132.409729 120.137543,132.705582 120.008064,133.009354 
	C120.008064,133.009354 120.001732,132.962097 119.503387,133.132965 
	C119.322891,133.423630 119.142395,133.714294 119.010811,134.010269 
	C119.010811,134.010269 119.004539,133.961456 118.501106,134.131592 
	C118.321098,134.425903 118.141083,134.720230 118.016655,135.017136 
	C118.016655,135.017136 118.014580,134.961517 117.528008,135.155334 
	C117.339661,135.440613 117.151321,135.725906 117.012810,136.007919 
	C117.012810,136.007919 116.998169,135.960175 116.390709,136.186066 
	C115.246727,137.457352 114.102737,138.728653 113.007896,140.007904 
	C113.007896,140.007904 113.000053,139.958740 112.409668,140.182236 
	C111.592247,141.120560 110.774818,142.058899 110.007828,143.012039 
	C110.007828,143.012039 110.010742,142.959564 109.512611,143.136261 
	C109.328896,143.426605 109.145187,143.716934 109.012482,144.011200 
	C109.012482,144.011200 109.006462,143.960388 108.498062,144.117737 
	C108.319321,144.412125 108.140579,144.706528 108.008446,145.008011 
	C108.008446,145.008011 108.000526,144.961533 107.490723,145.114319 
	C107.314598,145.409790 107.138466,145.705246 107.008171,146.008102 
	C107.008171,146.008102 107.000481,145.962326 106.493645,146.119583 
	C106.316910,146.413986 106.140175,146.708374 106.009293,147.009094 
	C106.009293,147.009094 106.002487,146.963287 105.493790,147.117813 
	C105.316986,147.412689 105.140182,147.707565 105.009117,148.008926 
	C105.009117,148.008926 105.002190,147.963272 104.492783,148.116592 
	C104.316261,148.411774 104.139740,148.706955 104.008949,149.008759 
	C104.008949,149.008759 104.001839,148.963104 103.489540,149.117126 
	C103.313202,149.414642 103.136856,149.712173 103.013107,150.014465 
	C103.013107,150.014465 103.010101,149.961731 102.524483,150.152985 
	C102.337486,150.437576 102.150490,150.722168 102.012726,151.009705 
	C102.012726,151.009705 102.005081,150.960983 101.483963,151.102524 
	C101.309502,151.403534 101.135033,151.704544 101.009872,152.012817 
	C101.009872,152.012817 101.006683,151.963074 100.522202,152.155807 
	C100.335533,152.440567 100.148865,152.725327 100.014420,153.012619 
	C100.014420,153.012619 100.008942,152.960617 99.495491,153.117493 
	C99.316910,153.415375 99.138336,153.713257 99.013908,154.015671 
	C99.013908,154.015671 99.011841,153.961365 98.532173,154.165039 
	C98.340546,154.447296 98.148918,154.729553 98.015152,155.013412 
	C98.015152,155.013412 98.010597,154.955704 97.497261,155.109436 
	C97.318764,155.406113 97.140259,155.702789 97.008179,156.006500 
z"/>
<path fill="#030858" opacity="1.000000" stroke="none" 
	d="
M267.966309,294.001434 
	C267.395966,293.520508 266.825653,293.039581 266.120483,291.938049 
	C264.920532,289.493256 264.162567,287.370972 262.734161,285.899475 
	C257.982574,281.004578 252.893097,276.438263 248.124603,271.558899 
	C245.009933,268.371826 243.134705,268.775482 241.648682,273.096924 
	C240.546844,274.457550 239.762436,275.733856 238.978012,277.010162 
	C238.978012,277.010162 238.984238,276.985748 238.686035,277.041840 
	C237.918625,277.723877 237.449417,278.349823 236.980194,278.975769 
	C236.980194,278.975769 237.000000,279.000000 236.630295,279.020325 
	C232.173065,281.697235 227.240189,283.490967 226.019058,289.073578 
	C226.019058,289.073578 226.006943,289.007843 225.710876,289.080627 
	C224.278046,290.461700 223.141266,291.769989 222.004471,293.078278 
	C222.004471,293.078278 222.013336,293.008606 221.705719,293.083130 
	C218.230835,295.222809 215.599792,298.756470 210.586121,296.948273 
	C208.463348,296.694702 206.772461,296.441040 204.933853,295.909180 
	C201.839401,294.809204 198.892685,293.987396 195.659378,293.100586 
	C194.898865,292.714600 194.424927,292.393616 193.884766,291.707550 
	C192.397827,290.641235 190.977097,289.940033 189.262573,289.097290 
	C176.342590,276.911743 163.650436,264.935822 151.117371,252.795670 
	C144.613251,246.495453 138.390579,239.904694 133.558975,234.989624 
	C145.595749,222.120544 157.479691,209.328186 169.468262,196.634644 
	C175.286774,190.474030 181.867844,185.593216 190.763702,184.777908 
	C191.757416,184.686813 192.613953,183.098877 193.534088,182.205093 
	C193.292694,181.801056 193.051285,181.397018 192.809891,180.992981 
	C190.507690,180.992981 188.205475,180.985916 185.903305,180.994171 
	C173.920624,181.037125 161.937866,181.076050 149.955521,181.165573 
	C149.574478,181.168427 149.197418,181.705185 148.619965,182.155441 
	C148.579865,182.891251 148.738297,183.464661 148.934143,184.056137 
	C148.971542,184.074203 148.928726,184.145416 148.993759,184.478363 
	C150.711304,184.963516 152.363800,185.115707 154.291107,185.243713 
	C155.053574,185.458908 155.541260,185.698303 156.070129,186.341614 
	C156.108322,190.203995 156.105301,193.662460 156.057678,197.075333 
	C156.013062,197.029739 156.124954,197.091019 155.770782,197.134644 
	C154.635986,198.483612 153.855347,199.788971 153.043640,201.051636 
	C153.012589,201.008972 153.098175,201.070755 152.772247,201.116211 
	C152.045837,201.858047 151.645386,202.554398 151.146439,203.136139 
	C151.047958,203.021500 151.265350,203.231598 150.989456,203.307129 
	C150.454987,203.865051 150.196411,204.347412 149.796173,205.059479 
	C149.368301,205.503067 149.082108,205.716965 148.512390,205.975952 
	C147.960098,206.476471 147.691299,206.931854 147.374969,207.366760 
	C147.327438,207.346252 147.365082,207.442688 147.022583,207.403229 
	C146.259842,208.033066 145.839630,208.702377 145.379120,209.362122 
	C145.338837,209.352570 145.361206,209.432312 145.006989,209.379501 
	C143.753601,210.521240 142.854416,211.715790 141.839371,213.144470 
	C141.289825,213.656677 140.856140,213.934738 140.056244,214.206985 
	C138.507172,215.525299 137.324295,216.849442 136.095520,218.102234 
	C136.049591,218.030884 136.173187,218.147156 135.842896,218.169281 
	C135.032333,218.845016 134.552048,219.498627 133.980164,220.363525 
	C133.700623,220.840622 133.446198,221.000885 132.807571,221.089478 
	C131.978836,221.726730 131.467850,222.330124 130.973816,222.966400 
	C130.990753,222.999252 130.930984,222.955673 130.634766,222.988281 
	C130.020004,223.471313 129.701462,223.921707 129.330780,224.348663 
	C129.278625,224.325195 129.330673,224.427032 129.081223,224.457977 
	C128.690033,224.772339 128.548309,225.055740 128.381088,225.345963 
	C128.355591,225.352783 128.335663,225.401672 127.982986,225.351868 
	C126.778679,226.256607 125.927048,227.211151 124.972717,228.378876 
	C124.646210,228.835693 124.370049,228.977036 123.736221,229.040558 
	C122.936699,229.649399 122.442505,230.233795 121.843910,230.964432 
	C121.739517,231.110657 121.389244,231.190903 121.041580,231.194733 
	C120.158470,231.862030 119.623032,232.525513 118.997223,233.394745 
	C118.733307,233.868378 118.489464,234.030533 117.772079,234.063446 
	C116.546112,232.945251 115.573364,231.929596 114.943230,230.733459 
	C114.324051,229.558136 114.052818,228.199539 113.529190,226.619614 
	C113.493629,225.904205 113.557770,225.490540 113.926804,224.868561 
	C114.451645,215.720612 114.346695,206.754730 115.065758,197.855408 
	C115.321358,194.692001 117.251328,191.477936 119.052216,188.698624 
	C120.051971,187.155701 122.362137,186.461884 124.478386,185.264557 
	C126.251961,185.101425 127.628845,185.059082 129.259399,185.236267 
	C132.511215,186.206818 133.244324,184.166138 132.662735,182.147034 
	C132.317856,180.949722 130.438431,179.693192 129.068909,179.440918 
	C127.834061,179.213440 126.354012,180.317062 124.545197,180.903107 
	C121.752083,180.930099 119.395874,180.887589 116.929138,180.532623 
	C112.874527,180.425949 108.930428,180.631760 104.527428,180.908752 
	C99.718658,180.932175 95.368805,180.884430 90.714050,180.606201 
	C87.931046,180.533295 85.452934,180.690826 82.655609,180.921234 
	C81.905418,180.946533 81.474434,180.898972 80.973114,180.578278 
	C79.686943,179.769547 78.471123,179.233948 77.433189,178.776718 
	C78.714622,176.319046 79.850441,174.140625 80.986252,171.962219 
	C80.986252,171.962219 81.007858,171.999741 81.222519,171.898590 
	C81.625008,171.518616 81.812836,171.239807 82.000664,170.960999 
	C82.000664,170.960999 82.008476,171.008163 82.223389,170.903656 
	C82.628670,170.518433 82.819031,170.237732 83.009399,169.957031 
	C83.009407,169.957047 83.014832,170.012650 83.214691,169.894684 
	C83.613083,169.504272 83.811623,169.231812 84.010170,168.959351 
	C84.010170,168.959351 84.012596,169.014633 84.224167,168.909241 
	C84.627228,168.521744 84.818718,168.239655 85.010216,167.957565 
	C85.010216,167.957565 85.015068,168.013367 85.215469,167.895706 
	C85.615265,167.505661 85.814659,167.233276 86.014053,166.960892 
	C86.014053,166.960892 86.016106,167.016785 86.222473,166.905640 
	C86.623413,166.516327 86.817986,166.238159 87.012558,165.959991 
	C87.012566,165.959991 87.016212,166.015289 87.217667,165.899094 
	C87.615463,165.508743 87.811806,165.234589 88.008148,164.960434 
	C88.008148,164.960434 88.011398,165.013443 88.223648,164.910034 
	C88.623886,164.525360 88.811890,164.244080 88.999893,163.962799 
	C88.999893,163.962799 89.007812,164.007751 89.223808,163.905365 
	C89.626488,163.522354 89.813179,163.241760 89.999863,162.961166 
	C89.999870,162.961166 90.008644,163.007309 90.221771,162.901978 
	C90.624161,162.517639 90.813423,162.238602 91.002686,161.959564 
	C91.002678,161.959564 91.009460,162.009415 91.221237,161.903900 
	C91.622719,161.519135 91.812424,161.239868 92.002136,160.960617 
	C92.002136,160.960617 92.008980,161.009186 92.222046,160.904999 
	C92.623833,160.521255 92.812561,160.241684 93.001282,159.962128 
	C93.001289,159.962128 93.001579,160.008133 93.340508,159.983185 
	C94.448982,158.959641 95.218521,157.961029 95.988068,156.962433 
	C95.988068,156.962433 96.007713,157.001480 96.224457,156.902634 
	C96.626984,156.522705 96.812759,156.241638 96.998535,155.960571 
	C96.998535,155.960571 97.008179,156.006500 97.222794,155.901138 
	C97.628471,155.515747 97.819534,155.235733 98.010597,154.955704 
	C98.010597,154.955704 98.015152,155.013412 98.212990,154.894012 
	C98.611168,154.503525 98.811501,154.232437 99.011841,153.961365 
	C99.011841,153.961365 99.013908,154.015671 99.225830,153.910950 
	C99.628151,153.524368 99.818542,153.242493 100.008934,152.960602 
	C100.008942,152.960617 100.014420,153.012619 100.216431,152.896729 
	C100.614517,152.508240 100.810600,152.235657 101.006683,151.963074 
	C101.006683,151.963074 101.009872,152.012817 101.227539,151.913330 
	C101.631828,151.529572 101.818459,151.245270 102.005081,150.960983 
	C102.005081,150.960983 102.012726,151.009705 102.216736,150.894623 
	C102.617203,150.506943 102.813652,150.234329 103.010101,149.961731 
	C103.010101,149.961731 103.013107,150.014465 103.224396,149.909790 
	C103.624405,149.524445 103.813126,149.243774 104.001846,148.963104 
	C104.001839,148.963104 104.008949,149.008759 104.223099,148.904877 
	C104.625565,148.521759 104.813873,148.242523 105.002190,147.963272 
	C105.002190,147.963272 105.009117,148.008926 105.223198,147.904938 
	C105.625679,147.521729 105.814079,147.242508 106.002487,146.963287 
	C106.002487,146.963287 106.009293,147.009094 106.223190,146.904877 
	C106.624886,146.521210 106.812683,146.241760 107.000481,145.962326 
	C107.000481,145.962326 107.008171,146.008102 107.223328,145.905304 
	C107.625824,145.522171 107.813171,145.241852 108.000526,144.961533 
	C108.000526,144.961533 108.008446,145.008011 108.222893,144.903854 
	C108.627045,144.519928 108.816750,144.240158 109.006462,143.960388 
	C109.006462,143.960388 109.012482,144.011200 109.219955,143.899963 
	C109.621872,143.512344 109.816307,143.235962 110.010742,142.959564 
	C110.010742,142.959564 110.007828,143.012039 110.343307,142.985992 
	C111.452545,141.959534 112.226303,140.959137 113.000053,139.958740 
	C113.000053,139.958740 113.007896,140.007904 113.352478,139.980560 
	C114.797432,138.622208 115.897804,137.291199 116.998169,135.960175 
	C116.998169,135.960175 117.012810,136.007919 117.216797,135.894684 
	C117.618713,135.508133 117.816650,135.234818 118.014580,134.961517 
	C118.014580,134.961517 118.016655,135.017136 118.223541,134.907333 
	C118.621803,134.518845 118.813171,134.240158 119.004547,133.961456 
	C119.004539,133.961456 119.010811,134.010269 119.221298,133.903259 
	C119.621765,133.518204 119.811745,133.240143 120.001732,132.962097 
	C120.001732,132.962097 120.008064,133.009354 120.223770,132.907700 
	C120.626762,132.524582 120.814056,132.243118 121.001343,131.961670 
	C121.001350,131.961670 121.008919,132.008484 121.222214,131.904022 
	C121.624046,131.520386 121.812584,131.241180 122.001122,130.961990 
	C122.001122,130.961990 122.008354,131.008606 122.223007,130.905655 
	C122.625053,130.522507 122.812447,130.242310 122.999847,129.962128 
	C122.999847,129.962128 123.007866,130.007736 123.223289,129.904907 
	C123.627266,129.522095 123.815819,129.242111 124.004379,128.962128 
	C124.004379,128.962128 124.010887,129.010056 124.220543,128.901733 
	C124.622093,128.516983 124.813995,128.240555 125.005890,127.964134 
	C125.005890,127.964134 125.004951,128.009888 125.340103,127.987625 
	C129.071732,126.154930 132.468185,124.344482 135.864655,122.534035 
	C135.864655,122.534035 136.165634,122.184471 136.334229,122.040024 
	C136.502838,121.895569 136.495621,121.889557 136.495621,121.889557 
	C148.211639,119.860756 155.992188,126.022530 163.667969,133.846375 
	C189.796249,160.478699 216.321289,186.721771 242.699219,213.109100 
	C243.278076,213.688141 243.908875,214.215240 244.929977,215.143341 
	C246.309143,213.892334 247.665024,212.760468 248.910233,211.517715 
	C261.055023,199.396820 273.181305,187.257355 285.312988,175.123306 
	C293.347565,167.087143 301.310455,158.977585 309.436829,151.035294 
	C318.034576,142.632278 326.476654,134.028046 335.563202,126.179100 
	C344.240570,118.683571 357.782928,120.073227 365.939117,128.332428 
	C374.330597,136.829834 382.774384,145.275635 391.211578,153.727768 
	C409.286194,171.834396 427.367859,189.933945 445.453979,208.029083 
	C451.303894,213.881912 456.886780,220.043472 463.103607,225.478348 
	C473.626373,234.677521 474.810028,249.965042 463.478546,261.127228 
	C439.864227,284.388611 416.550781,307.955505 393.112518,331.395691 
	C384.160797,340.348145 375.216248,349.307831 366.249268,358.244995 
	C358.404358,366.063812 346.629486,367.388062 336.313141,361.143799 
	C335.586273,360.481415 335.279297,360.276459 334.972321,360.071503 
	C334.972321,360.071503 334.940399,360.053009 334.910156,359.692139 
	C332.084473,355.971466 329.526855,352.368378 326.418304,349.328796 
	C323.936035,346.901611 320.782806,345.160553 317.927429,343.114929 
	C317.927429,343.114929 317.929474,343.071686 317.898743,342.723114 
	C314.276123,338.401123 310.809448,334.302185 307.021790,330.525024 
	C305.762848,329.269562 303.680023,328.840240 301.973846,328.033203 
	C301.973846,328.033234 301.998779,328.001221 301.982666,327.644897 
	C300.957886,326.529968 299.949188,325.771362 298.940491,325.012756 
	C298.647919,324.903290 298.403381,324.727112 298.070465,323.982605 
	C297.597382,323.006226 297.260773,322.531403 296.924133,322.056610 
	C296.924133,322.056610 296.937469,322.085541 296.893616,321.757996 
	C296.199066,320.989075 295.548370,320.547668 294.897644,320.106293 
	C294.897644,320.106293 294.992889,319.998505 294.932800,319.696899 
	C291.888489,316.937469 288.904236,314.479614 285.919983,312.021759 
	C285.037750,311.212372 284.155518,310.402985 283.128906,308.957520 
	C280.333313,302.440338 276.272461,298.050476 269.976166,296.025604 
	C269.976166,296.025604 270.000000,296.000000 269.942139,295.694519 
	C269.244995,294.926514 268.605652,294.463959 267.966309,294.001434 
M393.005951,285.998505 
	C393.005951,285.998505 393.054901,286.032257 392.438171,286.071411 
	C391.949188,286.660248 391.460236,287.249054 390.620087,288.253510 
	C390.173584,288.545502 389.727081,288.837524 388.476471,289.072235 
	C387.069336,290.142426 385.662231,291.212616 384.001221,292.000000 
	C384.001221,292.000000 384.254395,292.282349 383.429016,292.146027 
	C382.135834,292.324829 380.813812,292.388062 379.554382,292.702179 
	C373.872742,294.119354 368.279633,296.274567 362.518951,296.886597 
	C356.495880,297.526520 350.317749,296.707001 343.747070,296.565704 
	C343.431671,296.494965 343.178192,296.329468 342.813812,295.354156 
	C340.769165,294.707153 338.724518,294.060150 336.876526,293.105103 
	C336.876526,293.105103 336.649109,293.391235 336.527618,292.685425 
	C335.292145,292.178558 334.056702,291.671692 332.942047,291.030212 
	C332.942047,291.030212 332.854309,291.188385 332.769135,290.487244 
	C331.804108,290.025848 330.839050,289.564453 329.972351,289.013489 
	C329.972351,289.013489 329.901886,289.126282 329.919098,288.392792 
	C328.178741,287.026306 326.438416,285.659851 324.998779,284.000000 
	C324.998779,284.000000 324.700317,284.295563 324.749847,283.546417 
	C323.367401,282.177704 321.984924,280.808990 320.569244,279.393005 
	C320.569244,279.393005 320.525238,279.355560 320.556946,278.824036 
	C320.313354,278.583923 320.069794,278.343811 319.933258,278.076599 
	C319.933258,278.076599 319.861511,278.160492 319.932312,277.407013 
	C318.890533,275.967468 317.848724,274.527924 316.339752,272.725525 
	C316.201965,272.157318 316.064178,271.589111 316.363007,270.555756 
	C314.730988,265.686981 313.098938,260.818237 311.217896,255.332825 
	C311.214813,254.892487 311.211731,254.452148 311.637634,253.310593 
	C311.738342,247.555847 311.848938,241.801239 311.935333,236.046280 
	C311.975586,233.366760 311.968903,230.686539 311.920013,227.332230 
	C312.027954,226.895935 312.135895,226.459656 312.910187,225.816528 
	C314.555389,220.459305 316.200592,215.102081 317.940796,209.063675 
	C329.542206,188.263809 350.488770,179.933640 372.074371,187.441422 
	C386.376709,192.415955 395.448578,202.127594 399.374084,216.769608 
	C399.719574,218.058243 401.227081,219.035355 402.194855,220.157166 
	C402.680603,219.829086 403.166382,219.501022 403.652130,219.172958 
	C402.631012,205.487839 401.609894,191.802734 400.518402,177.175018 
	C398.620209,178.104691 397.212524,178.341354 396.592896,179.168427 
	C391.073212,186.535934 391.160431,186.447647 382.525330,183.097260 
	C363.662567,175.778610 344.831879,175.708817 326.246338,184.043320 
	C289.885498,200.348984 276.243713,246.253036 298.001160,278.817566 
	C313.301788,301.718140 343.445526,312.819946 370.546753,305.456757 
	C386.647491,301.082275 398.179901,291.071350 406.606079,276.068390 
	C404.767487,275.691559 403.553040,275.442657 401.741394,275.425812 
	C401.512482,275.999359 401.283600,276.572906 400.988495,277.590149 
	C400.877319,277.899780 400.661316,278.090912 399.551483,278.143036 
	C398.716644,279.466217 397.881836,280.789398 396.897156,282.550446 
	C396.716949,282.823395 396.466583,282.992371 395.647675,283.268372 
	C395.448792,283.561340 395.249908,283.854340 394.891510,284.573639 
	C394.718231,284.851807 394.468750,285.009094 393.640320,285.215759 
	C393.434723,285.495605 393.229126,285.775452 393.005951,285.998505 
z"/>
<path fill="#030858" opacity="1.000000" stroke="none" 
	d="
M145.180054,364.729309 
	C135.754761,366.195343 128.237320,362.791412 121.631432,356.155029 
	C90.417259,324.796692 59.085609,293.555328 27.797091,262.271027 
	C16.051411,250.526932 16.132200,236.128769 27.865356,224.517258 
	C41.340523,211.181824 54.719189,197.748856 68.694038,184.095856 
	C69.501862,183.540802 69.755417,183.248154 70.008972,182.955505 
	C70.008972,182.955505 70.011826,183.012558 70.216743,182.899414 
	C70.616821,182.509125 70.811981,182.231995 71.007141,181.954849 
	C71.007141,181.954849 71.011589,182.011856 71.217514,181.902435 
	C71.615326,181.515030 71.807228,181.237061 71.999115,180.959076 
	C71.999115,180.959076 71.996460,181.007919 72.327881,181.007919 
	C75.226265,182.292877 75.499283,185.760818 79.561607,186.184677 
	C89.974281,187.271149 92.063889,189.512894 92.273537,200.038895 
	C92.806557,226.801056 93.278320,253.581604 92.798882,280.337280 
	C92.636169,289.417725 93.177765,293.118927 79.765938,295.247894 
	C79.105377,295.352783 78.561699,296.193970 77.688980,296.785400 
	C77.222404,296.901093 77.030449,296.923676 76.534134,296.972748 
	C75.679749,297.693909 75.129723,298.388580 74.579689,299.083221 
	C75.243431,299.430786 75.907188,299.778351 76.917267,300.251343 
	C77.481216,300.490540 77.698845,300.604309 78.144592,301.003723 
	C78.993690,301.479492 79.614296,301.834167 80.235733,301.835632 
	C96.435822,301.873627 112.636482,301.932434 128.835403,301.794250 
	C130.465988,301.780304 132.086090,300.536011 134.051270,300.034912 
	C135.596588,300.823334 136.801682,301.439575 138.832947,302.478302 
	C138.837433,296.941467 135.811478,294.218414 132.927139,291.842590 
	C131.449524,290.625458 128.836334,290.786987 126.736351,290.325439 
	C126.584312,290.842163 126.432274,291.358917 126.280235,291.875671 
	C127.238777,292.665344 128.197311,293.455048 128.832703,294.475403 
	C125.166016,294.562592 121.822479,294.419067 118.234070,294.208069 
	C117.645248,293.793945 117.301300,293.447327 116.960602,292.695435 
	C116.279617,289.195007 115.595383,286.099823 115.305389,282.986084 
	C116.797935,281.209503 118.345856,279.576172 118.876877,277.660889 
	C119.493355,275.437317 119.217590,272.966400 119.329109,270.602875 
	C119.796455,270.437531 120.263802,270.272217 120.731140,270.106873 
	C122.010902,274.005615 123.676224,277.151337 127.083542,279.848053 
	C133.384979,284.835297 138.415146,291.428864 144.349686,297.752686 
	C144.838684,295.699982 145.230286,294.056152 145.707138,292.054443 
	C147.476501,292.627533 148.935959,293.100220 151.142380,293.814850 
	C152.188751,290.635132 153.147629,287.721222 154.401093,285.014160 
	C155.988190,288.283051 157.280716,291.345062 158.536362,294.488770 
	C158.499481,294.570465 158.325897,294.615082 158.080597,294.586426 
	C157.471008,294.662933 157.276291,294.904785 157.129761,295.140747 
	C157.008362,294.998199 157.246994,295.285339 156.841217,295.213135 
	C154.610596,295.674255 152.785751,296.207611 150.690338,296.833923 
	C150.229355,296.938019 150.038956,296.949127 149.552216,296.988281 
	C149.328293,298.056854 149.400711,299.097351 149.846085,300.246765 
	C150.452179,300.468689 150.685287,300.581665 151.143036,300.984131 
	C152.153763,301.476685 152.939377,301.854706 153.725952,301.856720 
	C167.986008,301.893005 182.246323,301.911926 196.506042,301.834137 
	C197.702744,301.827606 198.895538,301.106232 200.438187,300.617249 
	C201.509811,300.518188 202.233383,300.518799 203.116760,300.834290 
	C205.411667,301.619141 207.546768,302.089050 209.957489,302.619629 
	C209.596390,304.278900 209.295044,305.663544 208.993713,307.048187 
	C208.993713,307.048187 208.989532,306.990509 208.644135,306.992920 
	C202.591400,309.829498 198.454117,314.145050 195.990829,320.040039 
	C195.990829,320.040039 195.984818,319.987762 195.693268,320.040100 
	C194.926041,320.729340 194.450394,321.366211 193.974747,322.003082 
	C193.974747,322.003082 193.985748,321.987366 193.685364,322.039185 
	C192.919662,322.708374 192.454315,323.325775 191.988983,323.943176 
	C191.988998,323.943176 192.005142,323.997375 191.690369,324.041626 
	C190.915924,324.415558 190.456238,324.745239 189.996552,325.074921 
	C189.996552,325.074921 190.014297,325.005859 189.707092,325.080750 
	C186.595352,328.444153 183.790817,331.732697 180.986298,335.021240 
	C180.986298,335.021271 180.984253,334.989807 180.680756,335.041077 
	C179.914001,335.741333 179.450775,336.390289 178.987549,337.039246 
	C178.987534,337.039246 178.984955,336.985443 178.705048,337.009552 
	C177.949860,337.378143 177.474548,337.722595 176.999268,338.067078 
	C176.999268,338.067078 177.010269,338.002350 176.676727,338.044617 
	C175.096588,339.018524 173.787460,339.877930 172.613403,340.893494 
	C164.008713,348.336517 158.136322,359.061157 146.354248,362.725037 
	C145.807922,362.894928 145.564529,364.038971 145.180054,364.729309 
z"/>
<path fill="#2C2E64" opacity="1.000000" stroke="none" 
	d="
M77.963593,296.692291 
	C78.561699,296.193970 79.105377,295.352783 79.765938,295.247894 
	C93.177765,293.118927 92.636169,289.417725 92.798882,280.337280 
	C93.278320,253.581604 92.806557,226.801056 92.273537,200.038895 
	C92.063889,189.512894 89.974281,187.271149 79.561607,186.184677 
	C75.499283,185.760818 75.226265,182.292877 72.307373,180.994583 
	C74.753098,178.046188 77.550735,175.111130 80.667320,172.069153 
	C79.850441,174.140625 78.714622,176.319046 77.433189,178.776718 
	C78.471123,179.233948 79.686943,179.769547 80.544312,180.690796 
	C78.978142,181.600143 77.770416,182.123840 76.562698,182.647552 
	C77.809792,183.357574 79.000519,184.548248 80.312836,184.702148 
	C91.541527,186.018936 94.151123,188.599167 94.194519,199.925415 
	C94.299118,227.230942 94.356506,254.538208 94.150658,281.842651 
	C94.063263,293.435425 89.775536,297.057098 77.963593,296.692291 
z"/>
<path fill="#2C2E64" opacity="1.000000" stroke="none" 
	d="
M145.534271,364.711670 
	C145.564529,364.038971 145.807922,362.894928 146.354248,362.725037 
	C158.136322,359.061157 164.008713,348.336517 172.613403,340.893494 
	C173.787460,339.877930 175.096588,339.018524 176.706482,338.058472 
	C176.060501,339.466156 175.218567,341.064301 174.012375,342.309631 
	C169.301071,347.173706 164.371582,351.828888 159.722687,356.750183 
	C155.870987,360.827484 151.554169,363.879303 145.534271,364.711670 
z"/>
<path fill="#0F104B" opacity="1.000000" stroke="none" 
	d="
M241.966080,273.012604 
	C243.134705,268.775482 245.009933,268.371826 248.124603,271.558899 
	C252.893097,276.438263 257.982574,281.004578 262.734161,285.899475 
	C264.162567,287.370972 264.920532,289.493256 265.986389,291.688477 
	C260.121857,286.331055 254.326187,280.527832 248.333130,274.936249 
	C247.118820,273.803314 245.158966,273.469482 242.994415,272.893555 
	C242.445969,273.019928 241.966080,273.012604 241.966080,273.012604 
z"/>
<path fill="#2C2E64" opacity="1.000000" stroke="none" 
	d="
M209.284180,306.880615 
	C209.295044,305.663544 209.596390,304.278900 209.957489,302.619629 
	C207.546768,302.089050 205.411667,301.619141 203.571808,300.758972 
	C205.666107,300.348114 207.583786,300.691071 209.215836,300.158600 
	C210.074310,299.878479 210.433411,298.067749 211.018021,296.948181 
	C215.599792,298.756470 218.230835,295.222809 221.739868,293.091309 
	C217.912628,297.587646 213.743652,302.150330 209.284180,306.880615 
z"/>
<path fill="#0F104B" opacity="1.000000" stroke="none" 
	d="
M317.944519,343.456238 
	C320.782806,345.160553 323.936035,346.901611 326.418304,349.328796 
	C329.526855,352.368378 332.084473,355.971466 334.902649,359.675293 
	C329.270782,354.612061 323.616180,349.204803 317.944519,343.456238 
z"/>
<path fill="#0F104B" opacity="1.000000" stroke="none" 
	d="
M302.123596,328.329468 
	C303.680023,328.840240 305.762848,329.269562 307.021790,330.525024 
	C310.809448,334.302185 314.276123,338.401123 317.877106,342.723206 
	C312.681915,338.256470 307.477631,333.441101 302.123596,328.329468 
z"/>
<path fill="#0F104B" opacity="1.000000" stroke="none" 
	d="
M270.126434,296.321899 
	C276.272461,298.050476 280.333313,302.440338 282.984619,308.692993 
	C278.748688,304.915710 274.512695,300.766937 270.126434,296.321899 
z"/>
<path fill="#2C2E64" opacity="1.000000" stroke="none" 
	d="
M196.279800,319.870331 
	C198.454117,314.145050 202.591400,309.829498 208.672897,306.995911 
	C204.887634,311.231201 200.728210,315.465912 196.279800,319.870331 
z"/>
<path fill="#2C2E64" opacity="1.000000" stroke="none" 
	d="
M226.363220,289.036682 
	C227.240189,283.490967 232.173065,281.697235 236.618439,279.009644 
	C233.553345,282.319092 230.130371,285.659454 226.363220,289.036682 
z"/>
<path fill="#2C2E64" opacity="1.000000" stroke="none" 
	d="
M181.270203,334.844879 
	C183.790817,331.732697 186.595352,328.444153 189.741211,325.091064 
	C187.239731,328.240509 184.396927,331.454498 181.270203,334.844879 
z"/>
<path fill="#2C2E64" opacity="1.000000" stroke="none" 
	d="
M135.515594,122.472092 
	C132.468185,124.344482 129.071732,126.154930 125.318726,127.979492 
	C128.363647,126.132454 131.765091,124.271309 135.515594,122.472092 
z"/>
<path fill="#0F104B" opacity="1.000000" stroke="none" 
	d="
M286.084045,312.314972 
	C288.904236,314.479614 291.888489,316.937469 294.882019,319.748840 
	C292.010254,317.604309 289.129181,315.106262 286.084045,312.314972 
z"/>
<path fill="#2C2E64" opacity="1.000000" stroke="none" 
	d="
M116.694443,136.073120 
	C115.897804,137.291199 114.797432,138.622208 113.327911,139.976578 
	C114.102737,138.728653 115.246727,137.457352 116.694443,136.073120 
z"/>
<path fill="#2C2E64" opacity="1.000000" stroke="none" 
	d="
M222.347900,293.043152 
	C223.141266,291.769989 224.278046,290.461700 225.744217,289.083191 
	C224.946182,290.344635 223.818771,291.676331 222.347900,293.043152 
z"/>
<path fill="#2C2E64" opacity="1.000000" stroke="none" 
	d="
M241.648682,273.096924 
	C241.966080,273.012604 242.445969,273.019928 242.685272,273.011230 
	C241.795380,274.235657 240.666183,275.468811 239.257507,276.856049 
	C239.762436,275.733856 240.546844,274.457550 241.648682,273.096924 
z"/>
<path fill="#0F104B" opacity="1.000000" stroke="none" 
	d="
M299.086243,325.287598 
	C299.949188,325.771362 300.957886,326.529968 301.966675,327.657562 
	C301.055176,327.205200 300.143585,326.383820 299.086243,325.287598 
z"/>
<path fill="#2C2E64" opacity="1.000000" stroke="none" 
	d="
M112.704865,140.070496 
	C112.226303,140.959137 111.452545,141.959534 110.318085,142.978577 
	C110.774818,142.058899 111.592247,141.120560 112.704865,140.070496 
z"/>
<path fill="#2C2E64" opacity="1.000000" stroke="none" 
	d="
M95.686508,157.057770 
	C95.218521,157.961029 94.448982,158.959641 93.319778,159.973206 
	C93.768402,159.043137 94.576675,158.098114 95.686508,157.057770 
z"/>
<path fill="#0F104B" opacity="1.000000" stroke="none" 
	d="
M294.942932,320.418701 
	C295.548370,320.547668 296.199066,320.989075 296.877075,321.755768 
	C296.265594,321.631104 295.626892,321.181122 294.942932,320.418701 
z"/>
<path fill="#0F104B" opacity="1.000000" stroke="none" 
	d="
M268.094604,294.265198 
	C268.605652,294.463959 269.244995,294.926514 269.930420,295.706726 
	C269.391998,295.525909 268.807465,295.027435 268.094604,294.265198 
z"/>
<path fill="#2C2E64" opacity="1.000000" stroke="none" 
	d="
M194.233215,321.860931 
	C194.450394,321.366211 194.926041,320.729340 195.719559,320.040955 
	C195.522171,320.565887 195.006912,321.142334 194.233215,321.860931 
z"/>
<path fill="#2C2E64" opacity="1.000000" stroke="none" 
	d="
M237.240677,278.845001 
	C237.449417,278.349823 237.918625,277.723877 238.697906,277.037659 
	C238.505722,277.556366 238.003433,278.135315 237.240677,278.845001 
z"/>
<path fill="#2C2E64" opacity="1.000000" stroke="none" 
	d="
M192.246399,323.812317 
	C192.454315,323.325775 192.919662,322.708374 193.691879,322.032104 
	C193.500443,322.542664 193.002121,323.112030 192.246399,323.812317 
z"/>
<path fill="#2C2E64" opacity="1.000000" stroke="none" 
	d="
M179.247284,336.895844 
	C179.450775,336.390289 179.914001,335.741333 180.696259,335.038300 
	C180.512527,335.573608 180.009766,336.163025 179.247284,336.895844 
z"/>
<path fill="#0F104B" opacity="1.000000" stroke="none" 
	d="
M296.925476,322.361816 
	C297.260773,322.531403 297.597382,323.006226 297.952637,323.787231 
	C297.623077,323.617950 297.274963,323.142517 296.925476,322.361816 
z"/>
<path fill="#2C2E64" opacity="1.000000" stroke="none" 
	d="
M190.295349,325.057495 
	C190.456238,324.745239 190.915924,324.415558 191.662598,324.036316 
	C191.497787,324.337860 191.045975,324.688965 190.295349,325.057495 
z"/>
<path fill="#2C2E64" opacity="1.000000" stroke="none" 
	d="
M177.312469,338.087769 
	C177.474548,337.722595 177.949860,337.378143 178.731903,337.011597 
	C178.567657,337.362549 178.096664,337.735504 177.312469,338.087769 
z"/>
<path fill="#0F104B" opacity="1.000000" stroke="none" 
	d="
M334.940247,360.341431 
	C335.279297,360.276459 335.586273,360.481415 336.059143,360.912842 
	C335.786041,360.963318 335.347107,360.787323 334.940247,360.341431 
z"/>
<path fill="#2C2E64" opacity="1.000000" stroke="none" 
	d="
M108.752258,144.039062 
	C108.816750,144.240158 108.627045,144.519928 108.199585,144.900299 
	C108.140579,144.706528 108.319321,144.412125 108.752258,144.039062 
z"/>
<path fill="#2C2E64" opacity="1.000000" stroke="none" 
	d="
M99.752213,153.039047 
	C99.818542,153.242493 99.628151,153.524368 99.198761,153.908691 
	C99.138336,153.713257 99.316910,153.415375 99.752213,153.039047 
z"/>
<path fill="#2C2E64" opacity="1.000000" stroke="none" 
	d="
M100.764435,152.059448 
	C100.810600,152.235657 100.614517,152.508240 100.190315,152.895462 
	C100.148865,152.725327 100.335533,152.440567 100.764435,152.059448 
z"/>
<path fill="#2C2E64" opacity="1.000000" stroke="none" 
	d="
M101.744522,151.031754 
	C101.818459,151.245270 101.631828,151.529572 101.202881,151.909698 
	C101.135033,151.704544 101.309502,151.403534 101.744522,151.031754 
z"/>
<path fill="#2C2E64" opacity="1.000000" stroke="none" 
	d="
M102.767288,150.057358 
	C102.813652,150.234329 102.617203,150.506943 102.192123,150.893158 
	C102.150490,150.722168 102.337486,150.437576 102.767288,150.057358 
z"/>
<path fill="#2C2E64" opacity="1.000000" stroke="none" 
	d="
M103.745697,149.040115 
	C103.813126,149.243774 103.624405,149.524445 103.198105,149.907410 
	C103.136856,149.712173 103.313202,149.414642 103.745697,149.040115 
z"/>
<path fill="#2C2E64" opacity="1.000000" stroke="none" 
	d="
M104.747482,148.039932 
	C104.813873,148.242523 104.625565,148.521759 104.200233,148.901566 
	C104.139740,148.706955 104.316261,148.411774 104.747482,148.039932 
z"/>
<path fill="#2C2E64" opacity="1.000000" stroke="none" 
	d="
M105.748138,147.040558 
	C105.814079,147.242508 105.625679,147.521729 105.200333,147.901703 
	C105.140182,147.707565 105.316986,147.412689 105.748138,147.040558 
z"/>
<path fill="#2C2E64" opacity="1.000000" stroke="none" 
	d="
M106.747063,146.040955 
	C106.812683,146.241760 106.624886,146.521210 106.200256,146.901703 
	C106.140175,146.708374 106.316910,146.413986 106.747063,146.040955 
z"/>
<path fill="#2C2E64" opacity="1.000000" stroke="none" 
	d="
M107.745621,145.037933 
	C107.813171,145.241852 107.625824,145.522171 107.200409,145.901611 
	C107.138466,145.705246 107.314598,145.409790 107.745621,145.037933 
z"/>
<path fill="#2C2E64" opacity="1.000000" stroke="none" 
	d="
M122.744019,130.037155 
	C122.812447,130.242310 122.625053,130.522507 122.199715,130.901962 
	C122.137238,130.704880 122.312714,130.408524 122.744019,130.037155 
z"/>
<path fill="#2C2E64" opacity="1.000000" stroke="none" 
	d="
M109.761673,143.047913 
	C109.816307,143.235962 109.621872,143.512344 109.194458,143.898010 
	C109.145187,143.716934 109.328896,143.426605 109.761673,143.047913 
z"/>
<path fill="#2C2E64" opacity="1.000000" stroke="none" 
	d="
M117.771294,135.058426 
	C117.816650,135.234818 117.618713,135.508133 117.191879,135.896301 
	C117.151321,135.725906 117.339661,135.440613 117.771294,135.058426 
z"/>
<path fill="#2C2E64" opacity="1.000000" stroke="none" 
	d="
M118.752823,134.046524 
	C118.813171,134.240158 118.621803,134.518845 118.195755,134.906036 
	C118.141083,134.720230 118.321098,134.425903 118.752823,134.046524 
z"/>
<path fill="#2C2E64" opacity="1.000000" stroke="none" 
	d="
M124.755630,128.048035 
	C124.813995,128.240555 124.622093,128.516983 124.196487,128.899200 
	C124.143639,128.713959 124.324501,128.422958 124.755630,128.048035 
z"/>
<path fill="#2C2E64" opacity="1.000000" stroke="none" 
	d="
M123.747810,129.036407 
	C123.815819,129.242111 123.627266,129.522095 123.200447,129.901093 
	C123.138535,129.703613 123.314888,129.407135 123.747810,129.036407 
z"/>
<path fill="#2C2E64" opacity="1.000000" stroke="none" 
	d="
M119.752563,133.047531 
	C119.811745,133.240143 119.621765,133.518204 119.196838,133.900604 
	C119.142395,133.714294 119.322891,133.423630 119.752563,133.047531 
z"/>
<path fill="#2C2E64" opacity="1.000000" stroke="none" 
	d="
M136.521729,121.836113 
	C136.495621,121.889557 136.502838,121.895569 136.507416,121.887688 
	C136.512009,121.879807 136.547852,121.782669 136.521729,121.836113 
z"/>
<path fill="#2C2E64" opacity="1.000000" stroke="none" 
	d="
M120.745934,132.037781 
	C120.814056,132.243118 120.626762,132.524582 120.200256,132.903748 
	C120.137543,132.705582 120.314034,132.409729 120.745934,132.037781 
z"/>
<path fill="#2C2E64" opacity="1.000000" stroke="none" 
	d="
M121.746933,131.039658 
	C121.812584,131.241180 121.624046,131.520386 121.198730,131.900696 
	C121.138893,131.706970 121.315819,131.412155 121.746933,131.039658 
z"/>
<path fill="#2C2E64" opacity="1.000000" stroke="none" 
	d="
M83.768684,169.058838 
	C83.811623,169.231812 83.613083,169.504272 83.186775,169.893753 
	C83.148407,169.726624 83.337807,169.442490 83.768684,169.058838 
z"/>
<path fill="#2C2E64" opacity="1.000000" stroke="none" 
	d="
M69.731262,183.048340 
	C69.755417,183.248154 69.501862,183.540802 68.960312,183.923798 
	C68.932724,183.723175 69.193138,183.432175 69.731262,183.048340 
z"/>
<path fill="#2C2E64" opacity="1.000000" stroke="none" 
	d="
M70.758011,182.044571 
	C70.811981,182.231995 70.616821,182.509125 70.188316,182.896637 
	C70.139603,182.716125 70.324242,182.425217 70.758011,182.044571 
z"/>
<path fill="#2C2E64" opacity="1.000000" stroke="none" 
	d="
M71.746323,181.041595 
	C71.807228,181.237061 71.615326,181.515030 71.189011,181.900208 
	C71.134232,181.712967 71.313881,181.418533 71.746323,181.041595 
z"/>
<path fill="#2C2E64" opacity="1.000000" stroke="none" 
	d="
M81.745758,171.037109 
	C81.812836,171.239807 81.625008,171.518616 81.200851,171.898682 
	C81.139977,171.704376 81.315414,171.408798 81.745758,171.037109 
z"/>
<path fill="#2C2E64" opacity="1.000000" stroke="none" 
	d="
M82.753769,170.035233 
	C82.819031,170.237732 82.628670,170.518433 82.199768,170.900055 
	C82.140198,170.705124 82.319168,170.409286 82.753769,170.035233 
z"/>
<path fill="#2C2E64" opacity="1.000000" stroke="none" 
	d="
M98.772003,154.063202 
	C98.811501,154.232437 98.611168,154.503525 98.184059,154.893204 
	C98.148918,154.729553 98.340546,154.447296 98.772003,154.063202 
z"/>
<path fill="#2C2E64" opacity="1.000000" stroke="none" 
	d="
M84.752884,168.036072 
	C84.818718,168.239655 84.627228,168.521744 84.196617,168.906647 
	C84.136848,168.711166 84.316200,168.412872 84.752884,168.036072 
z"/>
<path fill="#2C2E64" opacity="1.000000" stroke="none" 
	d="
M85.770134,167.057556 
	C85.814659,167.233276 85.615265,167.505661 85.187485,167.894714 
	C85.148140,167.725647 85.337173,167.439941 85.770134,167.057556 
z"/>
<path fill="#2C2E64" opacity="1.000000" stroke="none" 
	d="
M86.761536,166.047607 
	C86.817986,166.238159 86.623413,166.516327 86.194534,166.904205 
	C86.143661,166.721024 86.327087,166.428131 86.761536,166.047607 
z"/>
<path fill="#2C2E64" opacity="1.000000" stroke="none" 
	d="
M87.763062,165.054932 
	C87.811806,165.234589 87.615463,165.508743 87.189972,165.898102 
	C87.146545,165.725342 87.332260,165.437393 87.763062,165.054932 
z"/>
<path fill="#2C2E64" opacity="1.000000" stroke="none" 
	d="
M88.742661,164.037720 
	C88.811890,164.244080 88.623886,164.525360 88.197250,164.907059 
	C88.134216,164.709198 88.309822,164.410919 88.742661,164.037720 
z"/>
<path fill="#2C2E64" opacity="1.000000" stroke="none" 
	d="
M89.743668,163.035553 
	C89.813179,163.241760 89.626488,163.522354 89.201302,163.901520 
	C89.137688,163.703369 89.312584,163.406647 89.743668,163.035553 
z"/>
<path fill="#2C2E64" opacity="1.000000" stroke="none" 
	d="
M90.749451,162.039169 
	C90.813423,162.238602 90.624161,162.517639 90.198517,162.898651 
	C90.140167,162.706696 90.318192,162.412735 90.749451,162.039169 
z"/>
<path fill="#2C2E64" opacity="1.000000" stroke="none" 
	d="
M91.748199,161.039795 
	C91.812424,161.239868 91.622719,161.519135 91.196289,161.900665 
	C91.137810,161.708282 91.316040,161.413620 91.748199,161.039795 
z"/>
<path fill="#2C2E64" opacity="1.000000" stroke="none" 
	d="
M92.746506,160.039246 
	C92.812561,160.241684 92.623833,160.521255 92.197762,160.901520 
	C92.137520,160.706940 92.314621,160.411652 92.746506,160.039246 
z"/>
<path fill="#2C2E64" opacity="1.000000" stroke="none" 
	d="
M96.740936,156.033020 
	C96.812759,156.241638 96.626984,156.522705 96.202599,156.902222 
	C96.137108,156.702240 96.310226,156.403839 96.740936,156.033020 
z"/>
<path fill="#2C2E64" opacity="1.000000" stroke="none" 
	d="
M97.753929,155.032562 
	C97.819534,155.235733 97.628471,155.515747 97.199585,155.897614 
	C97.140259,155.702789 97.318764,155.406113 97.753929,155.032562 
z"/>
<path fill="#F7F7FA" opacity="1.000000" stroke="none" 
	d="
M210.586121,296.948273 
	C210.433411,298.067749 210.074310,299.878479 209.215836,300.158600 
	C207.583786,300.691071 205.666107,300.348114 203.412018,300.444061 
	C202.233383,300.518799 201.509811,300.518188 199.987671,300.459839 
	C183.098877,300.499634 167.008621,300.597107 150.918381,300.694611 
	C150.685287,300.581665 150.452179,300.468689 149.858963,299.843933 
	C149.615433,298.541504 149.731995,297.750854 149.848572,296.960236 
	C150.038956,296.949127 150.229355,296.938019 151.061401,296.918640 
	C153.551041,296.368713 155.399017,295.827026 157.246994,295.285339 
	C157.246994,295.285339 157.008362,294.998199 157.361526,295.135559 
	C158.031281,295.158508 158.235016,294.939240 158.325897,294.615082 
	C158.325897,294.615082 158.499481,294.570465 158.822571,294.266724 
	C158.961456,291.653442 159.528381,288.860413 158.423340,287.143524 
	C156.600876,284.312012 153.697845,282.175995 151.129745,279.869141 
	C151.009247,279.991455 151.259933,279.756805 151.182037,279.486450 
	C150.790253,279.031036 150.476395,278.845947 150.094330,278.461914 
	C149.860397,278.012085 149.628357,277.867767 149.247528,277.560120 
	C148.851959,277.103882 148.538864,276.917603 148.135437,276.837982 
	C148.045074,276.944672 148.250809,276.755310 148.150391,276.458038 
	C147.106384,275.361420 146.162781,274.562042 145.124985,273.863647 
	C145.030792,273.964630 145.239273,273.783539 145.166718,273.524353 
	C144.786484,273.102875 144.478836,272.940582 144.120605,272.848846 
	C144.070038,272.919403 144.208923,272.815216 144.110291,272.494263 
	C141.387421,269.725494 138.763168,267.277710 136.092484,264.901184 
	C136.046051,264.972412 136.169434,264.855347 136.062653,264.547363 
	C134.663498,263.100098 133.371124,261.960846 131.994934,260.613525 
	C131.732864,260.141998 131.486969,259.983582 131.101196,259.651672 
	C130.706284,259.189240 130.383606,259.005341 129.983795,258.611176 
	C129.729050,258.138123 129.484161,257.978790 129.102188,257.627869 
	C128.398621,256.869049 127.764839,256.405243 127.026123,255.719788 
	C126.728127,255.212708 126.463905,255.030518 126.064522,254.674988 
	C125.678749,254.226517 125.356972,254.054565 124.949127,253.671356 
	C124.685997,253.190048 124.439026,253.023956 124.052109,252.689270 
	C123.659470,252.254837 123.336861,252.092972 122.915649,251.716888 
	C122.616272,251.243469 122.356819,251.074188 121.982140,250.727356 
	C121.617668,250.295685 121.309753,250.131500 120.903984,249.749237 
	C120.624191,249.248962 120.370667,249.065842 119.995041,248.712158 
	C119.630058,248.292892 119.315582,248.143295 118.887497,247.784607 
	C118.574318,247.309982 118.312744,247.139648 117.863762,246.746918 
	C116.515991,245.310272 115.293633,244.191208 113.141426,242.220856 
	C113.385132,245.417145 113.525085,247.252716 113.561775,249.495575 
	C113.513977,251.578491 113.569443,253.254135 113.471321,255.379471 
	C113.448608,265.964966 113.387901,276.109589 113.854149,286.229950 
	C113.961624,288.562897 115.875015,290.812653 116.957352,293.100677 
	C117.301300,293.447327 117.645248,293.793945 118.485794,294.498596 
	C122.185722,295.557220 125.408318,296.184143 128.578125,297.012970 
	C129.324387,297.208099 129.892563,298.084259 130.542679,298.647095 
	C129.875931,299.208252 129.252853,300.176971 128.534225,300.253906 
	C126.403976,300.482178 124.236031,300.356567 122.082855,300.373291 
	C107.360733,300.487640 92.638603,300.602997 77.916481,300.718018 
	C77.698845,300.604309 77.481216,300.490540 76.918289,299.851379 
	C76.661484,298.532715 76.749985,297.739502 76.838486,296.946259 
	C77.030449,296.923676 77.222404,296.901093 77.688980,296.785400 
	C89.775536,297.057098 94.063263,293.435425 94.150658,281.842651 
	C94.356506,254.538208 94.299118,227.230942 94.194519,199.925415 
	C94.151123,188.599167 91.541527,186.018936 80.312836,184.702148 
	C79.000519,184.548248 77.809792,183.357574 76.562698,182.647552 
	C77.770416,182.123840 78.978142,181.600143 80.614655,180.963913 
	C81.474434,180.898972 81.905418,180.946533 83.091263,181.036652 
	C86.237076,180.998337 88.628006,180.917511 91.018944,180.836670 
	C95.368805,180.884430 99.718658,180.932175 104.977646,181.022858 
	C109.604408,180.992233 113.322037,180.918655 117.039665,180.845093 
	C119.395874,180.887589 121.752083,180.930099 124.968239,181.016907 
	C126.805504,181.077530 127.830963,180.914505 128.746643,181.160370 
	C129.669983,181.408295 130.484314,182.062149 131.346405,182.538147 
	C130.566177,183.364349 129.785950,184.190536 129.005722,185.016724 
	C127.628845,185.059082 126.251961,185.101425 124.107773,185.207336 
	C118.326645,186.058517 114.164619,188.188263 113.964691,193.817902 
	C113.594971,204.228485 113.709244,214.656265 113.621918,225.076874 
	C113.557770,225.490540 113.493629,225.904205 113.374527,227.051331 
	C113.319572,231.001770 113.319572,234.218750 113.319572,238.671036 
	C115.606079,236.512451 116.890694,235.299698 118.175308,234.086945 
	C118.489464,234.030533 118.733307,233.868378 119.312263,233.332184 
	C120.274872,232.439560 120.832062,231.815231 121.389252,231.190903 
	C121.389244,231.190903 121.739517,231.110657 122.132675,230.917389 
	C123.031059,230.154785 123.536301,229.585449 124.041534,229.016113 
	C124.370049,228.977036 124.646210,228.835693 125.277237,228.300629 
	C126.568192,227.139999 127.451927,226.270828 128.335663,225.401672 
	C128.335663,225.401672 128.355591,225.352783 128.612885,225.288849 
	C129.167953,225.042221 129.321457,224.776260 129.330673,224.427032 
	C129.330673,224.427032 129.278625,224.325195 129.595062,224.267212 
	C130.251343,223.791367 130.591171,223.373520 130.931000,222.955688 
	C130.930984,222.955673 130.990753,222.999252 131.265015,222.886612 
	C132.067947,222.201202 132.596634,221.628433 133.125320,221.055649 
	C133.446198,221.000885 133.700623,220.840622 134.278748,220.294678 
	C135.170334,219.392059 135.671768,218.769608 136.173187,218.147156 
	C136.173187,218.147156 136.049591,218.030884 136.414246,218.017090 
	C137.993423,216.739807 139.207947,215.476303 140.422455,214.212799 
	C140.856140,213.934738 141.289825,213.656677 142.134613,213.040237 
	C143.484207,211.612015 144.422699,210.522156 145.361206,209.432312 
	C145.361206,209.432312 145.338837,209.352570 145.656738,209.281921 
	C146.438126,208.621765 146.901611,208.032227 147.365082,207.442688 
	C147.365082,207.442688 147.327438,207.346252 147.630310,207.283417 
	C148.220749,206.790680 148.508331,206.360779 148.795914,205.930847 
	C149.082108,205.716965 149.368301,205.503067 150.058517,204.966522 
	C150.730133,204.173111 150.997742,203.702347 151.265350,203.231598 
	C151.265350,203.231598 151.047958,203.021500 151.436737,203.046310 
	C152.249741,202.404327 152.673965,201.737549 153.098175,201.070755 
	C153.098175,201.070755 153.012589,201.008972 153.346390,200.932465 
	C154.495117,199.600967 155.310028,198.345993 156.124954,197.091019 
	C156.124954,197.091019 156.013062,197.029739 156.379501,196.903107 
	C160.362122,190.113647 160.255875,188.507401 156.028946,185.937683 
	C155.541260,185.698303 155.053574,185.458908 153.951797,185.080048 
	C151.868042,184.675507 150.398392,184.410461 148.928726,184.145416 
	C148.928726,184.145416 148.971542,184.074203 148.986801,183.714355 
	C148.940872,182.900696 148.879684,182.446869 148.818512,181.993042 
	C149.197418,181.705185 149.574478,181.168427 149.955521,181.165573 
	C161.937866,181.076050 173.920624,181.037125 185.903305,180.994171 
	C188.205475,180.985916 190.507690,180.992981 192.809891,180.992981 
	C193.051285,181.397018 193.292694,181.801056 193.534088,182.205093 
	C192.613953,183.098877 191.757416,184.686813 190.763702,184.777908 
	C181.867844,185.593216 175.286774,190.474030 169.468262,196.634644 
	C157.479691,209.328186 145.595749,222.120544 133.558975,234.989624 
	C138.390579,239.904694 144.613251,246.495453 151.117371,252.795670 
	C163.650436,264.935822 176.342590,276.911743 189.435272,289.387573 
	C191.251511,290.570496 192.601242,291.321564 193.950974,292.072662 
	C194.424927,292.393616 194.898865,292.714600 195.844864,293.395477 
	C199.238480,294.566040 202.160034,295.376709 205.081589,296.187378 
	C206.772461,296.441040 208.463348,296.694702 210.586121,296.948273 
z"/>
<path fill="#F6F7FA" opacity="1.000000" stroke="none" 
	d="
M396.146057,283.057434 
	C396.466583,282.992371 396.716949,282.823395 397.282837,282.217560 
	C398.559174,280.644318 399.449829,279.403961 400.340485,278.163605 
	C400.661316,278.090912 400.877319,277.899780 401.292206,277.221863 
	C401.843475,276.300323 402.091034,275.747040 402.338593,275.193756 
	C403.553040,275.442657 404.767487,275.691559 406.606079,276.068390 
	C398.179901,291.071350 386.647491,301.082275 370.546753,305.456757 
	C343.445526,312.819946 313.301788,301.718140 298.001160,278.817566 
	C276.243713,246.253036 289.885498,200.348984 326.246338,184.043320 
	C344.831879,175.708817 363.662567,175.778610 382.525330,183.097260 
	C391.160431,186.447647 391.073212,186.535934 396.592896,179.168427 
	C397.212524,178.341354 398.620209,178.104691 400.518402,177.175018 
	C401.609894,191.802734 402.631012,205.487839 403.652130,219.172958 
	C403.166382,219.501022 402.680603,219.829086 402.194855,220.157166 
	C401.227081,219.035355 399.719574,218.058243 399.374084,216.769608 
	C395.448578,202.127594 386.376709,192.415955 372.074371,187.441422 
	C350.488770,179.933640 329.542206,188.263809 317.598022,209.609131 
	C315.584778,215.444183 313.914307,220.733765 312.243866,226.023361 
	C312.135895,226.459656 312.027954,226.895935 311.734009,228.005402 
	C311.434906,237.122971 311.321777,245.567398 311.208649,254.011810 
	C311.211731,254.452148 311.214813,254.892487 311.298645,256.022888 
	C312.895081,261.482269 314.410736,266.251587 315.926392,271.020905 
	C316.064178,271.589111 316.201965,272.157318 316.610046,273.245270 
	C317.874054,275.230164 318.867798,276.695343 319.861511,278.160492 
	C319.861511,278.160492 319.933258,278.076599 319.890381,278.348511 
	C320.073395,278.865479 320.299316,279.110535 320.525238,279.355560 
	C320.525238,279.355560 320.569244,279.393005 320.690125,279.724121 
	C322.107422,281.468658 323.403870,282.882111 324.700317,284.295563 
	C324.700317,284.295563 324.998779,284.000000 324.942688,284.461731 
	C326.558350,286.324371 328.230103,287.725342 329.901886,289.126282 
	C329.901886,289.126282 329.972351,289.013489 330.049316,289.348206 
	C331.035614,290.184784 331.944977,290.686584 332.854309,291.188385 
	C332.854309,291.188385 332.942047,291.030212 333.045593,291.378662 
	C334.315796,292.281830 335.482452,292.836517 336.649109,293.391235 
	C336.649109,293.391235 336.876526,293.105103 336.997803,293.522949 
	C339.074890,294.650238 341.030731,295.359680 342.986572,296.069153 
	C343.178192,296.329468 343.431671,296.494965 344.316040,296.758331 
	C358.596405,300.355438 371.870331,300.071045 384.254395,292.282349 
	C384.254395,292.282349 384.001221,292.000000 384.460754,292.088959 
	C386.373718,291.161804 387.827179,290.145660 389.280609,289.129547 
	C389.727081,288.837524 390.173584,288.545502 391.086914,288.014832 
	C392.054138,287.194855 392.554504,286.613556 393.054901,286.032257 
	C393.054901,286.032257 393.005951,285.998505 393.288086,285.975098 
	C393.761169,285.649628 393.952087,285.347565 394.143005,285.045471 
	C394.468750,285.009094 394.718231,284.851807 395.246826,284.289520 
	C395.783417,283.689392 395.964722,283.373413 396.146057,283.057434 
z"/>
<path fill="#2C2E64" opacity="1.000000" stroke="none" 
	d="
M113.926804,224.868561 
	C113.709244,214.656265 113.594971,204.228485 113.964691,193.817902 
	C114.164619,188.188263 118.326645,186.058517 123.711075,185.328125 
	C122.362137,186.461884 120.051971,187.155701 119.052216,188.698624 
	C117.251328,191.477936 115.321358,194.692001 115.065758,197.855408 
	C114.346695,206.754730 114.451645,215.720612 113.926804,224.868561 
z"/>
<path fill="#26265A" opacity="1.000000" stroke="none" 
	d="
M383.841705,292.214172 
	C371.870331,300.071045 358.596405,300.355438 344.546204,296.738220 
	C350.317749,296.707001 356.495880,297.526520 362.518951,296.886597 
	C368.279633,296.274567 373.872742,294.119354 379.554382,292.702179 
	C380.813812,292.388062 382.135834,292.324829 383.841705,292.214172 
z"/>
<path fill="#26265A" opacity="1.000000" stroke="none" 
	d="
M311.423157,253.661194 
	C311.321777,245.567398 311.434906,237.122971 311.765747,228.342590 
	C311.968903,230.686539 311.975586,233.366760 311.935333,236.046280 
	C311.848938,241.801239 311.738342,247.555847 311.423157,253.661194 
z"/>
<path fill="#26265A" opacity="1.000000" stroke="none" 
	d="
M312.577026,225.919952 
	C313.914307,220.733765 315.584778,215.444183 317.550537,209.949722 
	C316.200592,215.102081 314.555389,220.459305 312.577026,225.919952 
z"/>
<path fill="#2C2E64" opacity="1.000000" stroke="none" 
	d="
M117.772079,234.063446 
	C116.890694,235.299698 115.606079,236.512451 113.319572,238.671036 
	C113.319572,234.218750 113.319572,231.001770 113.474236,227.353073 
	C114.052818,228.199539 114.324051,229.558136 114.943230,230.733459 
	C115.573364,231.929596 116.546112,232.945251 117.772079,234.063446 
z"/>
<path fill="#2C2E64" opacity="1.000000" stroke="none" 
	d="
M129.259399,185.236267 
	C129.785950,184.190536 130.566177,183.364349 131.346405,182.538147 
	C130.484314,182.062149 129.669983,181.408295 128.746643,181.160370 
	C127.830963,180.914505 126.805504,181.077530 125.405151,180.947418 
	C126.354012,180.317062 127.834061,179.213440 129.068909,179.440918 
	C130.438431,179.693192 132.317856,180.949722 132.662735,182.147034 
	C133.244324,184.166138 132.511215,186.206818 129.259399,185.236267 
z"/>
<path fill="#26265A" opacity="1.000000" stroke="none" 
	d="
M316.144714,270.788330 
	C314.410736,266.251587 312.895081,261.482269 311.423157,256.331207 
	C313.098938,260.818237 314.730988,265.686981 316.144714,270.788330 
z"/>
<path fill="#2C2E64" opacity="1.000000" stroke="none" 
	d="
M156.070129,186.341614 
	C160.255875,188.507401 160.362122,190.113647 156.424103,196.948700 
	C156.105301,193.662460 156.108322,190.203995 156.070129,186.341614 
z"/>
<path fill="#2C2E64" opacity="1.000000" stroke="none" 
	d="
M204.933853,295.909180 
	C202.160034,295.376709 199.238480,294.566040 196.131439,293.460480 
	C198.892685,293.987396 201.839401,294.809204 204.933853,295.909180 
z"/>
<path fill="#2C2E64" opacity="1.000000" stroke="none" 
	d="
M116.929138,180.532608 
	C113.322037,180.918655 109.604408,180.992233 105.436554,180.951691 
	C108.930428,180.631760 112.874527,180.425949 116.929138,180.532608 
z"/>
<path fill="#26265A" opacity="1.000000" stroke="none" 
	d="
M329.910492,288.759521 
	C328.230103,287.725342 326.558350,286.324371 324.792297,284.608398 
	C326.438416,285.659851 328.178741,287.026306 329.910492,288.759521 
z"/>
<path fill="#26265A" opacity="1.000000" stroke="none" 
	d="
M342.900208,295.711670 
	C341.030731,295.359680 339.074890,294.650238 336.899475,293.676971 
	C338.724518,294.060150 340.769165,294.707153 342.900208,295.711670 
z"/>
<path fill="#26265A" opacity="1.000000" stroke="none" 
	d="
M324.725098,283.920990 
	C323.403870,282.882111 322.107422,281.468658 320.706726,279.747742 
	C321.984924,280.808990 323.367401,282.177704 324.725098,283.920990 
z"/>
<path fill="#26265A" opacity="1.000000" stroke="none" 
	d="
M388.878540,289.100891 
	C387.827179,290.145660 386.373718,291.161804 384.587708,292.230347 
	C385.662231,291.212616 387.069336,290.142426 388.878540,289.100891 
z"/>
<path fill="#2C2E64" opacity="1.000000" stroke="none" 
	d="
M140.056244,214.206985 
	C139.207947,215.476303 137.993423,216.739807 136.460175,218.088440 
	C137.324295,216.849442 138.507172,215.525299 140.056244,214.206985 
z"/>
<path fill="#26265A" opacity="1.000000" stroke="none" 
	d="
M319.896912,277.783752 
	C318.867798,276.695343 317.874054,275.230164 316.843628,273.426697 
	C317.848724,274.527924 318.890533,275.967468 319.896912,277.783752 
z"/>
<path fill="#26265A" opacity="1.000000" stroke="none" 
	d="
M399.945984,278.153320 
	C399.449829,279.403961 398.559174,280.644318 397.357788,281.998627 
	C397.881836,280.789398 398.716644,279.466217 399.945984,278.153320 
z"/>
<path fill="#2C2E64" opacity="1.000000" stroke="none" 
	d="
M90.714050,180.606216 
	C88.628006,180.917511 86.237076,180.998337 83.410477,180.963776 
	C85.452934,180.690826 87.931046,180.533295 90.714050,180.606216 
z"/>
<path fill="#2C2E64" opacity="1.000000" stroke="none" 
	d="
M148.993759,184.478363 
	C150.398392,184.410461 151.868042,184.675507 153.677002,185.104218 
	C152.363800,185.115707 150.711304,184.963516 148.993759,184.478363 
z"/>
<path fill="#2C2E64" opacity="1.000000" stroke="none" 
	d="
M155.770782,197.134644 
	C155.310028,198.345993 154.495117,199.600967 153.377441,200.975128 
	C153.855347,199.788971 154.635986,198.483612 155.770782,197.134644 
z"/>
<path fill="#2C2E64" opacity="1.000000" stroke="none" 
	d="
M145.006989,209.379501 
	C144.422699,210.522156 143.484207,211.612015 142.250458,212.806091 
	C142.854416,211.715790 143.753601,210.521240 145.006989,209.379501 
z"/>
<path fill="#2C2E64" opacity="1.000000" stroke="none" 
	d="
M193.884766,291.707550 
	C192.601242,291.321564 191.251511,290.570496 189.729065,289.529114 
	C190.977097,289.940033 192.397827,290.641235 193.884766,291.707550 
z"/>
<path fill="#2C2E64" opacity="1.000000" stroke="none" 
	d="
M127.982986,225.351868 
	C127.451927,226.270828 126.568192,227.139999 125.379936,228.087433 
	C125.927048,227.211151 126.778679,226.256607 127.982986,225.351868 
z"/>
<path fill="#26265A" opacity="1.000000" stroke="none" 
	d="
M336.588379,293.038330 
	C335.482452,292.836517 334.315796,292.281830 332.985168,291.445984 
	C334.056702,291.671692 335.292145,292.178558 336.588379,293.038330 
z"/>
<path fill="#26265A" opacity="1.000000" stroke="none" 
	d="
M332.811707,290.837830 
	C331.944977,290.686584 331.035614,290.184784 330.000153,289.393005 
	C330.839050,289.564453 331.804108,290.025848 332.811707,290.837830 
z"/>
<path fill="#2C2E64" opacity="1.000000" stroke="none" 
	d="
M121.041580,231.194733 
	C120.832062,231.815231 120.274872,232.439560 119.402634,233.126434 
	C119.623032,232.525513 120.158470,231.862030 121.041580,231.194733 
z"/>
<path fill="#2C2E64" opacity="1.000000" stroke="none" 
	d="
M135.842896,218.169281 
	C135.671768,218.769608 135.170334,219.392059 134.370331,220.083374 
	C134.552048,219.498627 135.032333,218.845016 135.842896,218.169281 
z"/>
<path fill="#2C2E64" opacity="1.000000" stroke="none" 
	d="
M147.022583,207.403229 
	C146.901611,208.032227 146.438126,208.621765 145.697021,209.291473 
	C145.839630,208.702377 146.259842,208.033066 147.022583,207.403229 
z"/>
<path fill="#2C2E64" opacity="1.000000" stroke="none" 
	d="
M152.772247,201.116211 
	C152.673965,201.737549 152.249741,202.404327 151.535217,203.160950 
	C151.645386,202.554398 152.045837,201.858047 152.772247,201.116211 
z"/>
<path fill="#2C2E64" opacity="1.000000" stroke="none" 
	d="
M123.736221,229.040558 
	C123.536301,229.585449 123.031059,230.154785 122.237061,230.771149 
	C122.442505,230.233795 122.936699,229.649399 123.736221,229.040558 
z"/>
<path fill="#26265A" opacity="1.000000" stroke="none" 
	d="
M392.746521,286.051819 
	C392.554504,286.613556 392.054138,287.194855 391.262512,287.807037 
	C391.460236,287.249054 391.949188,286.660248 392.746521,286.051819 
z"/>
<path fill="#2C2E64" opacity="1.000000" stroke="none" 
	d="
M132.807571,221.089478 
	C132.596634,221.628433 132.067947,222.201202 131.248062,222.853760 
	C131.467850,222.330124 131.978836,221.726730 132.807571,221.089478 
z"/>
<path fill="#26265A" opacity="1.000000" stroke="none" 
	d="
M402.039978,275.309784 
	C402.091034,275.747040 401.843475,276.300323 401.325317,277.000031 
	C401.283600,276.572906 401.512482,275.999359 402.039978,275.309784 
z"/>
<path fill="#2C2E64" opacity="1.000000" stroke="none" 
	d="
M148.619965,182.155441 
	C148.879684,182.446869 148.940872,182.900696 148.949402,183.696289 
	C148.738297,183.464661 148.579865,182.891251 148.619965,182.155441 
z"/>
<path fill="#2C2E64" opacity="1.000000" stroke="none" 
	d="
M150.989456,203.307129 
	C150.997742,203.702347 150.730133,204.173111 150.200195,204.736816 
	C150.196411,204.347412 150.454987,203.865051 150.989456,203.307129 
z"/>
<path fill="#2C2E64" opacity="1.000000" stroke="none" 
	d="
M148.512390,205.975967 
	C148.508331,206.360779 148.220749,206.790680 147.677826,207.303925 
	C147.691299,206.931854 147.960098,206.476471 148.512390,205.975967 
z"/>
<path fill="#2C2E64" opacity="1.000000" stroke="none" 
	d="
M130.634766,222.988297 
	C130.591171,223.373520 130.251343,223.791367 129.647217,224.290665 
	C129.701462,223.921707 130.020004,223.471313 130.634766,222.988297 
z"/>
<path fill="#2C2E64" opacity="1.000000" stroke="none" 
	d="
M129.081223,224.457977 
	C129.321457,224.776260 129.167953,225.042221 128.638382,225.282043 
	C128.548309,225.055740 128.690033,224.772339 129.081223,224.457977 
z"/>
<path fill="#26265A" opacity="1.000000" stroke="none" 
	d="
M320.541077,279.089783 
	C320.299316,279.110535 320.073395,278.865479 319.836853,278.362061 
	C320.069794,278.343811 320.313354,278.583923 320.541077,279.089783 
z"/>
<path fill="#26265A" opacity="1.000000" stroke="none" 
	d="
M395.896851,283.162903 
	C395.964722,283.373413 395.783417,283.689392 395.326569,284.076355 
	C395.249908,283.854340 395.448792,283.561340 395.896851,283.162903 
z"/>
<path fill="#26265A" opacity="1.000000" stroke="none" 
	d="
M393.891663,285.130615 
	C393.952087,285.347565 393.761169,285.649628 393.296906,286.003510 
	C393.229126,285.775452 393.434723,285.495605 393.891663,285.130615 
z"/>
<path fill="#00045B" opacity="1.000000" stroke="none" 
	d="
M149.330002,277.830078 
	C149.628357,277.867767 149.860397,278.012085 150.167206,278.736145 
	C150.625519,279.391754 150.942734,279.574280 151.259949,279.756805 
	C151.259933,279.756805 151.009247,279.991455 151.093704,280.227295 
	C151.182495,280.942993 151.186829,281.422852 150.882172,282.063202 
	C149.779129,283.180023 148.985092,284.136414 148.191040,285.092773 
	C148.530838,285.446350 148.870621,285.799927 149.210419,286.153503 
	C150.536713,285.382935 151.863022,284.612366 153.377945,283.966492 
	C153.790894,284.296448 153.970871,284.535156 154.106522,284.807312 
	C153.147629,287.721222 152.188751,290.635132 151.142380,293.814850 
	C148.935959,293.100220 147.476501,292.627533 145.707138,292.054443 
	C145.230286,294.056152 144.838684,295.699982 144.349686,297.752686 
	C138.415146,291.428864 133.384979,284.835297 127.083542,279.848053 
	C123.676224,277.151337 122.010902,274.005615 120.731140,270.106873 
	C120.263802,270.272217 119.796455,270.437531 119.329109,270.602875 
	C119.217590,272.966400 119.493355,275.437317 118.876877,277.660889 
	C118.345856,279.576172 116.797935,281.209503 115.298904,282.516968 
	C114.874687,273.076843 114.851196,264.087280 115.196487,254.986816 
	C116.704979,252.918304 117.844666,250.960693 119.249870,249.008545 
	C119.692108,249.003296 119.868835,248.992554 120.045555,248.981827 
	C120.370667,249.065842 120.624191,249.248962 120.994705,249.992218 
	C121.468414,250.633789 121.753548,250.814331 122.038689,250.994858 
	C122.356819,251.074188 122.616272,251.243469 123.018417,251.965271 
	C123.520576,252.605835 123.821358,252.783829 124.122147,252.961823 
	C124.439026,253.023956 124.685997,253.190048 125.047516,253.924103 
	C125.530815,254.575897 125.829666,254.763718 126.128517,254.951523 
	C126.463905,255.030518 126.728127,255.212708 126.735954,255.721039 
	C126.358223,255.965668 126.165718,255.987396 125.748222,256.230652 
	C125.739838,257.415680 125.956436,258.379120 126.173035,259.342590 
	C126.784363,258.890656 127.395691,258.438721 128.299103,257.986237 
	C128.784775,257.964752 128.978378,257.943817 129.171967,257.922882 
	C129.484161,257.978790 129.729050,258.138123 130.074432,258.877563 
	C130.552612,259.546204 130.863007,259.738220 131.173416,259.930206 
	C131.486969,259.983582 131.732864,260.141998 132.026306,260.966370 
	C133.484131,262.636688 134.826782,263.746002 136.169434,264.855347 
	C136.169434,264.855347 136.046051,264.972412 136.117920,265.254395 
	C138.862823,267.962646 141.535873,270.388916 144.208923,272.815216 
	C144.208923,272.815216 144.070038,272.919403 144.199768,273.104919 
	C144.632751,273.454803 144.936020,273.619171 145.239273,273.783539 
	C145.239273,273.783539 145.030792,273.964630 145.127014,274.219482 
	C146.232422,275.234650 147.241608,275.994995 148.250793,276.755310 
	C148.250809,276.755310 148.045074,276.944672 148.214142,277.111084 
	C148.698807,277.461670 149.014404,277.645874 149.330002,277.830078 
z"/>
<path fill="#2C2E64" opacity="1.000000" stroke="none" 
	d="
M78.144592,301.003723 
	C92.638603,300.602997 107.360733,300.487640 122.082855,300.373291 
	C124.236031,300.356567 126.403976,300.482178 128.534225,300.253906 
	C129.252853,300.176971 129.875931,299.208252 130.542679,298.647095 
	C129.892563,298.084259 129.324387,297.208099 128.578125,297.012970 
	C125.408318,296.184143 122.185722,295.557220 118.730667,294.566071 
	C121.822479,294.419067 125.166016,294.562592 129.149994,294.492126 
	C131.097321,296.139679 132.404190,298.001221 133.711060,299.862732 
	C132.086090,300.536011 130.465988,301.780304 128.835403,301.794250 
	C112.636482,301.932434 96.435822,301.873627 80.235733,301.835632 
	C79.614296,301.834167 78.993690,301.479492 78.144592,301.003723 
z"/>
<path fill="#2C2E64" opacity="1.000000" stroke="none" 
	d="
M151.143036,300.984131 
	C167.008621,300.597107 183.098877,300.499634 199.639633,300.559540 
	C198.895538,301.106232 197.702744,301.827606 196.506042,301.834137 
	C182.246323,301.911926 167.986008,301.893005 153.725952,301.856720 
	C152.939377,301.854706 152.153763,301.476685 151.143036,300.984131 
z"/>
<path fill="#2C2E64" opacity="1.000000" stroke="none" 
	d="
M114.827698,255.097717 
	C114.851196,264.087280 114.874687,273.076843 114.904663,282.535522 
	C115.595383,286.099823 116.279617,289.195007 116.960602,292.695435 
	C115.875015,290.812653 113.961624,288.562897 113.854149,286.229950 
	C113.387901,276.109589 113.448608,265.964966 113.676445,255.365723 
	C114.294067,254.988785 114.558250,255.053940 114.827698,255.097717 
z"/>
<path fill="#02055B" opacity="1.000000" stroke="none" 
	d="
M134.051270,300.034912 
	C132.404190,298.001221 131.097321,296.139679 129.473145,294.261444 
	C128.197311,293.455048 127.238777,292.665344 126.280235,291.875671 
	C126.432274,291.358917 126.584312,290.842163 126.736351,290.325439 
	C128.836334,290.786987 131.449524,290.625458 132.927139,291.842590 
	C135.811478,294.218414 138.837433,296.941467 138.832947,302.478302 
	C136.801682,301.439575 135.596588,300.823334 134.051270,300.034912 
z"/>
<path fill="#2C2E64" opacity="1.000000" stroke="none" 
	d="
M151.191177,281.902740 
	C151.186829,281.422852 151.182495,280.942993 151.214203,280.104980 
	C153.697845,282.175995 156.600876,284.312012 158.423340,287.143524 
	C159.528381,288.860413 158.961456,291.653442 158.859451,294.185059 
	C157.280716,291.345062 155.988190,288.283051 154.401093,285.014160 
	C153.970871,284.535156 153.790894,284.296448 153.216400,283.734985 
	C152.307877,282.886780 151.749527,282.394775 151.191177,281.902740 
z"/>
<path fill="#2C2E64" opacity="1.000000" stroke="none" 
	d="
M156.841217,295.213135 
	C155.399017,295.827026 153.551041,296.368713 151.331985,296.825684 
	C152.785751,296.207611 154.610596,295.674255 156.841217,295.213135 
z"/>
<path fill="#2C2E64" opacity="1.000000" stroke="none" 
	d="
M76.534134,296.972748 
	C76.749985,297.739502 76.661484,298.532715 76.571960,299.725922 
	C75.907188,299.778351 75.243431,299.430786 74.579689,299.083221 
	C75.129723,298.388580 75.679749,297.693909 76.534134,296.972748 
z"/>
<path fill="#2C2E64" opacity="1.000000" stroke="none" 
	d="
M149.552216,296.988281 
	C149.731995,297.750854 149.615433,298.541504 149.485992,299.734985 
	C149.400711,299.097351 149.328293,298.056854 149.552216,296.988281 
z"/>
<path fill="#2C2E64" opacity="1.000000" stroke="none" 
	d="
M158.080597,294.586426 
	C158.235016,294.939240 158.031281,295.158508 157.482941,295.278107 
	C157.276291,294.904785 157.471008,294.662933 158.080597,294.586426 
z"/>
<path fill="#030858" opacity="1.000000" stroke="none" 
	d="
M115.196487,254.986816 
	C114.558250,255.053940 114.294067,254.988785 113.830032,254.916016 
	C113.569443,253.254135 113.513977,251.578491 113.848434,249.395355 
	C115.488640,248.280090 116.738914,247.672302 117.989182,247.064514 
	C118.312744,247.139648 118.574318,247.309982 118.879837,248.036926 
	C118.985321,248.666580 118.984840,248.834824 118.984352,249.003082 
	C117.844666,250.960693 116.704979,252.918304 115.196487,254.986816 
z"/>
<path fill="#2C2E64" opacity="1.000000" stroke="none" 
	d="
M144.110291,272.494263 
	C141.535873,270.388916 138.862823,267.962646 136.164337,265.183167 
	C138.763168,267.277710 141.387421,269.725494 144.110291,272.494263 
z"/>
<path fill="#2C2E64" opacity="1.000000" stroke="none" 
	d="
M117.863770,246.746933 
	C116.738914,247.672302 115.488640,248.280090 113.951706,248.988068 
	C113.525085,247.252716 113.385132,245.417145 113.141426,242.220856 
	C115.293633,244.191208 116.515991,245.310272 117.863770,246.746933 
z"/>
<path fill="#2C2E64" opacity="1.000000" stroke="none" 
	d="
M136.062653,264.547363 
	C134.826782,263.746002 133.484131,262.636688 132.110123,261.174469 
	C133.371124,261.960846 134.663498,263.100098 136.062653,264.547363 
z"/>
<path fill="#2C2E64" opacity="1.000000" stroke="none" 
	d="
M148.150391,276.458038 
	C147.241608,275.994995 146.232422,275.234650 145.221207,274.118500 
	C146.162781,274.562042 147.106384,275.361420 148.150391,276.458038 
z"/>
<path fill="#2C2E64" opacity="1.000000" stroke="none" 
	d="
M129.102188,257.627869 
	C128.978378,257.943817 128.784775,257.964752 128.055557,257.834991 
	C127.004356,257.125916 126.488777,256.567535 125.973206,256.009125 
	C126.165718,255.987396 126.358223,255.965668 126.840897,255.942719 
	C127.764839,256.405243 128.398621,256.869049 129.102188,257.627869 
z"/>
<path fill="#2C2E64" opacity="1.000000" stroke="none" 
	d="
M119.249870,249.008545 
	C118.984840,248.834824 118.985321,248.666580 118.993454,248.246002 
	C119.315582,248.143295 119.630058,248.292892 119.995041,248.712158 
	C119.868835,248.992554 119.692108,249.003296 119.249870,249.008545 
z"/>
<path fill="#2C2E64" opacity="1.000000" stroke="none" 
	d="
M121.982140,250.727356 
	C121.753548,250.814331 121.468414,250.633789 121.092560,250.210266 
	C121.309753,250.131500 121.617668,250.295685 121.982140,250.727356 
z"/>
<path fill="#2C2E64" opacity="1.000000" stroke="none" 
	d="
M124.052109,252.689270 
	C123.821358,252.783829 123.520576,252.605835 123.117020,252.179474 
	C123.336861,252.092972 123.659470,252.254837 124.052109,252.689270 
z"/>
<path fill="#2C2E64" opacity="1.000000" stroke="none" 
	d="
M126.064522,254.674988 
	C125.829666,254.763718 125.530815,254.575897 125.133575,254.135345 
	C125.356972,254.054565 125.678749,254.226517 126.064522,254.674988 
z"/>
<path fill="#2C2E64" opacity="1.000000" stroke="none" 
	d="
M131.101196,259.651672 
	C130.863007,259.738220 130.552612,259.546204 130.151566,259.087830 
	C130.383606,259.005341 130.706284,259.189240 131.101196,259.651672 
z"/>
<path fill="#2C2E64" opacity="1.000000" stroke="none" 
	d="
M145.166718,273.524353 
	C144.936020,273.619171 144.632751,273.454803 144.250336,273.034363 
	C144.478836,272.940582 144.786484,273.102875 145.166718,273.524353 
z"/>
<path fill="#2C2E64" opacity="1.000000" stroke="none" 
	d="
M149.247528,277.560120 
	C149.014404,277.645874 148.698807,277.461670 148.304504,277.004395 
	C148.538864,276.917603 148.851959,277.103882 149.247528,277.560120 
z"/>
<path fill="#2C2E64" opacity="1.000000" stroke="none" 
	d="
M151.182037,279.486450 
	C150.942734,279.574280 150.625519,279.391754 150.235413,278.935028 
	C150.476395,278.845947 150.790253,279.031036 151.182037,279.486450 
z"/>
<path fill="#030858" opacity="1.000000" stroke="none" 
	d="
M150.882172,282.063202 
	C151.749527,282.394775 152.307877,282.886780 153.027771,283.610291 
	C151.863022,284.612366 150.536713,285.382935 149.210419,286.153503 
	C148.870621,285.799927 148.530838,285.446350 148.191040,285.092773 
	C148.985092,284.136414 149.779129,283.180023 150.882172,282.063202 
z"/>
<path fill="#030858" opacity="1.000000" stroke="none" 
	d="
M125.748215,256.230652 
	C126.488777,256.567535 127.004356,257.125916 127.763474,257.835541 
	C127.395691,258.438721 126.784363,258.890656 126.173035,259.342590 
	C125.956436,258.379120 125.739838,257.415680 125.748215,256.230652 
z"/>
</svg>