<?xml version="1.0" encoding="UTF-8"?>
<svg version="1.1" xmlns="http://www.w3.org/2000/svg" width="497" height="502">
<path d="M0 0 C1.546875 0.99 1.546875 0.99 3.125 2 C3.125 2.66 3.125 3.32 3.125 4 C3.785 4 4.445 4 5.125 4 C5.125 4.66 5.125 5.32 5.125 6 C5.785 6 6.445 6 7.125 6 C7.125 6.66 7.125 7.32 7.125 8 C7.785 8 8.445 8 9.125 8 C9.125 8.66 9.125 9.32 9.125 10 C9.785 10 10.445 10 11.125 10 C11.125 10.66 11.125 11.32 11.125 12 C11.681875 12.226875 12.23875 12.45375 12.8125 12.6875 C15.78659588 14.37550036 17.84508865 16.46676517 20.125 19 C20.125 19.66 20.125 20.32 20.125 21 C20.785 21 21.445 21 22.125 21 C22.125 21.66 22.125 22.32 22.125 23 C22.785 23 23.445 23 24.125 23 C24.125 23.66 24.125 24.32 24.125 25 C24.785 25 25.445 25 26.125 25 C26.125 25.66 26.125 26.32 26.125 27 C26.785 27 27.445 27 28.125 27 C28.125 27.66 28.125 28.32 28.125 29 C28.681875 29.226875 29.23875 29.45375 29.8125 29.6875 C32.78659588 31.37550036 34.84508865 33.46676517 37.125 36 C37.125 36.66 37.125 37.32 37.125 38 C37.785 38 38.445 38 39.125 38 C39.125 38.66 39.125 39.32 39.125 40 C39.785 40 40.445 40 41.125 40 C41.125 40.66 41.125 41.32 41.125 42 C41.785 42 42.445 42 43.125 42 C43.125 42.66 43.125 43.32 43.125 44 C43.785 44 44.445 44 45.125 44 C45.125 44.66 45.125 45.32 45.125 46 C45.681875 46.226875 46.23875 46.45375 46.8125 46.6875 C49.78659588 48.37550036 51.84508865 50.46676517 54.125 53 C54.125 53.66 54.125 54.32 54.125 55 C54.785 55 55.445 55 56.125 55 C56.125 55.66 56.125 56.32 56.125 57 C56.785 57 57.445 57 58.125 57 C58.125 57.66 58.125 58.32 58.125 59 C58.785 59 59.445 59 60.125 59 C60.125 59.66 60.125 60.32 60.125 61 C60.70765625 61.2578125 61.2903125 61.515625 61.890625 61.78125 C64.3052903 63.09834017 65.94240177 64.55088384 67.875 66.5 C68.48859375 67.1084375 69.1021875 67.716875 69.734375 68.34375 C71.125 70 71.125 70 71.125 72 C71.785 72 72.445 72 73.125 72 C73.125 72.66 73.125 73.32 73.125 74 C73.785 74 74.445 74 75.125 74 C75.125 74.66 75.125 75.32 75.125 76 C75.785 76 76.445 76 77.125 76 C77.125 76.66 77.125 77.32 77.125 78 C77.70765625 78.2578125 78.2903125 78.515625 78.890625 78.78125 C81.3052903 80.09834017 82.94240177 81.55088384 84.875 83.5 C85.48859375 84.1084375 86.1021875 84.716875 86.734375 85.34375 C88.125 87 88.125 87 88.125 89 C88.785 89 89.445 89 90.125 89 C90.125 89.66 90.125 90.32 90.125 91 C94.73822954 88.69338523 97.8644721 85.34912616 101.35546875 81.64453125 C103.125 80 103.125 80 105.125 80 C105.5281543 79.11006348 105.5281543 79.11006348 105.93945312 78.20214844 C107.12790732 75.99459967 108.33242389 74.53457118 110.09375 72.765625 C110.66480469 72.19199219 111.23585938 71.61835938 111.82421875 71.02734375 C112.41847656 70.44082031 113.01273438 69.85429687 113.625 69.25 C114.21925781 68.64800781 114.81351563 68.04601562 115.42578125 67.42578125 C115.99683594 66.85730469 116.56789063 66.28882813 117.15625 65.703125 C117.67767578 65.18395508 118.19910156 64.66478516 118.73632812 64.12988281 C120.125 63 120.125 63 122.125 63 C122.125 62.34 122.125 61.68 122.125 61 C122.785 61 123.445 61 124.125 61 C124.37636719 60.42121094 124.62773437 59.84242188 124.88671875 59.24609375 C126.28092914 56.71716323 127.86290358 55.0656954 129.9375 53.0625 C130.64777344 52.37285156 131.35804688 51.68320313 132.08984375 50.97265625 C132.76144531 50.32167969 133.43304688 49.67070312 134.125 49 C135.0850479 48.00164595 136.04371467 47.00195866 137 46 C139.125 44 139.125 44 141.125 44 C141.125 43.34 141.125 42.68 141.125 42 C141.785 42 142.445 42 143.125 42 C143.785 40.68 144.445 39.36 145.125 38 C145.785 38 146.445 38 147.125 38 C147.351875 37.443125 147.57875 36.88625 147.8125 36.3125 C149.50050036 33.33840412 151.59176517 31.27991135 154.125 29 C154.785 29 155.445 29 156.125 29 C156.125 28.34 156.125 27.68 156.125 27 C156.785 27 157.445 27 158.125 27 C158.125 26.34 158.125 25.68 158.125 25 C160.86455562 21.95604931 163.30563472 19.55603771 167.125 18 C167.125 17.34 167.125 16.68 167.125 16 C167.785 16 168.445 16 169.125 16 C169.125 15.34 169.125 14.68 169.125 14 C169.785 14 170.445 14 171.125 14 C171.125 13.34 171.125 12.68 171.125 12 C171.785 12 172.445 12 173.125 12 C173.125 11.34 173.125 10.68 173.125 10 C173.785 10 174.445 10 175.125 10 C175.125 9.34 175.125 8.68 175.125 8 C177.171875 6.125 177.171875 6.125 179.875 4 C181.19757813 2.948125 181.19757813 2.948125 182.546875 1.875 C189.10379216 -2.89366703 195.1326288 -2.7654164 203.125 -2 C206.20322074 -0.97392642 208.37096791 0.23741946 211.125 2 C211.125 2.66 211.125 3.32 211.125 4 C211.785 4 212.445 4 213.125 4 C213.125 4.66 213.125 5.32 213.125 6 C213.785 6 214.445 6 215.125 6 C215.125 6.66 215.125 7.32 215.125 8 C215.785 8 216.445 8 217.125 8 C217.125 8.66 217.125 9.32 217.125 10 C217.785 10 218.445 10 219.125 10 C219.125 10.66 219.125 11.32 219.125 12 C219.723125 12.268125 220.32125 12.53625 220.9375 12.8125 C223.12347854 13.99917406 224.53832594 15.09599113 226.125 17 C226.125 17.66 226.125 18.32 226.125 19 C226.74375 19.2475 227.3625 19.495 228 19.75 C230.47568687 21.20628639 231.07625002 22.37812506 232.125 25 C232.785 25 233.445 25 234.125 25 C234.125 25.66 234.125 26.32 234.125 27 C234.66640625 27.2165625 235.2078125 27.433125 235.765625 27.65625 C238.94145344 29.46499997 241.33228081 31.91723799 243.875 34.5 C244.38160156 34.99886719 244.88820313 35.49773437 245.41015625 36.01171875 C249.125 39.74658861 249.125 39.74658861 249.125 42 C249.785 42 250.445 42 251.125 42 C251.125 42.66 251.125 43.32 251.125 44 C251.68703125 44.2371875 252.2490625 44.474375 252.828125 44.71875 C255.64394042 46.28947697 257.60455416 48.21471464 259.875 50.5 C260.67421875 51.2940625 261.4734375 52.088125 262.296875 52.90625 C264.125 55 264.125 55 264.125 57 C264.785 57 265.445 57 266.125 57 C266.125 57.66 266.125 58.32 266.125 59 C266.785 59 267.445 59 268.125 59 C268.125 59.66 268.125 60.32 268.125 61 C268.70179504 61.25213257 269.27859009 61.50426514 269.87286377 61.76403809 C272.4090875 63.1559059 274.11183494 64.73280896 276.15917969 66.77539062 C276.93968689 67.54959351 277.72019409 68.32379639 278.52435303 69.12145996 C279.35678528 69.95794067 280.18921753 70.79442139 281.046875 71.65625 C282.33685394 72.94335876 282.33685394 72.94335876 283.65289307 74.25646973 C285.46750826 76.06972467 287.27960316 77.88550481 289.08935547 79.70361328 C291.87115621 82.49614138 294.66348145 85.27782458 297.45703125 88.05859375 C299.21678772 89.81967133 300.97592395 91.58136894 302.734375 93.34375 C303.57490417 94.18023071 304.41543335 95.01671143 305.28143311 95.87854004 C306.43328094 97.03984436 306.43328094 97.03984436 307.60839844 98.22460938 C308.62954742 99.24814514 308.62954742 99.24814514 309.67132568 100.2923584 C311.125 102 311.125 102 311.125 104 C311.785 104 312.445 104 313.125 104 C313.125 104.66 313.125 105.32 313.125 106 C313.785 106 314.445 106 315.125 106 C318.50025899 114.33267063 320.9583459 121.06630727 317.34885788 129.85434628 C312.57556416 138.22283058 304.1415413 145.13230122 297.37011719 151.90014648 C296.44049164 152.83313065 295.51086609 153.76611481 294.55307007 154.72737122 C292.03507877 157.25408895 289.51395602 159.77765821 286.99191952 162.30033755 C285.41282875 163.8801441 283.83445416 165.46066264 282.25632477 167.04142952 C276.74175383 172.56520858 271.22465059 178.08644336 265.70507812 183.60522461 C260.57157862 188.73812106 255.44371067 193.87659693 250.3183887 199.0176577 C245.90135392 203.44776943 241.4804709 207.87401583 237.05657315 212.29727417 C234.42117297 214.93241989 231.7873357 217.56908183 229.15737152 220.20965385 C226.23125758 223.14725254 223.29718442 226.07677421 220.36230469 229.00561523 C219.49674957 229.87678986 218.63119446 230.74796448 217.7394104 231.64553833 C216.93778473 232.44296951 216.13615906 233.2404007 215.3102417 234.06199646 C214.61860302 234.75417991 213.92696434 235.44636335 213.21436691 236.15952206 C207.82453818 240.90730515 202.22675966 242.65741185 195.125 243 C190.58822965 242.24865118 186.24708153 241.06104076 182.125 239 C182.125 238.34 182.125 237.68 182.125 237 C181.5414764 236.7415159 180.9579528 236.48303181 180.35674667 236.21671486 C177.94455596 234.90162461 176.35434424 233.47558491 174.41705322 231.53256226 C173.3360006 230.45563362 173.3360006 230.45563362 172.23310852 229.35694885 C171.45267685 228.56932663 170.67224518 227.78170441 169.86816406 226.97021484 C169.03852646 226.14086929 168.20888885 225.31152374 167.35411072 224.45704651 C164.61151536 221.71305719 161.8760732 218.96205027 159.140625 216.2109375 C157.24161233 214.30708432 155.3410969 212.40473405 153.44061279 210.50234985 C148.94952149 206.00504509 144.46355233 201.50266689 139.97940326 196.99844134 C134.87332462 191.86999956 129.76155841 186.74724302 124.64930773 181.62495494 C114.13486654 171.08961478 103.62758535 160.54716018 93.125 150 C89.96434688 151.39830555 87.84205985 153.03859937 85.41273499 155.48521423 C84.69084488 156.20724533 83.96895477 156.92927643 83.22518921 157.67318726 C82.44326202 158.46544708 81.66133484 159.25770691 80.85571289 160.07397461 C80.02435318 160.90825485 79.19299347 161.7425351 78.33644104 162.60209656 C76.06020201 164.88793532 73.78840445 167.17808593 71.51818013 169.46989512 C69.13841036 171.86964214 66.75215225 174.26291656 64.36631775 176.65663147 C57.78539867 183.26162513 51.21452728 189.87658538 44.64374542 196.49166107 C38.62315462 202.55263834 32.60045258 208.61147691 26.56959528 214.66224104 C24.19603117 217.04412424 21.82467447 219.428124 19.4582386 221.81709099 C16.81783265 224.48140205 14.17142062 227.13961005 11.52368164 229.79663086 C10.74377869 230.58686646 9.96387573 231.37710205 9.16033936 232.19128418 C8.43562943 232.9161351 7.71091949 233.64098602 6.96424866 234.38780212 C6.33985932 235.01663268 5.71546999 235.64546324 5.07215977 236.29334927 C-0.92166774 241.54683195 -7.72798916 243.30103772 -15.61328125 242.83984375 C-21.1564275 241.75688464 -24.7812457 239.52903726 -28.87304688 235.69238281 C-29.37470619 235.22254093 -29.87636551 234.75269905 -30.39322662 234.26861954 C-39.07396782 226.06247368 -47.48745021 217.57228517 -55.94133568 209.13385296 C-57.48141481 207.59673453 -59.02206652 206.06019216 -60.56288147 204.52381134 C-65.40043855 199.69985317 -70.23604721 194.87395479 -75.06875563 190.04513907 C-80.61922093 184.49917235 -86.17620729 178.95984876 -91.73882437 173.42607093 C-96.06372723 169.12280619 -100.38282698 164.81377271 -104.69759226 160.50034356 C-107.26495314 157.93402675 -109.83464711 155.37015901 -112.41044617 152.81230927 C-115.2761581 149.9661916 -118.12973877 147.10819987 -120.98242188 144.24902344 C-122.25102554 142.99424194 -122.25102554 142.99424194 -123.54525757 141.71411133 C-129.96213188 135.25136724 -134.3287161 129.83386802 -134.91015625 120.48828125 C-134.76258034 110.04318611 -128.91653221 103.82253907 -121.8984375 96.7578125 C-119.875 95 -119.875 95 -117.875 95 C-117.60623047 94.40670898 -117.33746094 93.81341797 -117.06054688 93.20214844 C-115.87209268 90.99459967 -114.66757611 89.53457118 -112.90625 87.765625 C-112.33519531 87.19199219 -111.76414062 86.61835938 -111.17578125 86.02734375 C-110.58152344 85.44082031 -109.98726562 84.85429687 -109.375 84.25 C-108.78074219 83.64800781 -108.18648437 83.04601562 -107.57421875 82.42578125 C-107.00316406 81.85730469 -106.43210937 81.28882813 -105.84375 80.703125 C-105.32232422 80.18395508 -104.80089844 79.66478516 -104.26367188 79.12988281 C-102.875 78 -102.875 78 -100.875 78 C-100.4718457 77.11006348 -100.4718457 77.11006348 -100.06054688 76.20214844 C-98.87209268 73.99459967 -97.66757611 72.53457118 -95.90625 70.765625 C-95.33519531 70.19199219 -94.76414063 69.61835938 -94.17578125 69.02734375 C-93.58152344 68.44082031 -92.98726562 67.85429687 -92.375 67.25 C-91.78074219 66.64800781 -91.18648437 66.04601562 -90.57421875 65.42578125 C-90.00316406 64.85730469 -89.43210938 64.28882813 -88.84375 63.703125 C-88.32232422 63.18395508 -87.80089844 62.66478516 -87.26367188 62.12988281 C-85.875 61 -85.875 61 -83.875 61 C-83.4718457 60.11006348 -83.4718457 60.11006348 -83.06054688 59.20214844 C-81.87209268 56.99459967 -80.66757611 55.53457118 -78.90625 53.765625 C-78.33519531 53.19199219 -77.76414063 52.61835938 -77.17578125 52.02734375 C-76.58152344 51.44082031 -75.98726562 50.85429687 -75.375 50.25 C-74.78074219 49.64800781 -74.18648437 49.04601562 -73.57421875 48.42578125 C-73.00316406 47.85730469 -72.43210938 47.28882813 -71.84375 46.703125 C-71.32232422 46.18395508 -70.80089844 45.66478516 -70.26367188 45.12988281 C-68.875 44 -68.875 44 -66.875 44 C-66.6584375 43.45859375 -66.441875 42.9171875 -66.21875 42.359375 C-64.41000003 39.18354656 -61.95776201 36.79271919 -59.375 34.25 C-58.87613281 33.74339844 -58.37726563 33.23679688 -57.86328125 32.71484375 C-54.12841139 29 -54.12841139 29 -51.875 29 C-51.875 28.34 -51.875 27.68 -51.875 27 C-51.215 27 -50.555 27 -49.875 27 C-49.6584375 26.45859375 -49.441875 25.9171875 -49.21875 25.359375 C-47.41000003 22.18354656 -44.95776201 19.79271919 -42.375 17.25 C-41.62669922 16.49009766 -41.62669922 16.49009766 -40.86328125 15.71484375 C-37.12841139 12 -37.12841139 12 -34.875 12 C-34.875 11.34 -34.875 10.68 -34.875 10 C-34.215 10 -33.555 10 -32.875 10 C-32.61332031 9.40445313 -32.35164063 8.80890625 -32.08203125 8.1953125 C-30.80692773 5.87619218 -29.57186616 4.57694651 -27.5625 2.875 C-26.98886719 2.37742187 -26.41523437 1.87984375 -25.82421875 1.3671875 C-18.63083297 -3.67827347 -7.77355994 -3.92154544 0 0 Z " fill="#030859" transform="translate(151.875,122)"/>
<path d="M0 0 C1.546875 0.99 1.546875 0.99 3.125 2 C3.125 2.66 3.125 3.32 3.125 4 C3.785 4 4.445 4 5.125 4 C5.125 4.66 5.125 5.32 5.125 6 C5.785 6 6.445 6 7.125 6 C7.125 6.66 7.125 7.32 7.125 8 C7.785 8 8.445 8 9.125 8 C9.125 8.66 9.125 9.32 9.125 10 C9.785 10 10.445 10 11.125 10 C11.125 10.66 11.125 11.32 11.125 12 C11.681875 12.226875 12.23875 12.45375 12.8125 12.6875 C15.78659588 14.37550036 17.84508865 16.46676517 20.125 19 C20.125 19.66 20.125 20.32 20.125 21 C20.785 21 21.445 21 22.125 21 C22.125 21.66 22.125 22.32 22.125 23 C22.785 23 23.445 23 24.125 23 C24.125 23.66 24.125 24.32 24.125 25 C24.785 25 25.445 25 26.125 25 C26.125 25.66 26.125 26.32 26.125 27 C26.785 27 27.445 27 28.125 27 C28.455 27.99 28.785 28.98 29.125 30 C28.795 30.66 28.465 31.32 28.125 32 C29.445 32.33 30.765 32.66 32.125 33 C32.125 33.99 32.125 34.98 32.125 36 C33.445 36.33 34.765 36.66 36.125 37 C36.125 37.66 36.125 38.32 36.125 39 C36.785 39 37.445 39 38.125 39 C38.455 39.99 38.785 40.98 39.125 42 C39.785 42.33 40.445 42.66 41.125 43 C41.125 43.66 41.125 44.32 41.125 45 C42.115 45.33 43.105 45.66 44.125 46 C43.774375 46.94875 43.42375 47.8975 43.0625 48.875 C41.77473223 51.87060172 41.77473223 51.87060172 43.125 54 C42.84258117 56.3400417 42.51249213 58.67504723 42.125 61 C41.795 60.01 41.465 59.02 41.125 58 C26.275 58 11.425 58 -3.875 58 C-3.875 59.32 -3.875 60.64 -3.875 62 C-0.905 62.33 2.065 62.66 5.125 63 C6.15515747 66.45838579 6.69551087 68.67722259 5.2421875 72.046875 C-0.54887387 81.11402252 -8.56854077 89.3265404 -16.78125 96.2265625 C-19.37234005 98.42125445 -21.86964638 100.70801441 -24.375 103 C-26.20787187 104.66717414 -28.04118501 106.33386331 -29.875 108 C-31.06802734 109.08667969 -31.06802734 109.08667969 -32.28515625 110.1953125 C-32.99542969 110.83210938 -33.70570312 111.46890625 -34.4375 112.125 C-35.05753906 112.68445313 -35.67757812 113.24390625 -36.31640625 113.8203125 C-37.875 115 -37.875 115 -39.875 115 C-39.94940677 109.00434046 -40.00372362 103.00895242 -40.03979492 97.01293945 C-40.05483947 94.97513138 -40.07528012 92.93735546 -40.10131836 90.8996582 C-40.13789247 87.96297244 -40.15476999 85.02671649 -40.16796875 82.08984375 C-40.18345261 81.18540024 -40.19893646 80.28095673 -40.21488953 79.34910583 C-40.21635525 73.78382443 -39.52128321 69.92544037 -36.875 65 C-33.54287101 61.77200004 -30.50781299 61.83532574 -26.0625 61.8125 C-24.33286959 61.86048182 -22.60336466 61.91827348 -20.875 62 C-20.875 60.68 -20.875 59.36 -20.875 58 C-39.355 58 -57.835 58 -76.875 58 C-76.875 59.32 -76.875 60.64 -76.875 62 C-76.00488281 61.94779297 -76.00488281 61.94779297 -75.1171875 61.89453125 C-69.90369013 61.7138655 -66.3545602 62.01362654 -61.875 65 C-59.20578795 67.50672251 -58.66561261 69.51890899 -58.5007782 73.05393982 C-58.48600026 74.73438135 -58.48785459 76.41501792 -58.50268555 78.09545898 C-58.49903488 79.01460083 -58.49538422 79.93374268 -58.49162292 80.8807373 C-58.48351646 83.91937736 -58.49712956 86.95748427 -58.51171875 89.99609375 C-58.51223739 92.10832214 -58.51171954 94.22055102 -58.51020813 96.33277893 C-58.51029786 100.76041873 -58.52072836 105.18787648 -58.53881836 109.61547852 C-58.56149153 115.28946555 -58.56205216 120.96318623 -58.55530071 126.63720608 C-58.55195799 130.99952051 -58.5585968 135.3617743 -58.56842995 139.72407722 C-58.57227804 141.81604762 -58.57343178 143.90802476 -58.5718441 145.99999809 C-58.57147298 148.9251781 -58.58410743 151.85001765 -58.6003418 154.77514648 C-58.59786438 155.63920609 -58.59538696 156.50326569 -58.59283447 157.39350891 C-58.64190248 162.93718226 -59.05603371 166.95366292 -62.875 171.25 C-67.07866506 173.70213795 -71.07956167 173.81376939 -75.875 174 C-75.875 174.99 -75.875 175.98 -75.875 177 C-58.385 177 -40.895 177 -22.875 177 C-22.875 176.01 -22.875 175.02 -22.875 174 C-24.07125 174.0825 -25.2675 174.165 -26.5 174.25 C-30.96819955 174.26584468 -33.38279476 172.82702329 -36.875 170 C-39.47226506 167.40273494 -39.79353194 165.45751429 -39.99525452 161.84857178 C-39.99303391 161.07579895 -39.99081329 160.30302612 -39.98852539 159.50683594 C-39.98841209 158.18591949 -39.98841209 158.18591949 -39.98829651 156.83831787 C-39.98313522 155.89651672 -39.97797394 154.95471558 -39.97265625 153.984375 C-39.9712413 153.01340881 -39.96982635 152.04244263 -39.96836853 151.04205322 C-39.96277663 147.94467065 -39.95022559 144.84736068 -39.9375 141.75 C-39.93248395 139.64843854 -39.92792123 137.54687596 -39.92382812 135.4453125 C-39.91280985 130.29684708 -39.89555074 125.14843584 -39.875 120 C-36.4322362 121.4898968 -34.13646507 123.45410584 -31.45776367 126.06323242 C-30.16203682 127.32045357 -30.16203682 127.32045357 -28.84013367 128.60307312 C-27.45553703 129.96550896 -27.45553703 129.96550896 -26.04296875 131.35546875 C-25.57098871 131.81929773 -25.09900867 132.28312672 -24.61272621 132.76101112 C-22.11810458 135.21402236 -19.63001396 137.67345529 -17.14672852 140.13793945 C-14.58310542 142.67938165 -11.99699608 145.19660639 -9.40513134 147.70919323 C-7.41269442 149.64934023 -5.43823753 151.60705164 -3.46819496 153.56991005 C-2.06328189 154.96036466 -0.63930048 156.3314668 0.78486633 157.70219421 C6.91254915 163.87215473 6.91254915 163.87215473 7.52572632 167.12734985 C7.20256975 169.95265508 6.58700804 171.6204934 4.375 173.4375 C1.87410469 174.06272383 -0.30669956 174.14268336 -2.875 174 C-2.875 174.99 -2.875 175.98 -2.875 177 C17.255 177 37.385 177 58.125 177 C58.455 176.01 58.785 175.02 59.125 174 C59.125 175.32 59.125 176.64 59.125 178 C38.995 178 18.865 178 -1.875 178 C-0.82297472 179.2758197 -0.82297472 179.2758197 1.56105042 179.12025452 C3.18320717 179.1169236 3.18320717 179.1169236 4.83813477 179.11352539 C6.66992027 179.11341209 6.66992027 179.11341209 8.53871155 179.11329651 C9.88127686 179.10818911 11.22384175 179.10297311 12.56640625 179.09765625 C13.93261158 179.09579199 15.29881757 179.09436813 16.6650238 179.09336853 C20.26701695 179.08954394 23.86897 179.07971417 27.47094727 179.06866455 C31.14403745 179.05844916 34.81713409 179.05387064 38.49023438 179.04882812 C45.70184123 179.03809184 52.913415 179.02101614 60.125 179 C60.455 177.35 60.785 175.7 61.125 174 C62.445 174.33 63.765 174.66 65.125 175 C59.3575423 182.04564414 52.89362647 188.39540111 46.46484375 194.828125 C45.22979143 196.06639542 43.99481239 197.30473894 42.75990295 198.54315186 C40.18211905 201.12689691 37.60230373 203.70859385 35.02124023 206.2890625 C31.7187131 209.59148764 28.4231424 212.90076264 25.12926388 216.21181107 C22.58561485 218.76658399 20.03742833 221.31679357 17.48794746 223.86574554 C16.27073992 225.0841306 15.05514771 226.30413172 13.84123039 227.52579498 C12.14488725 229.23195521 10.44230147 230.93163991 8.73803711 232.62988281 C8.2417984 233.13174103 7.74555969 233.63359924 7.23428345 234.15066528 C1.20440657 240.12665951 -4.46327328 242.47773956 -12.875 243 C-19.55591531 242.60924746 -24.03517059 240.2285904 -28.87304688 235.69238281 C-29.37470619 235.22254093 -29.87636551 234.75269905 -30.39322662 234.26861954 C-39.07396782 226.06247368 -47.48745021 217.57228517 -55.94133568 209.13385296 C-57.48141481 207.59673453 -59.02206652 206.06019216 -60.56288147 204.52381134 C-65.40043855 199.69985317 -70.23604721 194.87395479 -75.06875563 190.04513907 C-80.61922093 184.49917235 -86.17620729 178.95984876 -91.73882437 173.42607093 C-96.06372723 169.12280619 -100.38282698 164.81377271 -104.69759226 160.50034356 C-107.26495314 157.93402675 -109.83464711 155.37015901 -112.41044617 152.81230927 C-115.2761581 149.9661916 -118.12973877 147.10819987 -120.98242188 144.24902344 C-122.25102554 142.99424194 -122.25102554 142.99424194 -123.54525757 141.71411133 C-129.96213188 135.25136724 -134.3287161 129.83386802 -134.91015625 120.48828125 C-134.76258034 110.04318611 -128.91653221 103.82253907 -121.8984375 96.7578125 C-119.875 95 -119.875 95 -117.875 95 C-117.60623047 94.40670898 -117.33746094 93.81341797 -117.06054688 93.20214844 C-115.87209268 90.99459967 -114.66757611 89.53457118 -112.90625 87.765625 C-112.33519531 87.19199219 -111.76414062 86.61835938 -111.17578125 86.02734375 C-110.58152344 85.44082031 -109.98726562 84.85429687 -109.375 84.25 C-108.78074219 83.64800781 -108.18648437 83.04601562 -107.57421875 82.42578125 C-107.00316406 81.85730469 -106.43210937 81.28882813 -105.84375 80.703125 C-105.32232422 80.18395508 -104.80089844 79.66478516 -104.26367188 79.12988281 C-102.875 78 -102.875 78 -100.875 78 C-100.4718457 77.11006348 -100.4718457 77.11006348 -100.06054688 76.20214844 C-98.87209268 73.99459967 -97.66757611 72.53457118 -95.90625 70.765625 C-95.33519531 70.19199219 -94.76414063 69.61835938 -94.17578125 69.02734375 C-93.58152344 68.44082031 -92.98726562 67.85429687 -92.375 67.25 C-91.78074219 66.64800781 -91.18648437 66.04601562 -90.57421875 65.42578125 C-90.00316406 64.85730469 -89.43210938 64.28882813 -88.84375 63.703125 C-88.32232422 63.18395508 -87.80089844 62.66478516 -87.26367188 62.12988281 C-85.875 61 -85.875 61 -83.875 61 C-83.4718457 60.11006348 -83.4718457 60.11006348 -83.06054688 59.20214844 C-81.87209268 56.99459967 -80.66757611 55.53457118 -78.90625 53.765625 C-78.33519531 53.19199219 -77.76414063 52.61835938 -77.17578125 52.02734375 C-76.58152344 51.44082031 -75.98726562 50.85429687 -75.375 50.25 C-74.78074219 49.64800781 -74.18648437 49.04601562 -73.57421875 48.42578125 C-73.00316406 47.85730469 -72.43210938 47.28882813 -71.84375 46.703125 C-71.32232422 46.18395508 -70.80089844 45.66478516 -70.26367188 45.12988281 C-68.875 44 -68.875 44 -66.875 44 C-66.6584375 43.45859375 -66.441875 42.9171875 -66.21875 42.359375 C-64.41000003 39.18354656 -61.95776201 36.79271919 -59.375 34.25 C-58.87613281 33.74339844 -58.37726563 33.23679688 -57.86328125 32.71484375 C-54.12841139 29 -54.12841139 29 -51.875 29 C-51.875 28.34 -51.875 27.68 -51.875 27 C-51.215 27 -50.555 27 -49.875 27 C-49.6584375 26.45859375 -49.441875 25.9171875 -49.21875 25.359375 C-47.41000003 22.18354656 -44.95776201 19.79271919 -42.375 17.25 C-41.62669922 16.49009766 -41.62669922 16.49009766 -40.86328125 15.71484375 C-37.12841139 12 -37.12841139 12 -34.875 12 C-34.875 11.34 -34.875 10.68 -34.875 10 C-34.215 10 -33.555 10 -32.875 10 C-32.61332031 9.40445313 -32.35164063 8.80890625 -32.08203125 8.1953125 C-30.80692773 5.87619218 -29.57186616 4.57694651 -27.5625 2.875 C-26.98886719 2.37742187 -26.41523437 1.87984375 -25.82421875 1.3671875 C-18.63083297 -3.67827347 -7.77355994 -3.92154544 0 0 Z M43.125 52 C44.115 52.33 45.105 52.66 46.125 53 C45.135 53 44.145 53 43.125 53 C43.125 52.67 43.125 52.34 43.125 52 Z " fill="#040959" transform="translate(151.875,122)"/>
<path d="M0 0 C18.48 0 36.96 0 56 0 C56 1.32 56 2.64 56 4 C55.26394531 4.03738281 54.52789062 4.07476562 53.76953125 4.11328125 C46.28704879 4.39945902 46.28704879 4.39945902 40 8 C37.67574072 13.28165384 37.65788817 18.32640127 37.5859375 23.9921875 C37.56657135 24.93812775 37.5472052 25.88406799 37.5272522 26.8586731 C37.46772951 29.86402522 37.42118054 32.86941621 37.375 35.875 C37.33679508 37.91928704 37.29774189 39.96355842 37.2578125 42.0078125 C37.16205046 47.0050803 37.07791886 52.00242342 37 57 C43.43432921 51.82400172 49.71458631 46.57800661 55.6875 40.875 C59.48054119 37.27820808 63.25181075 33.73372751 67.3125 30.4375 C70.76281687 27.45077196 73.6002911 24.05792923 76.4375 20.5 C76.87553955 19.96560303 77.3135791 19.43120605 77.76489258 18.88061523 C81.18341349 14.43985963 82 10.52015128 82 5 C79.03 4.67 76.06 4.34 73 4 C73 2.68 73 1.36 73 0 C87.52 0 102.04 0 117 0 C117 1.32 117 2.64 117 4 C116.20335937 4.17015625 115.40671875 4.3403125 114.5859375 4.515625 C108.51933672 5.90312007 103.91999392 7.18700471 99 11 C97.6808418 11.69429379 96.35350594 12.37530495 95 13 C95 13.66 95 14.32 95 15 C93.38033592 16.71237958 91.70289095 18.37036263 90 20 C88.60878354 21.39928688 87.21759047 22.79859724 85.82707214 24.19857788 C83.68032851 26.35890064 81.53074655 28.51639088 79.38110352 30.67382812 C78.25649806 31.8034592 77.13279218 32.9339866 76.01000977 34.06542969 C69.85596273 40.26551697 63.71632891 46.39907715 57 52 C58.45506171 56.36518513 61.55209022 58.72926985 64.93725586 61.70019531 C73.20356403 68.9696553 80.88330719 76.80643931 88.625 84.625 C91.34334453 87.37019554 94.06516866 90.11187432 96.7890625 92.8515625 C97.39448883 93.46528717 97.99991516 94.07901184 98.62368774 94.71133423 C104.32850212 100.44820966 110.14950447 106.23666246 117.1875 110.3125 C118.38439453 111.01826172 118.38439453 111.01826172 119.60546875 111.73828125 C124.80129872 114.47605136 129.21448141 115.41164218 135 116 C135 116.99 135 117.98 135 119 C114.87 119 94.74 119 74 119 C74 118.01 74 117.02 74 116 C78.455 115.01 78.455 115.01 83 114 C83.41140668 108.96103166 83.41140668 108.96103166 81.3430481 104.49453735 C80.56742523 103.73144257 79.79180237 102.96834778 78.99267578 102.18212891 C78.11821808 101.30497223 77.24376038 100.42781555 76.34280396 99.52407837 C75.37741244 98.59111864 74.41157109 97.65862418 73.4453125 96.7265625 C72.46216029 95.75393804 71.4804806 94.77982307 70.50021362 93.80429077 C67.92211097 91.24718654 65.32325284 88.71221199 62.71984863 86.1809082 C60.59464315 84.10759255 58.48445688 82.01935336 56.37492561 79.93010902 C52.02075893 75.61820975 47.65494043 71.31812257 43.26611328 67.04150391 C42.48889923 66.28318268 41.71168518 65.52486145 40.91091919 64.74356079 C39.11031699 62.94161815 39.11031699 62.94161815 37 62 C37.0936585 68.17498858 37.19978096 74.34959084 37.31738281 80.52416992 C37.35563014 82.62404537 37.3904904 84.72398538 37.421875 86.82397461 C37.4676175 89.84512381 37.52559723 92.86583016 37.5859375 95.88671875 C37.59748871 96.82335861 37.60903992 97.75999847 37.62094116 98.72502136 C37.7351482 105.10268968 37.7351482 105.10268968 40 111 C44.56988078 114.91704067 48.19591817 115.59971849 54 116 C54 116.99 54 117.98 54 119 C36.51 119 19.02 119 1 119 C1 118.01 1 117.02 1 116 C1.83144531 115.81824219 2.66289063 115.63648438 3.51953125 115.44921875 C4.60621094 115.19785156 5.69289063 114.94648438 6.8125 114.6875 C7.89144531 114.44386719 8.97039062 114.20023437 10.08203125 113.94921875 C13.00199677 112.99935045 14.23810472 112.464312 16 110 C16.83286818 107.26830119 17.13091199 104.79418363 17.15390015 101.94606018 C17.16250061 101.14844269 17.17110107 100.3508252 17.17996216 99.52903748 C17.18422211 98.66295364 17.18848206 97.79686981 17.19287109 96.90454102 C17.20104858 95.98539917 17.20922607 95.06625732 17.21765137 94.1192627 C17.24244415 91.08081712 17.25900234 88.04241795 17.2734375 85.00390625 C17.27876118 83.96572187 17.28408485 82.9275375 17.28956985 81.85789299 C17.31626995 76.36677667 17.33565821 70.87568288 17.35009766 65.38452148 C17.36345848 60.83809385 17.39135525 56.29211274 17.43212891 51.74584961 C17.48136513 46.25580905 17.506207 40.76617471 17.51332474 35.27592278 C17.52004732 33.18390403 17.5352954 31.0918947 17.55921555 29.00000191 C17.59076995 26.07446873 17.59091886 23.15051158 17.58349609 20.22485352 C17.59990143 19.36079391 17.61630676 18.49673431 17.63320923 17.60649109 C17.58800554 13.25681294 17.40956094 11.52792367 14.65811157 7.98130798 C11.57223422 5.68115117 9.48543132 5.1465906 5.6875 4.6875 C4.61886719 4.54699219 3.55023438 4.40648437 2.44921875 4.26171875 C1.64097656 4.17535156 0.83273438 4.08898437 0 4 C0 2.68 0 1.36 0 0 Z " fill="#F7F8FA" transform="translate(75,180)"/>
<path d="M0 0 C3.10387543 1.06766107 4.6246813 1.0495469 7.69140625 -0.07421875 C9.03411446 -2.067937 10.36794119 -4.06767495 11.69140625 -6.07421875 C13.01140625 -6.07421875 14.33140625 -6.07421875 15.69140625 -6.07421875 C16.03342356 -1.69985368 16.36335959 2.67534808 16.69140625 7.05078125 C16.78679687 8.26894531 16.8821875 9.48710937 16.98046875 10.7421875 C17.60438174 19.1650129 17.80829754 27.48200935 17.69140625 35.92578125 C16.70140625 35.92578125 15.71140625 35.92578125 14.69140625 35.92578125 C14.40007812 35.00796875 14.10875 34.09015625 13.80859375 33.14453125 C9.73003302 20.93450039 5.05575341 13.50074862 -6.30859375 6.92578125 C-17.62087447 1.50770775 -31.13604484 -0.57725522 -43.24609375 3.55078125 C-54.6399969 8.47281116 -63.83372946 16.27853286 -68.68359375 27.98828125 C-69.25170703 29.62517387 -69.79371446 31.27137215 -70.30859375 32.92578125 C-70.59347656 33.77269531 -70.87835938 34.61960938 -71.171875 35.4921875 C-76.74582495 52.79520747 -75.85504715 72.7369511 -68.24609375 89.30078125 C-61.53570155 101.62656441 -52.09719494 108.61376324 -38.9375 113.06640625 C-35.04671702 113.98779727 -31.40627379 114.23267041 -27.43359375 114.17578125 C-26.37325928 114.16236694 -26.37325928 114.16236694 -25.29150391 114.14868164 C-10.7698432 113.82646038 1.14358194 107.96862943 11.703125 98.13671875 C13.74025362 95.87146374 15.22074961 93.58696945 16.69140625 90.92578125 C18.67140625 91.42078125 18.67140625 91.42078125 20.69140625 91.92578125 C16.31918205 104.33583176 5.3968198 112.92142579 -5.98828125 118.56640625 C-14.78554364 122.16810897 -22.35576085 123.38184391 -31.87109375 123.23828125 C-32.94294922 123.24150391 -34.01480469 123.24472656 -35.11914062 123.24804688 C-44.76584175 123.18314552 -52.66390856 121.72090521 -61.24609375 117.30078125 C-61.93703125 116.94814209 -62.62796875 116.59550293 -63.33984375 116.23217773 C-77.29025738 108.89354309 -87.19878632 98.45916934 -93.30859375 83.92578125 C-93.72367187 82.95125 -94.13875 81.97671875 -94.56640625 80.97265625 C-100.36197961 65.16654709 -98.62595442 45.81407726 -91.80078125 30.5546875 C-87.93233421 23.49252256 -82.9689189 17.61589759 -77.30859375 11.92578125 C-76.71820313 11.30058594 -76.1278125 10.67539063 -75.51953125 10.03125 C-56.34838119 -8.67540083 -23.38075347 -11.29274487 0 0 Z " fill="#F6F7FA" transform="translate(384.30859375,183.07421875)"/>
<path d="M0 0 C1.32 0.33 2.64 0.66 4 1 C4 32.35 4 63.7 4 96 C3.34 95.67 2.68 95.34 2 95 C1.9845388 93.3253643 1.9845388 93.3253643 1.96876526 91.61689758 C1.87101475 81.09635746 1.76827904 70.57587626 1.66066074 60.05543232 C1.60549328 54.64675728 1.55208315 49.23807677 1.50268555 43.8293457 C1.45495091 38.609772 1.40260481 33.39026305 1.34705925 28.17076683 C1.32667692 26.17928874 1.3079571 24.18779291 1.29092598 22.19628334 C1.26679066 19.40723896 1.23674864 16.61831613 1.20532227 13.8293457 C1.1995668 13.00575562 1.19381134 12.18216553 1.18788147 11.33361816 C1.13786397 7.42908865 0.95353547 3.81315632 0 0 Z " fill="#0E1050" transform="translate(89,190)"/>
<path d="M0 0 C0 0.99 0 1.98 0 3 C-0.639375 3.61875 -1.27875 4.2375 -1.9375 4.875 C-4.23990956 6.81881035 -4.23990956 6.81881035 -4.3125 9.5625 C-4.539375 10.366875 -4.76625 11.17125 -5 12 C-7.31104818 13.05047644 -9.64583651 14.05007438 -12 15 C-13.4818964 17.0351761 -13.4818964 17.0351761 -14 19 C-14.66 18.67 -15.32 18.34 -16 18 C-16 18.99 -16 19.98 -16 21 C-16.99 21 -17.98 21 -19 21 C-18.67 22.65 -18.34 24.3 -18 26 C-0.51 26 16.98 26 35 26 C35 26.33 35 26.66 35 27 C16.52 27 -1.96 27 -21 27 C-21 26.01 -21 25.02 -21 24 C-21.66 23.67 -22.32 23.34 -23 23 C-21.38113585 21.32737283 -19.7547271 19.66204463 -18.125 18 C-17.22007813 17.071875 -16.31515625 16.14375 -15.3828125 15.1875 C-13 13 -13 13 -11 13 C-10.76539062 12.43796875 -10.53078125 11.8759375 -10.2890625 11.296875 C-8.69337 8.45364109 -6.71075457 6.51901873 -4.375 4.25 C-3.55773437 3.45078125 -2.74046875 2.6515625 -1.8984375 1.828125 C-0.95871094 0.92320312 -0.95871094 0.92320312 0 0 Z " fill="#2C2D63" transform="translate(96,153)"/>
<path d="M0 0 C0.33 1.32 0.66 2.64 1 4 C0.34 4 -0.32 4 -1 4 C-0.96447021 5.06436279 -0.92894043 6.12872559 -0.89233398 7.2253418 C-0.7616707 11.18545528 -0.63861544 15.14577535 -0.51782227 19.10620117 C-0.4645506 20.8181808 -0.40923354 22.53009808 -0.35180664 24.24194336 C-0.26947999 26.70673178 -0.19458353 29.17165294 -0.12109375 31.63671875 C-0.09405869 32.39836838 -0.06702362 33.16001801 -0.03916931 33.94474792 C0.06790504 37.78292465 -0.04302882 41.27200114 -1 45 C-0.01 45 0.98 45 2 45 C1.1875 46.9375 1.1875 46.9375 0 49 C-1.485 49.495 -1.485 49.495 -3 50 C-3.07440677 44.00434046 -3.12872362 38.00895242 -3.16479492 32.01293945 C-3.17983947 29.97513138 -3.20028012 27.93735546 -3.22631836 25.8996582 C-3.26289247 22.96297244 -3.27976999 20.02671649 -3.29296875 17.08984375 C-3.30845261 16.18540024 -3.32393646 15.28095673 -3.33988953 14.34910583 C-3.34135501 8.78472189 -2.55984849 4.95730751 0 0 Z " fill="#3A3C70" transform="translate(115,187)"/>
<path d="M0 0 C8.44333791 -0.42691034 14.75903687 -0.63421641 22 4 C22 4.66 22 5.32 22 6 C22.66 6 23.32 6 24 6 C24 6.66 24 7.32 24 8 C24.66 8 25.32 8 26 8 C26 8.66 26 9.32 26 10 C26.66 10 27.32 10 28 10 C28 10.66 28 11.32 28 12 C28.66 12 29.32 12 30 12 C30 12.66 30 13.32 30 14 C30.598125 14.2475 31.19625 14.495 31.8125 14.75 C34.28647521 16.16370012 35.43370255 17.65055383 37 20 C35.02 20 33.04 20 31 20 C31 18.35 31 16.7 31 15 C28.525 14.505 28.525 14.505 26 14 C25.67 12.35 25.34 10.7 25 9 C24.01 9 23.02 9 22 9 C21.67 7.68 21.34 6.36 21 5 C20.01 5 19.02 5 18 5 C18 4.34 18 3.68 18 3 C16.576875 3.309375 16.576875 3.309375 15.125 3.625 C14.09375 3.74875 13.0625 3.8725 12 4 C11.34 3.34 10.68 2.68 10 2 C7.56747339 1.53837573 7.56747339 1.53837573 4.875 1.375 C3.96492187 1.30023438 3.05484375 1.22546875 2.1171875 1.1484375 C1.41851562 1.09945312 0.71984375 1.05046875 0 1 C0 0.67 0 0.34 0 0 Z " fill="#4D4F7F" transform="translate(133,120)"/>
<path d="M0 0 C0.33 1.65 0.66 3.3 1 5 C-0.134375 5.268125 -1.26875 5.53625 -2.4375 5.8125 C-4.2009375 6.4003125 -4.2009375 6.4003125 -6 7 C-6.33 7.99 -6.66 8.98 -7 10 C-7.61875 10.28875 -8.2375 10.5775 -8.875 10.875 C-11.21325652 11.87549073 -11.21325652 11.87549073 -12.4375 14.4375 C-14 17 -14 17 -16.625 18.5625 C-19.17161776 19.76764427 -19.17161776 19.76764427 -19.8125 22.1875 C-19.874375 22.785625 -19.93625 23.38375 -20 24 C-21.98 24.33 -23.96 24.66 -26 25 C-25.07038578 23.84775972 -24.1309875 22.70340824 -23.1875 21.5625 C-22.66542969 20.92441406 -22.14335937 20.28632813 -21.60546875 19.62890625 C-20 18 -20 18 -17 17 C-16.29313046 15.68753755 -15.63016413 14.35096831 -15 13 C-13.61132812 11.35253906 -13.61132812 11.35253906 -12.03125 9.765625 C-11.17466797 8.90517578 -11.17466797 8.90517578 -10.30078125 8.02734375 C-9.70652344 7.44082031 -9.11226562 6.85429687 -8.5 6.25 C-7.90574219 5.64800781 -7.31148437 5.04601562 -6.69921875 4.42578125 C-6.12816406 3.85730469 -5.55710937 3.28882813 -4.96875 2.703125 C-4.44732422 2.18395508 -3.92589844 1.66478516 -3.38867188 1.12988281 C-2 0 -2 0 0 0 Z " fill="#595A89" transform="translate(51,200)"/>
<path d="M0 0 C1.1055189 0.93590504 2.20935453 1.87379858 3.3125 2.8125 C3.92738281 3.33457031 4.54226562 3.85664063 5.17578125 4.39453125 C8.51952278 7.3373102 8.51952278 7.3373102 10 9 C10 9.66 10 10.32 10 11 C10.66 11 11.32 11 12 11 C12 11.66 12 12.32 12 13 C12.66 13 13.32 13 14 13 C14 13.66 14 14.32 14 15 C14.66 15 15.32 15 16 15 C16 15.66 16 16.32 16 17 C16.639375 17.28875 17.27875 17.5775 17.9375 17.875 C20 19 20 19 21 21 C19.02 21 17.04 21 15 21 C14.67 20.34 14.34 19.68 14 19 C14.33 18.01 14.66 17.02 15 16 C14.01 16 13.02 16 12 16 C12 15.34 12 14.68 12 14 C10.02 13.34 8.04 12.68 6 12 C5.67 10.35 5.34 8.7 5 7 C3.02 6.34 1.04 5.68 -1 5 C-0.67 3.35 -0.34 1.7 0 0 Z " fill="#232564" transform="translate(213,183)"/>
<path d="M0 0 C3.37559685 0.58199946 4.62752283 1.62752283 7 4 C7.845625 4.28875 8.69125 4.5775 9.5625 4.875 C12 6 12 6 13.125 8.5625 C13.41375 9.366875 13.7025 10.17125 14 11 C14.99 11.33 15.98 11.66 17 12 C19 15 19 15 18.625 17.1875 C18.315625 18.0846875 18.315625 18.0846875 18 19 C14.99599642 16.02484693 11.99747845 13.04422593 9 10.0625 C8.14148438 9.21236328 7.28296875 8.36222656 6.3984375 7.48632812 C5.58632812 6.67744141 4.77421875 5.86855469 3.9375 5.03515625 C3.18339844 4.2862915 2.42929688 3.53742676 1.65234375 2.76586914 C0 1 0 1 0 0 Z " fill="#0C0F53" transform="translate(155,256)"/>
<path d="M0 0 C-1.01239973 2.66905383 -1.67084832 3.81191333 -4.1875 5.25 C-8.62504951 8.01114192 -12.64519179 12.29038357 -15 17 C-16.32 17 -17.64 17 -19 17 C-15.92248719 10.29221723 -8.18857187 0 0 0 Z " fill="#181A5B" transform="translate(338,188)"/>
<path d="M0 0 C0 0.99 0 1.98 0 3 C-0.639375 3.61875 -1.27875 4.2375 -1.9375 4.875 C-4.23990956 6.81881035 -4.23990956 6.81881035 -4.3125 9.5625 C-4.539375 10.366875 -4.76625 11.17125 -5 12 C-7.31104818 13.05047644 -9.64583651 14.05007438 -12 15 C-13.4818964 17.0351761 -13.4818964 17.0351761 -14 19 C-14.66 18.67 -15.32 18.34 -16 18 C-16 18.99 -16 19.98 -16 21 C-17.65 21.33 -19.3 21.66 -21 22 C-20.0919838 20.86800647 -19.17316174 19.74467637 -18.25 18.625 C-17.48429687 17.68527344 -17.48429687 17.68527344 -16.703125 16.7265625 C-15 15 -15 15 -12.921875 14.0234375 C-10.46155508 12.71326714 -10.18917947 11.48565332 -9 9 C-7.50622437 7.37140707 -5.96011936 5.78983024 -4.375 4.25 C-3.55773437 3.45078125 -2.74046875 2.6515625 -1.8984375 1.828125 C-0.95871094 0.92320312 -0.95871094 0.92320312 0 0 Z " fill="#5B5C8E" transform="translate(96,153)"/>
<path d="M0 0 C3.37462715 0.54723683 5.08235 1.0549 8 3 C8 3.99 8 4.98 8 6 C9.65 6.33 11.3 6.66 13 7 C13 7.99 13 8.98 13 10 C13.99 10.33 14.98 10.66 16 11 C15.34 12.32 14.68 13.64 14 15 C11.66265901 12.69152056 9.33081534 10.37756659 7 8.0625 C6.33226563 7.40314453 5.66453125 6.74378906 4.9765625 6.06445312 C4.34492187 5.43603516 3.71328125 4.80761719 3.0625 4.16015625 C2.47597656 3.57886963 1.88945313 2.99758301 1.28515625 2.39868164 C0 1 0 1 0 0 Z " fill="#34356E" transform="translate(61,295)"/>
<path d="M0 0 C14.52 0 29.04 0 44 0 C44 0.33 44 0.66 44 1 C31.13 1.33 18.26 1.66 5 2 C4.67 2.66 4.34 3.32 4 4 C2.68 4 1.36 4 0 4 C0 2.68 0 1.36 0 0 Z " fill="#D5D8EA" transform="translate(148,180)"/>
<path d="M0 0 C0 3.78374009 -1.10336895 5.74863249 -3 9 C-5.16724898 11.02276572 -6.92580087 11.97066546 -9.6875 13.0625 C-12.15938605 13.76803846 -12.15938605 13.76803846 -13 16 C-12.34 16.33 -11.68 16.66 -11 17 C-11.99 17 -12.98 17 -14 17 C-14 13 -14 13 -12.71484375 11.35253906 C-12.12832031 10.82885742 -11.54179687 10.30517578 -10.9375 9.765625 C-10.30585938 9.19199219 -9.67421875 8.61835938 -9.0234375 8.02734375 C-8.35570312 7.44082031 -7.68796875 6.85429687 -7 6.25 C-6.33226562 5.64800781 -5.66453125 5.04601562 -4.9765625 4.42578125 C-3.32623806 2.94048925 -1.66745779 1.46599443 0 0 Z " fill="#1F2160" transform="translate(146,218)"/>
<path d="M0 0 C1.15224028 0.92961422 2.29659176 1.8690125 3.4375 2.8125 C4.07558594 3.33457031 4.71367187 3.85664063 5.37109375 4.39453125 C7 6 7 6 8 9 C8.66 9 9.32 9 10 9 C10 9.66 10 10.32 10 11 C10.66 11 11.32 11 12 11 C12 11.66 12 12.32 12 13 C12.66 13 13.32 13 14 13 C14 13.66 14 14.32 14 15 C14.66 15 15.32 15 16 15 C16 15.66 16 16.32 16 17 C16.99 17.33 17.98 17.66 19 18 C17.1875 18.6875 17.1875 18.6875 15 19 C13.25 17.6875 13.25 17.6875 12 16 C12 15.34 12 14.68 12 14 C11.01 13.67 10.02 13.34 9 13 C9 12.01 9 11.02 9 10 C8.34 10 7.68 10 7 10 C6.67 9.34 6.34 8.68 6 8 C5.01 7.67 4.02 7.34 3 7 C2.67 6.01 2.34 5.02 2 4 C1.01 3.67 0.02 3.34 -1 3 C-0.67 2.01 -0.34 1.02 0 0 Z " fill="#5E658F" transform="translate(181,151)"/>
<path d="M0 0 C0 3 0 3 -1.5625 4.9375 C-3.27412216 6.89558235 -3.27412216 6.89558235 -2.6875 9.25 C-2.460625 9.8275 -2.23375 10.405 -2 11 C-3.98 11.99 -3.98 11.99 -6 13 C-6.99 12.34 -7.98 11.68 -9 11 C-8.67 10.67 -8.34 10.34 -8 10 C-8.99 9.34 -9.98 8.68 -11 8 C-10.37351562 7.59007812 -9.74703125 7.18015625 -9.1015625 6.7578125 C-8.28429687 6.21898437 -7.46703125 5.68015625 -6.625 5.125 C-5.40683594 4.32449219 -5.40683594 4.32449219 -4.1640625 3.5078125 C-1.92405904 2.04134945 -1.92405904 2.04134945 0 0 Z " fill="#0C115B" transform="translate(394,290)"/>
<path d="M0 0 C4.88049925 3.9419417 9.0580583 8.11950075 13 13 C10.0625 12.1875 10.0625 12.1875 7 11 C6.67 10.01 6.34 9.02 6 8 C5.34 8 4.68 8 4 8 C4 7.34 4 6.68 4 6 C3.01 6 2.02 6 1 6 C-0.6875 4 -0.6875 4 -2 2 C-1.34 2 -0.68 2 0 2 C0 1.34 0 0.68 0 0 Z " fill="#3E4071" transform="translate(387,149)"/>
<path d="M0 0 C0.66 0.66 1.32 1.32 2 2 C1.625 4.125 1.625 4.125 1 6 C0.34 5.67 -0.32 5.34 -1 5 C-1 4.01 -1 3.02 -1 2 C-1.62648437 2.01160156 -2.25296875 2.02320313 -2.8984375 2.03515625 C-3.71570313 2.04417969 -4.53296875 2.05320312 -5.375 2.0625 C-6.18710938 2.07410156 -6.99921875 2.08570313 -7.8359375 2.09765625 C-10 2 -10 2 -12 1 C-12 0.34 -12 -0.32 -12 -1 C-7.30524633 -1.92053993 -4.27192062 -2.31904262 0 0 Z " fill="#1E205D" transform="translate(131,294)"/>
<path d="M0 0 C1.9375 0.3125 1.9375 0.3125 4 1 C4.33 1.99 4.66 2.98 5 4 C5.66 4 6.32 4 7 4 C7 4.99 7 5.98 7 7 C8.65 7 10.3 7 12 7 C11.67 8.65 11.34 10.3 11 12 C2.63371151 4.94975689 2.63371151 4.94975689 0 2 C0 1.34 0 0.68 0 0 Z " fill="#393972" transform="translate(297,322)"/>
<path d="M0 0 C4.0084034 2.0042017 5.41409657 3.49055963 8 7 C6.35 6.67 4.7 6.34 3 6 C3 6.99 3 7.98 3 9 C2.01 9 1.02 9 0 9 C0 6.03 0 3.06 0 0 Z " fill="#151856" transform="translate(113,243)"/>
<path d="M0 0 C-0.33 1.65 -0.66 3.3 -1 5 C-2.32 5.33 -3.64 5.66 -5 6 C-5 6.99 -5 7.98 -5 9 C-6.8125 10.0625 -6.8125 10.0625 -9 11 C-9.99 10.67 -10.98 10.34 -12 10 C-10.38113585 8.32737283 -8.7547271 6.66204463 -7.125 5 C-6.22007813 4.071875 -5.31515625 3.14375 -4.3828125 2.1875 C-2 0 -2 0 0 0 Z " fill="#5E5F8C" transform="translate(117,134)"/>
<path d="M0 0 C0.66 0.99 1.32 1.98 2 3 C1.34 3 0.68 3 0 3 C-1.32 5.31 -2.64 7.62 -4 10 C-4.33 9.34 -4.66 8.68 -5 8 C-6.32 8.99 -7.64 9.98 -9 11 C-9.66 10.67 -10.32 10.34 -11 10 C-9.54474941 8.51780033 -8.085701 7.03932861 -6.625 5.5625 C-5.81289063 4.73878906 -5.00078125 3.91507813 -4.1640625 3.06640625 C-2 1 -2 1 0 0 Z " fill="#45467F" transform="translate(288,170)"/>
<path d="M0 0 C1.0625 1.8125 1.0625 1.8125 2 4 C1.67 4.99 1.34 5.98 1 7 C0.62039634 9.22497621 0.26907991 11.45486192 -0.0625 13.6875 C-0.23910156 14.86699219 -0.41570313 16.04648438 -0.59765625 17.26171875 C-0.73042969 18.16535156 -0.86320312 19.06898438 -1 20 C-1.33 20 -1.66 20 -2 20 C-3.09750432 12.76240394 -3.36470959 6.72941919 0 0 Z " fill="#5B5B87" transform="translate(20,230)"/>
<path d="M0 0 C0.66 0.33 1.32 0.66 2 1 C0.68 2.65 -0.64 4.3 -2 6 C-6.56454251 5.45660208 -9.9728176 4.20536179 -14 2 C-10.25 0.875 -10.25 0.875 -8 2 C-5.6670134 2.04022391 -3.33293334 2.04320247 -1 2 C-0.67 1.34 -0.34 0.68 0 0 Z " fill="#1F2055" transform="translate(393,179)"/>
<path d="M0 0 C8.44333791 -0.42691034 14.75903687 -0.63421641 22 4 C20.68 4.33 19.36 4.66 18 5 C18 4.34 18 3.68 18 3 C16.576875 3.309375 16.576875 3.309375 15.125 3.625 C14.09375 3.74875 13.0625 3.8725 12 4 C11.34 3.34 10.68 2.68 10 2 C7.56747339 1.53837573 7.56747339 1.53837573 4.875 1.375 C3.96492187 1.30023438 3.05484375 1.22546875 2.1171875 1.1484375 C1.41851562 1.09945312 0.71984375 1.05046875 0 1 C0 0.67 0 0.34 0 0 Z " fill="#63648E" transform="translate(133,120)"/>
<path d="M0 0 C1.98 0.66 3.96 1.32 6 2 C3.14723863 4.93200474 0.34920216 7.64315404 -3 10 C-3 9.01 -3 8.02 -3 7 C-2.34 7 -1.68 7 -1 7 C-1.33 5.35 -1.66 3.7 -2 2 C-1.34 2 -0.68 2 0 2 C0 1.34 0 0.68 0 0 Z " fill="#121658" transform="translate(308,187)"/>
<path d="M0 0 C3.33727786 1.17255709 5.77437487 2.18868404 8 5 C8 5.66 8 6.32 8 7 C8.66 7 9.32 7 10 7 C9.67 7.66 9.34 8.32 9 9 C7.02 8.34 5.04 7.68 3 7 C2.67 5.35 2.34 3.7 2 2 C1.34 2 0.68 2 0 2 C0 1.34 0 0.68 0 0 Z " fill="#292B61" transform="translate(376,140)"/>
<path d="M0 0 C0.66 0 1.32 0 2 0 C2 0.66 2 1.32 2 2 C1.01 2.495 1.01 2.495 0 3 C-0.69658363 4.65438613 -1.36096883 6.32254318 -2 8 C-2.99 9.485 -2.99 9.485 -4 11 C-5.32 10.67 -6.64 10.34 -8 10 C-7.34 8.68 -6.68 7.36 -6 6 C-5.34 6 -4.68 6 -4 6 C-4 5.34 -4 4.68 -4 4 C-3.34 4 -2.68 4 -2 4 C-1.34 2.68 -0.68 1.36 0 0 Z " fill="#393A6E" transform="translate(297,160)"/>
<path d="M0 0 C2.31 0.33 4.62 0.66 7 1 C9.125 5.625 9.125 5.625 8 9 C6.66368764 7.6905332 5.33102075 6.37734515 4 5.0625 C3.2575 4.33160156 2.515 3.60070312 1.75 2.84765625 C0 1 0 1 0 0 Z " fill="#393B72" transform="translate(95,329)"/>
<path d="M0 0 C1.32 0.33 2.64 0.66 4 1 C3.34 2.65 2.68 4.3 2 6 C1.01 6 0.02 6 -1 6 C-3.68767578 8.43750025 -3.68767578 8.43750025 -6 11 C-6 7.39426104 -5.18292538 6.58663434 -3 3.8125 C-2.443125 3.09707031 -1.88625 2.38164062 -1.3125 1.64453125 C-0.879375 1.10183594 -0.44625 0.55914062 0 0 Z " fill="#DEE0F1" transform="translate(401,274)"/>
<path d="M0 0 C3.59905908 0.55550695 4.99909799 1.74887248 7.25 4.5625 C8.03117187 5.52349609 8.03117187 5.52349609 8.828125 6.50390625 C9.21484375 6.99761719 9.6015625 7.49132812 10 8 C8.68 8 7.36 8 6 8 C6 7.34 6 6.68 6 6 C4.68 6 3.36 6 2 6 C1.34 4.02 0.68 2.04 0 0 Z " fill="#2C2E66" transform="translate(419,183)"/>
<path d="M0 0 C0.66 0.66 1.32 1.32 2 2 C2.99 1.67 3.98 1.34 5 1 C5 1.99 5 2.98 5 4 C0.05 5.485 0.05 5.485 -5 7 C-5.33 6.34 -5.66 5.68 -6 5 C-5.34 5 -4.68 5 -4 5 C-4 4.34 -4 3.68 -4 3 C-3.34 3 -2.68 3 -2 3 C-2 2.34 -2 1.68 -2 1 C-1.34 0.67 -0.68 0.34 0 0 Z " fill="#1E2066" transform="translate(312,146)"/>
<path d="M0 0 C2.34391133 3.51586699 3.35906449 6.1020877 2.5625 10.3125 C2.376875 10.869375 2.19125 11.42625 2 12 C-0.64 12.33 -3.28 12.66 -6 13 C-5.67 12.34 -5.34 11.68 -5 11 C-3.35 11 -1.7 11 0 11 C0 7.37 0 3.74 0 0 Z " fill="#040647" transform="translate(403,208)"/>
<path d="M0 0 C-1.50349377 3.66786393 -3.63728792 5.68910393 -6.625 8.25 C-7.44226563 8.95640625 -8.25953125 9.6628125 -9.1015625 10.390625 C-10.04128906 11.18726563 -10.04128906 11.18726563 -11 12 C-11.99 11.67 -12.98 11.34 -14 11 C-13.46890625 10.54109375 -12.9378125 10.0821875 -12.390625 9.609375 C-7.8947499 5.70720627 -7.8947499 5.70720627 -3.625 1.5625 C-2 0 -2 0 0 0 Z " fill="#DEE0ED" transform="translate(141,213)"/>
<path d="M0 0 C0.66 1.32 1.32 2.64 2 4 C1.360625 4.103125 0.72125 4.20625 0.0625 4.3125 C-0.618125 4.539375 -1.29875 4.76625 -2 5 C-2.33 5.99 -2.66 6.98 -3 8 C-4.65 8.33 -6.3 8.66 -8 9 C-8 8.34 -8 7.68 -8 7 C-7.34 7 -6.68 7 -6 7 C-6 6.34 -6 5.68 -6 5 C-5.34 5 -4.68 5 -4 5 C-4 4.34 -4 3.68 -4 3 C-3.34 3 -2.68 3 -2 3 C-2 2.34 -2 1.68 -2 1 C-1.34 0.67 -0.68 0.34 0 0 Z " fill="#2B2A65" transform="translate(329,129)"/>
<path d="M0 0 C2.97 0.495 2.97 0.495 6 1 C5.02433888 2.16959987 4.044375 3.33561177 3.0625 4.5 C2.51722656 5.1496875 1.97195312 5.799375 1.41015625 6.46875 C0.94480469 6.9740625 0.47945312 7.479375 0 8 C-0.33 8 -0.66 8 -1 8 C-1.125 2.25 -1.125 2.25 0 0 Z " fill="#333471" transform="translate(186,321)"/>
<path d="M0 0 C1.32 0.66 2.64 1.32 4 2 C4 2.66 4 3.32 4 4 C5.32 4 6.64 4 8 4 C8.33 5.32 8.66 6.64 9 8 C5.08788267 6.84414715 2.1254959 5.64465038 -1 3 C-0.67 2.01 -0.34 1.02 0 0 Z " fill="#1D1F5B" transform="translate(188,285)"/>
<path d="M0 0 C0.33 0 0.66 0 1 0 C1.36263859 5.8022175 0.25684543 9.63999211 -2 15 C-2.66 14.34 -3.32 13.68 -4 13 C-3.60467975 10.54901444 -2.78698574 8.36095721 -2 6 C-1.34 6 -0.68 6 0 6 C0 4.02 0 2.04 0 0 Z " fill="#595B85" transform="translate(470,239)"/>
<path d="M0 0 C-4.30769231 3.93846154 -4.30769231 3.93846154 -7.8125 4.25 C-8.8953125 4.12625 -8.8953125 4.12625 -10 4 C-10 3.01 -10 2.02 -10 1 C-6.78548731 -0.60725635 -3.56387464 -0.05748185 0 0 Z " fill="#1F205B" transform="translate(128,184)"/>
<path d="M0 0 C1.2077558 3.62326739 0.54311128 4.64146369 -1 8 C-3.31 8.33 -5.62 8.66 -8 9 C-7.04882866 7.8274869 -6.08882991 6.66212985 -5.125 5.5 C-4.32449219 4.52546875 -4.32449219 4.52546875 -3.5078125 3.53125 C-2.76144531 2.77328125 -2.76144531 2.77328125 -2 2 C-1.34 2 -0.68 2 0 2 C0 1.34 0 0.68 0 0 Z " fill="#4D4F87" transform="translate(68,181)"/>
<path d="M0 0 C0.33 0.99 0.66 1.98 1 3 C0.01 3.495 0.01 3.495 -1 4 C-2.13350534 6.01669827 -2.13350534 6.01669827 -3 8 C-3.66 7.67 -4.32 7.34 -5 7 C-5 7.99 -5 8.98 -5 10 C-6.65 10.33 -8.3 10.66 -10 11 C-9.0919838 9.86800647 -8.17316174 8.74467637 -7.25 7.625 C-6.73953125 6.99851563 -6.2290625 6.37203125 -5.703125 5.7265625 C-3.91800519 3.91687682 -2.32050356 2.99882545 0 2 C0 1.34 0 0.68 0 0 Z " fill="#676993" transform="translate(85,164)"/>
<path d="M0 0 C1.17949219 0.20367187 2.35898437 0.40734375 3.57421875 0.6171875 C4.47785156 0.78476562 5.38148438 0.95234375 6.3125 1.125 C6.3125 1.455 6.3125 1.785 6.3125 2.125 C0.46909442 3.36827778 -3.95446495 2.69800962 -9.6875 1.125 C-5.84419804 -1.43720131 -4.45559323 -0.79406612 0 0 Z " fill="#4E5180" transform="translate(347.6875,361.875)"/>
<path d="M0 0 C0.99 0.66 1.98 1.32 3 2 C3.375 4.5 3.375 4.5 3 7 C2.01 7.66 1.02 8.32 0 9 C-1.125 6.1875 -1.125 6.1875 -2 3 C-1.34 2.01 -0.68 1.02 0 0 Z " fill="#0C0F56" transform="translate(396,272)"/>
<path d="M0 0 C1.32 0.66 2.64 1.32 4 2 C3.02433888 3.16959987 2.044375 4.33561177 1.0625 5.5 C0.51722656 6.1496875 -0.02804687 6.799375 -0.58984375 7.46875 C-1.05519531 7.9740625 -1.52054687 8.479375 -2 9 C-2.33 9 -2.66 9 -3 9 C-3 7.35 -3 5.7 -3 4 C-2.01 3.67 -1.02 3.34 0 3 C0 2.01 0 1.02 0 0 Z " fill="#3C3E76" transform="translate(451,265)"/>
<path d="M0 0 C1.91635217 -0.05423638 3.83314925 -0.09289963 5.75 -0.125 C7.35101563 -0.15980469 7.35101563 -0.15980469 8.984375 -0.1953125 C11.92470106 -0.00487687 13.52361878 0.47329896 16 2 C10.15659442 3.24327778 5.73303505 2.57300962 0 1 C0 0.67 0 0.34 0 0 Z " fill="#555A84" transform="translate(130,362)"/>
<path d="M0 0 C1.32 0 2.64 0 4 0 C4.73080266 1.97746603 5.39421747 3.98072489 6 6 C5.67 6.66 5.34 7.32 5 8 C2.5 5.6875 2.5 5.6875 0 3 C0 2.01 0 1.02 0 0 Z " fill="#2E2F6B" transform="translate(289,313)"/>
<path d="M0 0 C0.66 0 1.32 0 2 0 C2.33 1.65 2.66 3.3 3 5 C0.50935112 5.68707555 -1.37886292 6 -4 6 C-2.84826645 3.53199953 -1.95216435 1.95216435 0 0 Z " fill="#3B3C75" transform="translate(49,200)"/>
<path d="M0 0 C4.31392226 0.4793247 6.16569547 1.7457985 9 5 C8.67 5.99 8.34 6.98 8 8 C5 7 5 7 4 5.125 C3.505 4.073125 3.505 4.073125 3 3 C1.4587688 1.29078411 1.4587688 1.29078411 0 0 Z " fill="#0D1051" transform="translate(375,189)"/>
<path d="M0 0 C1.7074998 1.28062485 3.37373596 2.61767557 5 4 C5 4.66 5 5.32 5 6 C5.66 6 6.32 6 7 6 C6.67 6.99 6.34 7.98 6 9 C4.125 8.4375 4.125 8.4375 2 7 C0.75 3.375 0.75 3.375 0 0 Z " fill="#34356E" transform="translate(411,173)"/>
<path d="M0 0 C0 0.66 0 1.32 0 2 C0.66 2 1.32 2 2 2 C2 2.66 2 3.32 2 4 C2.66 4 3.32 4 4 4 C3.67 4.66 3.34 5.32 3 6 C2.05125 5.814375 1.1025 5.62875 0.125 5.4375 C-2.89868793 4.71313368 -2.89868793 4.71313368 -5 6 C-4.625 3.5625 -4.625 3.5625 -4 1 C-2 0 -2 0 0 0 Z " fill="#282B68" transform="translate(176,145)"/>
<path d="M0 0 C2.31 0.66 4.62 1.32 7 2 C7.33 3.98 7.66 5.96 8 8 C6.85073734 7.04578192 5.70569459 6.08647955 4.5625 5.125 C3.92441406 4.59132813 3.28632812 4.05765625 2.62890625 3.5078125 C1 2 1 2 0 0 Z " fill="#434479" transform="translate(104,338)"/>
<path d="M0 0 C2.875 0.3125 2.875 0.3125 6 1 C8 4 8 4 7.625 6.1875 C7.41875 6.785625 7.2125 7.38375 7 8 C5.83035398 6.8572081 4.66435444 5.71068285 3.5 4.5625 C2.8503125 3.92441406 2.200625 3.28632813 1.53125 2.62890625 C0 1 0 1 0 0 Z " fill="#151654" transform="translate(166,267)"/>
<path d="M0 0 C1.42944945 2.35438733 2.08661261 3.48032433 1.625 6.25 C1.41875 6.8275 1.2125 7.405 1 8 C-0.32 8.33 -1.64 8.66 -3 9 C-3 7.02 -3 5.04 -3 3 C-2.34 3.66 -1.68 4.32 -1 5 C-0.67 3.35 -0.34 1.7 0 0 Z " fill="#181B63" transform="translate(397,212)"/>
<path d="M0 0 C1.16959987 0.97566112 2.33561177 1.955625 3.5 2.9375 C4.1496875 3.48277344 4.799375 4.02804688 5.46875 4.58984375 C5.9740625 5.05519531 6.479375 5.52054688 7 6 C7 6.33 7 6.66 7 7 C4.15673536 7.23053497 2.53854651 7.35903101 0.125 5.75 C-1 4 -1 4 -0.5703125 1.890625 C-0.38210938 1.26671875 -0.19390625 0.6428125 0 0 Z " fill="#303169" transform="translate(439,201)"/>
<path d="M0 0 C1.14926266 0.95421808 2.29430541 1.91352045 3.4375 2.875 C4.07558594 3.40867188 4.71367187 3.94234375 5.37109375 4.4921875 C7 6 7 6 8 8 C4.59687262 6.94124926 1.98646769 5.99097846 -1 4 C-0.67 2.68 -0.34 1.36 0 0 Z " fill="#575B89" transform="translate(213,183)"/>
<path d="M0 0 C0.33 0.66 0.66 1.32 1 2 C1.66 2 2.32 2 3 2 C3 2.66 3 3.32 3 4 C3.9590625 4.433125 3.9590625 4.433125 4.9375 4.875 C7 6 7 6 8 8 C6.02 8 4.04 8 2 8 C1.67 7.34 1.34 6.68 1 6 C1.33 5.01 1.66 4.02 2 3 C1.01 3 0.02 3 -1 3 C-0.67 2.01 -0.34 1.02 0 0 Z " fill="#484A7B" transform="translate(226,196)"/>
<path d="M0 0 C0.99 0 1.98 0 3 0 C3 0.66 3 1.32 3 2 C3.66 2 4.32 2 5 2 C5 2.66 5 3.32 5 4 C5.66 4 6.32 4 7 4 C7 4.66 7 5.32 7 6 C7.99 6.33 8.98 6.66 10 7 C8.1875 7.6875 8.1875 7.6875 6 8 C4.25 6.6875 4.25 6.6875 3 5 C3 4.34 3 3.68 3 3 C2.01 2.67 1.02 2.34 0 2 C0 1.34 0 0.68 0 0 Z " fill="#43467A" transform="translate(190,162)"/>
<path d="M0 0 C-3.465 2.97 -3.465 2.97 -7 6 C-6.625 3.0625 -6.625 3.0625 -6 0 C-4 -1 -4 -1 0 0 Z " fill="#3F4177" transform="translate(432,291)"/>
<path d="M0 0 C1.32 0.66 2.64 1.32 4 2 C1.36 3.98 -1.28 5.96 -4 8 C-4 6.68 -4 5.36 -4 4 C-3.34 4 -2.68 4 -2 4 C-2 3.34 -2 2.68 -2 2 C-1.34 2 -0.68 2 0 2 C0 1.34 0 0.68 0 0 Z " fill="#45467D" transform="translate(241,269)"/>
<path d="M0 0 C2.31 0.66 4.62 1.32 7 2 C7.33 3.98 7.66 5.96 8 8 C6.85073734 7.04578192 5.70569459 6.08647955 4.5625 5.125 C3.92441406 4.59132813 3.28632812 4.05765625 2.62890625 3.5078125 C1 2 1 2 0 0 Z " fill="#494B7C" transform="translate(79,313)"/>
<path d="M0 0 C1.32 0.33 2.64 0.66 4 1 C2.02 3.31 0.04 5.62 -2 8 C-2.33 7.34 -2.66 6.68 -3 6 C-3.66 5.67 -4.32 5.34 -5 5 C-3.68 5 -2.36 5 -1 5 C-0.67 3.35 -0.34 1.7 0 0 Z " fill="#414276" transform="translate(213,296)"/>
<path d="M0 0 C2.97 0.495 2.97 0.495 6 1 C4.35830472 3.02054804 2.69088222 5.02043058 1 7 C0.67 7 0.34 7 0 7 C0 4.69 0 2.38 0 0 Z " fill="#363772" transform="translate(442,273)"/>
<path d="M0 0 C4.41889613 1.35021826 6.34345343 3.26115668 9 7 C6.03 6.505 6.03 6.505 3 6 C2.67 5.01 2.34 4.02 2 3 C1.34 2.67 0.68 2.34 0 2 C0 1.34 0 0.68 0 0 Z " fill="#323568" transform="translate(450,214)"/>
<path d="M0 0 C0.66 0.33 1.32 0.66 2 1 C1.67 1.66 1.34 2.32 1 3 C0.34 3 -0.32 3 -1 3 C-1.12375 3.61875 -1.2475 4.2375 -1.375 4.875 C-2 7 -2 7 -4 9 C-4.99 8.67 -5.98 8.34 -7 8 C-5.38405168 5.95880212 -3.7143618 3.95927063 -2 2 C-1.34 2 -0.68 2 0 2 C0 1.34 0 0.68 0 0 Z " fill="#1F215C" transform="translate(170,193)"/>
<path d="M0 0 C3.37462715 0.54723683 5.08235 1.0549 8 3 C8 3.66 8 4.32 8 5 C8.66 5 9.32 5 10 5 C9.67 5.66 9.34 6.32 9 7 C8.34 7 7.68 7 7 7 C7 6.01 7 5.02 7 4 C5.68 4 4.36 4 3 4 C3 3.34 3 2.68 3 2 C2.01 2 1.02 2 0 2 C0 1.34 0 0.68 0 0 Z " fill="#53547E" transform="translate(355,121)"/>
<path d="M0 0 C0 3.65923696 -0.75756777 5.13896577 -3 8 C-5.6875 8.3125 -5.6875 8.3125 -8 8 C-5.33333333 5.33333333 -2.66666667 2.66666667 0 0 Z " fill="#171B53" transform="translate(146,218)"/>
<path d="M0 0 C0.66 0.99 1.32 1.98 2 3 C1.34 3 0.68 3 0 3 C0 4.65 0 6.3 0 8 C-0.66 8 -1.32 8 -2 8 C-2 7.01 -2 6.02 -2 5 C-2.66 4.67 -3.32 4.34 -4 4 C-2.68 2.68 -1.36 1.36 0 0 Z " fill="#080748" transform="translate(75,176)"/>
<path d="M0 0 C1.65 0 3.3 0 5 0 C3.63016497 3.16115776 3.0109362 3.9927092 0 6 C0 4.02 0 2.04 0 0 Z " fill="#3C3E72" transform="translate(362,354)"/>
<path d="M0 0 C0.99 0.33 1.98 0.66 3 1 C1.63016497 4.16115776 1.0109362 4.9927092 -2 7 C-2.125 4.625 -2.125 4.625 -2 2 C-1.34 1.34 -0.68 0.68 0 0 Z " fill="#3E3F78" transform="translate(372,345)"/>
<path d="M0 0 C-3.6441774 2.4294516 -5.71241272 2.16179575 -10 2 C-10 1.34 -10 0.68 -10 0 C-6.33694766 -0.74926071 -3.57644848 -1.2380014 0 0 Z " fill="#141550" transform="translate(89,293)"/>
<path d="M0 0 C-1.65 1.98 -3.3 3.96 -5 6 C-5.5534764 3.92446352 -6 2.15634036 -6 0 C-3.50907189 -1.24546405 -2.58919267 -0.7767578 0 0 Z " fill="#12145C" transform="translate(151,202)"/>
<path d="M0 0 C2.31 0.66 4.62 1.32 7 2 C7 3.65 7 5.3 7 7 C5.83040013 6.02433888 4.66438823 5.044375 3.5 4.0625 C2.8503125 3.51722656 2.200625 2.97195313 1.53125 2.41015625 C1.0259375 1.94480469 0.520625 1.47945313 0 1 C0 0.67 0 0.34 0 0 Z " fill="#44437A" transform="translate(263,289)"/>
<path d="M0 0 C-1.75 2.0625 -1.75 2.0625 -4 4 C-6.25 3.75 -6.25 3.75 -8 3 C-5.53387212 -0.1151089 -3.89156016 -0.31553191 0 0 Z " fill="#0E1151" transform="translate(155,214)"/>
<path d="M0 0 C0.33 1.32 0.66 2.64 1 4 C-0.98 5.32 -2.96 6.64 -5 8 C-5.66 7.67 -6.32 7.34 -7 7 C-4.69 4.69 -2.38 2.38 0 0 Z " fill="#71729F" transform="translate(44,205)"/>
<path d="M0 0 C4 4.75 4 4.75 4 7 C1.525 6.01 1.525 6.01 -1 5 C-0.67 3.35 -0.34 1.7 0 0 Z " fill="#212361" transform="translate(392,202)"/>
<path d="M0 0 C-0.99 1.32 -1.98 2.64 -3 4 C-3.99 3.67 -4.98 3.34 -6 3 C-5.67 2.67 -5.34 2.34 -5 2 C-5.66 1.34 -6.32 0.68 -7 0 C-4.3333581 -1.33332095 -2.83319697 -0.67102033 0 0 Z " fill="#14155C" transform="translate(187,186)"/>
<path d="M0 0 C1.65 0.33 3.3 0.66 5 1 C3.02579865 3.52259061 2.03254358 3.9929808 -1.1875 4.6875 C-2.5796875 4.8421875 -2.5796875 4.8421875 -4 5 C-3.34 4.01 -2.68 3.02 -2 2 C-1.34 2 -0.68 2 0 2 C0 1.34 0 0.68 0 0 Z " fill="#3D3F7D" transform="translate(319,138)"/>
<path d="M0 0 C0.66 0 1.32 0 2 0 C1.625 2.4375 1.625 2.4375 1 5 C0.01 5.495 0.01 5.495 -1 6 C-1.66 5.67 -2.32 5.34 -3 5 C-1.125 1.125 -1.125 1.125 0 0 Z " fill="#393A6F" transform="translate(115,134)"/>
<path d="M0 0 C0.33 1.32 0.66 2.64 1 4 C-2.75 7 -2.75 7 -5 7 C-5 6.34 -5 5.68 -5 5 C-4.34 5 -3.68 5 -3 5 C-2.5359375 4.0409375 -2.5359375 4.0409375 -2.0625 3.0625 C-1 1 -1 1 0 0 Z " fill="#4F507D" transform="translate(122,127)"/>
<path d="M0 0 C0 3.51716303 -0.82445585 4.37121748 -3 7 C-4.32 6.67 -5.64 6.34 -7 6 C-4.69 4.02 -2.38 2.04 0 0 Z " fill="#20225C" transform="translate(394,290)"/>
<path d="M0 0 C0.66 0 1.32 0 2 0 C2 0.66 2 1.32 2 2 C2.66 2 3.32 2 4 2 C4.33 3.32 4.66 4.64 5 6 C3.35 5.67 1.7 5.34 0 5 C0 3.35 0 1.7 0 0 Z " fill="#373773" transform="translate(463,226)"/>
<path d="M0 0 C0.8353125 0.37125 0.8353125 0.37125 1.6875 0.75 C1.3575 1.74 1.0275 2.73 0.6875 3.75 C0.0275 3.75 -0.6325 3.75 -1.3125 3.75 C-1.3125 3.09 -1.3125 2.43 -1.3125 1.75 C-2.6325 2.74 -3.9525 3.73 -5.3125 4.75 C-5.9725 4.42 -6.6325 4.09 -7.3125 3.75 C-2.88173077 -0.31153846 -2.88173077 -0.31153846 0 0 Z " fill="#44447D" transform="translate(307.3125,153.25)"/>
<path d="M0 0 C2 1.3125 2 1.3125 4 3 C4 3.99 4 4.98 4 6 C3.01 6 2.02 6 1 6 C-0.6875 4 -0.6875 4 -2 2 C-1.34 2 -0.68 2 0 2 C0 1.34 0 0.68 0 0 Z " fill="#292B66" transform="translate(387,149)"/>
<path d="M0 0 C1.98 0 3.96 0 6 0 C5.67 1.65 5.34 3.3 5 5 C3.35 3.35 1.7 1.7 0 0 Z " fill="#404078" transform="translate(25,259)"/>
<path d="M0 0 C1.5625 1.25 1.5625 1.25 3 3 C2.6875 5.1875 2.6875 5.1875 2 7 C1.01 7 0.02 7 -1 7 C-0.67 4.69 -0.34 2.38 0 0 Z " fill="#11115B" transform="translate(389,198)"/>
<path d="M0 0 C1.65 1.65 3.3 3.3 5 5 C4.01 5.66 3.02 6.32 2 7 C0 4 0 4 0 0 Z " fill="#373871" transform="translate(431,193)"/>
<path d="M0 0 C-1.75 4.875 -1.75 4.875 -4 6 C-4.66 5.34 -5.32 4.68 -6 4 C-2.25 0 -2.25 0 0 0 Z " fill="#1D1F5B" transform="translate(178,188)"/>
<path d="M0 0 C1.32 0 2.64 0 4 0 C4 2.31 4 4.62 4 7 C3.67 7 3.34 7 3 7 C3 5.35 3 3.7 3 2 C2.34 2 1.68 2 1 2 C0.67 2.66 0.34 3.32 0 4 C0 2.68 0 1.36 0 0 Z " fill="#D5D6E9" transform="translate(396,177)"/>
<path d="M0 0 C1.98 1.65 3.96 3.3 6 5 C4.125 5.625 4.125 5.625 2 6 C1.34 5.34 0.68 4.68 0 4 C0 2.68 0 1.36 0 0 Z " fill="#60628D" transform="translate(200,170)"/>
<path d="M0 0 C1.32 0.33 2.64 0.66 4 1 C4 1.66 4 2.32 4 3 C4.66 3 5.32 3 6 3 C6 3.66 6 4.32 6 5 C4.35 4.67 2.7 4.34 1 4 C0.67 2.68 0.34 1.36 0 0 Z " fill="#22255E" transform="translate(363,127)"/>
<path d="M0 0 C1.32 0 2.64 0 4 0 C2.3584951 3.2830098 -0.82902851 4.27037919 -4 6 C-3.34 4.68 -2.68 3.36 -2 2 C-1.34 2 -0.68 2 0 2 C0 1.34 0 0.68 0 0 Z " fill="#050648" transform="translate(128,123)"/>
<path d="" fill="#FFFFFF" transform="translate(0,0)"/>
<path d="" fill="#FFFFFF" transform="translate(0,0)"/>
<path d="" fill="#FFFFFF" transform="translate(0,0)"/>
<path d="" fill="#FFFFFF" transform="translate(0,0)"/>
<path d="" fill="#FFFFFF" transform="translate(0,0)"/>
<path d="" fill="#FFFFFF" transform="translate(0,0)"/>
<path d="" fill="#FFFFFF" transform="translate(0,0)"/>
<path d="" fill="#FFFFFF" transform="translate(0,0)"/>
<path d="" fill="#FFFFFF" transform="translate(0,0)"/>
<path d="" fill="#FFFFFF" transform="translate(0,0)"/>
<path d="" fill="#FFFFFF" transform="translate(0,0)"/>
<path d="" fill="#FFFFFF" transform="translate(0,0)"/>
<path d="" fill="#FFFFFF" transform="translate(0,0)"/>
<path d="" fill="#FFFFFF" transform="translate(0,0)"/>
<path d="" fill="#FFFFFF" transform="translate(0,0)"/>
<path d="" fill="#FFFFFF" transform="translate(0,0)"/>
<path d="" fill="#FFFFFF" transform="translate(0,0)"/>
<path d="" fill="#FFFFFF" transform="translate(0,0)"/>
<path d="" fill="#FFFFFF" transform="translate(0,0)"/>
<path d="" fill="#FFFFFF" transform="translate(0,0)"/>
<path d="" fill="#FFFFFF" transform="translate(0,0)"/>
<path d="" fill="#FFFFFF" transform="translate(0,0)"/>
<path d="" fill="#FFFFFF" transform="translate(0,0)"/>
<path d="" fill="#FFFFFF" transform="translate(0,0)"/>
<path d="" fill="#FFFFFF" transform="translate(0,0)"/>
<path d="" fill="#FFFFFF" transform="translate(0,0)"/>
<path d="" fill="#FFFFFF" transform="translate(0,0)"/>
<path d="" fill="#FFFFFF" transform="translate(0,0)"/>
<path d="" fill="#FFFFFF" transform="translate(0,0)"/>
<path d="" fill="#FFFFFF" transform="translate(0,0)"/>
<path d="" fill="#FFFFFF" transform="translate(0,0)"/>
<path d="" fill="#FFFFFF" transform="translate(0,0)"/>
<path d="" fill="#FFFFFF" transform="translate(0,0)"/>
<path d="" fill="#FFFFFF" transform="translate(0,0)"/>
<path d="" fill="#FFFFFF" transform="translate(0,0)"/>
<path d="" fill="#FFFFFF" transform="translate(0,0)"/>
<path d="" fill="#FFFFFF" transform="translate(0,0)"/>
<path d="" fill="#FFFFFF" transform="translate(0,0)"/>
<path d="" fill="#FFFFFF" transform="translate(0,0)"/>
<path d="" fill="#FFFFFF" transform="translate(0,0)"/>
<path d="" fill="#FFFFFF" transform="translate(0,0)"/>
<path d="" fill="#FFFFFF" transform="translate(0,0)"/>
<path d="" fill="#FFFFFF" transform="translate(0,0)"/>
<path d="" fill="#FFFFFF" transform="translate(0,0)"/>
<path d="" fill="#FFFFFF" transform="translate(0,0)"/>
<path d="" fill="#FFFFFF" transform="translate(0,0)"/>
<path d="" fill="#FFFFFF" transform="translate(0,0)"/>
<path d="" fill="#FFFFFF" transform="translate(0,0)"/>
<path d="" fill="#FFFFFF" transform="translate(0,0)"/>
<path d="" fill="#FFFFFF" transform="translate(0,0)"/>
<path d="" fill="#FFFFFF" transform="translate(0,0)"/>
<path d="" fill="#FFFFFF" transform="translate(0,0)"/>
<path d="" fill="#FFFFFF" transform="translate(0,0)"/>
<path d="" fill="#FFFFFF" transform="translate(0,0)"/>
<path d="" fill="#FFFFFF" transform="translate(0,0)"/>
<path d="" fill="#FFFFFF" transform="translate(0,0)"/>
<path d="" fill="#FFFFFF" transform="translate(0,0)"/>
<path d="" fill="#FFFFFF" transform="translate(0,0)"/>
<path d="" fill="#FFFFFF" transform="translate(0,0)"/>
<path d="" fill="#FFFFFF" transform="translate(0,0)"/>
<path d="" fill="#FFFFFF" transform="translate(0,0)"/>
<path d="" fill="#FFFFFF" transform="translate(0,0)"/>
<path d="" fill="#FFFFFF" transform="translate(0,0)"/>
<path d="" fill="#FFFFFF" transform="translate(0,0)"/>
<path d="" fill="#FFFFFF" transform="translate(0,0)"/>
</svg>
