<?xml version="1.0" encoding="UTF-8"?>
<svg version="1.1" xmlns="http://www.w3.org/2000/svg" width="1500" height="1500">
<path d="M0 0 C1.80957782 -0.0016509 3.61915529 -0.00373775 5.42873216 -0.0062201 C10.41129482 -0.01178032 15.39384027 -0.01111551 20.37640503 -0.00944251 C25.79357026 -0.00871112 31.21073065 -0.01373507 36.62789381 -0.01801753 C47.3768141 -0.02559714 58.12572942 -0.02779057 68.87465211 -0.02834659 C81.74818052 -0.02926027 94.62170433 -0.035928 107.49523077 -0.04269341 C137.87364093 -0.05837462 168.25205048 -0.0644421 198.630464 -0.06910044 C214.09046574 -0.07148447 229.55046706 -0.07518814 245.01046847 -0.07913754 C294.61553582 -0.09180236 344.22060315 -0.1025856 393.8256721 -0.10597799 C396.1962935 -0.10614023 398.5669149 -0.10630579 400.9375363 -0.10647238 C405.69176348 -0.10680617 410.44599066 -0.10713665 415.20021784 -0.10746694 C420.76612557 -0.10785383 426.3320333 -0.10824344 431.89794103 -0.108638 C433.49094227 -0.10875042 435.08394352 -0.10886184 436.67694476 -0.10897225 C487.82119869 -0.11252047 538.96543856 -0.12759367 590.10968712 -0.15091 C626.86253653 -0.16765859 663.61538327 -0.18312966 700.36823654 -0.18764496 C701.1245749 -0.18773844 701.88091325 -0.18783193 702.66017095 -0.18792825 C719.26636434 -0.18994761 735.87255768 -0.1911034 752.47875118 -0.19145683 C758.42138317 -0.191593 764.36401516 -0.19180199 770.30664715 -0.19205009 C771.78497531 -0.19211165 773.26330346 -0.19216997 774.74163162 -0.19222504 C798.26927735 -0.19314373 821.79690838 -0.20309848 845.32454927 -0.21768252 C869.6953441 -0.2327287 894.06611779 -0.23687395 918.43691625 -0.22858956 C932.47827341 -0.22413722 946.51957035 -0.22797815 960.56091958 -0.24382807 C969.94953051 -0.25359451 979.33809935 -0.25238392 988.72670992 -0.24239184 C994.07006715 -0.23701184 999.41330892 -0.23625082 1004.75665648 -0.24890056 C1046.1088529 -0.34071244 1046.1088529 -0.34071244 1064.41802025 3.13142776 C1065.70092087 3.37390708 1066.9838215 3.61638639 1068.3055979 3.86621356 C1071.24398548 4.46035217 1074.13857483 5.14021961 1077.04302025 5.88142776 C1078.07676781 6.1396431 1079.11051537 6.39785843 1080.17558861 6.66389847 C1118.91172561 16.58184659 1153.38327476 34.86842246 1182.9063015 61.84236526 C1184.59792345 63.38403006 1186.30407676 64.90988221 1188.023489 66.42049026 C1193.26165195 71.03260954 1197.96129971 75.76809384 1202.41802025 81.13142776 C1203.52210228 82.40373245 1203.52210228 82.40373245 1204.648489 83.70174026 C1241.05268717 126.18295085 1261.82001077 180.65202646 1261.67528915 236.62603855 C1261.67798814 238.44938709 1261.68155913 240.27273451 1261.68591362 242.09607986 C1261.69531368 247.0842857 1261.69238989 252.07241796 1261.68735808 257.06062728 C1261.68407787 262.49612205 1261.69238526 267.93160154 1261.69917643 273.36709136 C1261.70946468 282.88653451 1261.71232226 292.40595734 1261.71026421 301.9254055 C1261.70721115 316.08184226 1261.71554499 330.23825656 1261.72601346 344.39468895 C1261.74534758 371.15217398 1261.75098273 397.9096513 1261.75212757 424.66714249 C1261.75225707 427.61649623 1261.75239295 430.56584997 1261.75253439 433.51520371 C1261.7525684 434.24714323 1261.75260241 434.97908274 1261.75263745 435.73320224 C1261.75345523 451.9709351 1261.7578379 468.20866641 1261.76284608 484.44639844 C1261.76490288 491.13785761 1261.76688297 497.82931679 1261.76887858 504.52077597 C1261.76909976 505.26018526 1261.76932094 505.99959454 1261.76954882 506.76141016 C1261.78219323 549.12112962 1261.79044747 591.48084806 1261.78953171 633.8405695 C1261.78950015 635.42505768 1261.78946868 637.00954586 1261.78943729 638.59403405 C1261.78929053 645.74744922 1261.78911419 652.9008644 1261.78892952 660.05427957 C1261.78884728 663.24399502 1261.78876698 666.43371046 1261.7886869 669.62342591 C1261.78864611 671.21993436 1261.78860407 672.81644281 1261.78856078 674.41295125 C1261.78720076 724.87893653 1261.80182831 775.34489372 1261.82964134 825.81087112 C1261.83664383 838.52354963 1261.84358296 851.23622817 1261.85017014 863.9489069 C1261.85057588 864.73176043 1261.85098163 865.51461397 1261.85139967 866.32119033 C1261.86383782 890.46573612 1261.87136238 914.6102796 1261.87388611 938.75482845 C1261.87400596 939.89260563 1261.87400596 939.89260563 1261.87412823 941.05336819 C1261.87583513 957.70815762 1261.87635706 974.3629469 1261.87578748 991.0177364 C1261.87559453 996.97780754 1261.87549043 1002.93787868 1261.87543002 1008.89794982 C1261.87541419 1010.38056792 1261.87539378 1011.86318601 1261.87536878 1013.3458041 C1261.87501675 1036.9279477 1261.88638692 1060.51006719 1261.90367641 1084.09220389 C1261.9214953 1108.52067744 1261.924592 1132.94911296 1261.91105215 1157.3775898 C1261.90367392 1171.44704112 1261.90728731 1185.51638696 1261.92693683 1199.58582705 C1261.93896831 1208.99802373 1261.93631061 1218.41014431 1261.92199584 1227.82233755 C1261.91425958 1233.17578558 1261.91260335 1238.52903004 1261.92891054 1243.88246343 C1262.13965484 1317.97619096 1239.62780393 1380.8208864 1187.41802025 1434.13142776 C1184.85781078 1436.62038836 1182.19126271 1438.88439029 1179.41802025 1441.13142776 C1178.27010439 1442.10185951 1177.12306057 1443.07332318 1175.976614 1444.04549026 C1166.6100031 1451.91161327 1156.89904366 1458.83050538 1146.41802025 1465.13142776 C1145.36324486 1465.76709671 1145.36324486 1465.76709671 1144.28716087 1466.41560745 C1115.80273527 1483.36814071 1084.28124365 1494.02352484 1051.41802025 1498.13142776 C1069.89802025 1498.46142776 1088.37802025 1498.79142776 1107.41802025 1499.13142776 C1107.41802025 1499.46142776 1107.41802025 1499.79142776 1107.41802025 1500.13142776 C714.38802025 1500.13142776 321.35802025 1500.13142776 -83.58197975 1500.13142776 C-83.58197975 1499.80142776 -83.58197975 1499.47142776 -83.58197975 1499.13142776 C-55.86197975 1498.63642776 -55.86197975 1498.63642776 -27.58197975 1498.13142776 C-35.17197975 1496.81142776 -42.76197975 1495.49142776 -50.58197975 1494.13142776 C-54.87958313 1493.1258604 -59.04982184 1492.11534294 -63.26947975 1490.88142776 C-64.30000465 1490.58550735 -65.33052956 1490.28958694 -66.39228249 1489.98469925 C-82.17486132 1485.3225773 -97.07367847 1478.85252069 -111.58197975 1471.13142776 C-112.2255442 1470.79562698 -112.86910866 1470.4598262 -113.53217506 1470.11384964 C-143.37519459 1454.47260519 -170.95880846 1430.49097624 -190.58197975 1403.13142776 C-191.35412819 1402.06924026 -192.12627663 1401.00705276 -192.9218235 1399.91267776 C-208.07919437 1378.56280837 -219.84794681 1355.16108918 -227.58197975 1330.13142776 C-227.81465553 1329.39972366 -228.04733131 1328.66801956 -228.28705788 1327.91414261 C-232.3734614 1314.93602772 -234.80958685 1301.61196358 -236.58197975 1288.13142776 C-236.66557717 1287.51621724 -236.74917459 1286.90100672 -236.83530526 1286.26715345 C-237.85333697 1277.68429929 -237.7230262 1269.08515469 -237.71340752 1260.45763493 C-237.71505881 1258.65030246 -237.71714584 1256.84297035 -237.71962762 1255.03563884 C-237.72518273 1250.06397257 -237.72452397 1245.09232357 -237.72285003 1240.1206552 C-237.72211814 1234.71356352 -237.72714375 1229.30647667 -237.73142505 1223.89938706 C-237.73900172 1213.17261863 -237.74119794 1202.44585517 -237.7417541 1191.71908434 C-237.74266808 1178.87126341 -237.74933664 1166.02344708 -237.75610093 1153.17562814 C-237.771779 1122.85914511 -237.77784917 1092.5426627 -237.78250795 1062.22617632 C-237.78489226 1046.79741039 -237.78859596 1031.36864488 -237.79254505 1015.93987927 C-237.80520939 966.43293893 -237.81599283 916.92599862 -237.81938551 867.41905668 C-237.81954775 865.0533299 -237.81971331 862.68760311 -237.8198799 860.32187632 C-237.82021369 855.57748409 -237.82054417 850.83309187 -237.82087445 846.08869964 C-237.82126135 840.53433395 -237.82165096 834.97996826 -237.82204552 829.42560257 C-237.82215794 827.83590633 -237.82226935 826.2462101 -237.82237977 824.65651386 C-237.82592815 773.61602423 -237.8410023 722.57554868 -237.86431751 671.53506443 C-237.88106616 634.85492442 -237.89653716 598.17478708 -237.90105247 561.49464321 C-237.90114596 560.73980384 -237.90123945 559.98496447 -237.90133577 559.20725118 C-237.90335512 542.63400755 -237.90451091 526.06076397 -237.90486435 509.48752023 C-237.90500052 503.5567065 -237.90520951 497.62589278 -237.9054576 491.69507906 C-237.90551916 490.21969557 -237.90557748 488.74431208 -237.90563255 487.26892859 C-237.90655122 463.78874595 -237.91650567 440.30857803 -237.93109004 416.82840023 C-237.94613618 392.50738035 -237.95028146 368.18638166 -237.94199708 343.86535815 C-237.9375448 329.85287903 -237.94138544 315.84046025 -237.95723559 301.82798907 C-237.96700218 292.45866288 -237.96579129 283.08937886 -237.95579936 273.72005303 C-237.95041948 268.38772792 -237.94965793 263.05551851 -237.96230808 257.7232031 C-238.11773516 187.74278282 -219.67167143 124.72270172 -170.58197975 73.13142776 C-170.04266823 72.5634346 -169.5033567 71.99544144 -168.94770241 71.41023636 C-160.72937646 62.81673113 -152.14657275 55.189161 -142.58197975 48.13142776 C-142.00979713 47.70378128 -141.43761452 47.2761348 -140.84809303 46.83552933 C-118.97881674 30.53690367 -94.65345568 18.18737588 -68.58197975 10.13142776 C-67.85027565 9.89875198 -67.11857155 9.6660762 -66.3646946 9.42634964 C-53.37406072 5.33600428 -40.06345892 2.97240723 -26.58197975 1.13142776 C-25.3989869 0.96086026 -24.21599405 0.79029276 -22.99715292 0.61455655 C-15.36575442 -0.21737829 -7.66650877 -0.00851694 0 0 Z " fill="#EA501F" transform="translate(237.5819797515869,-0.13142776489257813)"/>
<path d="M0 0 C1.0445787 -0.00537781 1.0445787 -0.00537781 2.11026001 -0.01086426 C17.04937172 -0.05217927 31.10299985 1.60436345 45.375 6.3125 C46.44210205 6.66223877 46.44210205 6.66223877 47.53076172 7.01904297 C85.73918886 19.73880446 119.35984868 46.18003679 143.09912109 78.59667969 C144.42356119 80.37780578 145.7930101 82.11541124 147.17578125 83.8515625 C166.35965815 108.20563045 180.76982302 136.67298525 192.375 165.3125 C192.84413818 166.45501221 193.31327637 167.59752441 193.79663086 168.7746582 C197.25513321 177.24842323 200.37580211 185.78599332 203.1875 194.5 C203.3964389 195.14713959 203.60537781 195.79427917 203.82064819 196.46102905 C213.39452917 226.29852153 220.06273729 256.95481467 224.625 287.9375 C224.78846924 289.03900391 224.95193848 290.14050781 225.12036133 291.27539062 C225.98281703 297.42435482 226.56506652 303.54084477 226.92480469 309.73583984 C226.96890472 310.468405 227.01300476 311.20097015 227.05844116 311.95573425 C227.16568139 313.74122032 227.27058559 315.52684645 227.375 317.3125 C229.1850288 317.30558655 229.1850288 317.30558655 231.03162384 317.29853344 C259.7327481 317.19003765 288.43386953 317.10769441 317.13515279 317.05717335 C320.67457487 317.05092048 324.21399653 317.0444488 327.75341797 317.0378418 C328.4579967 317.03653024 329.16257544 317.03521869 329.88850504 317.0338674 C341.26854995 317.01216307 352.64846742 316.97276931 364.02843696 316.92673602 C375.72187459 316.87983232 387.41524588 316.85217536 399.10877371 316.84205753 C405.66993787 316.83555786 412.23081386 316.8203574 418.79188538 316.78384972 C424.97740841 316.74971311 431.1625267 316.73948272 437.34813499 316.74696159 C439.60869235 316.74559493 441.86926435 316.73576879 444.12973976 316.71647263 C464.08523432 316.55459492 479.51458915 319.03709816 494.625 333.125 C503.20115675 342.08309086 506.75772272 351.46510179 506.6394043 363.6706543 C506.63398715 364.61604159 506.62857 365.56142889 506.6229887 366.53546429 C506.44118708 380.12859682 505.32934693 393.68509209 504.31843781 407.23624253 C504.01982763 411.26413186 503.73077122 415.29270847 503.44059753 419.32121277 C502.88610285 427.00069687 502.32387023 434.67959237 501.75850075 442.35828274 C501.07476911 451.64794159 500.39917224 460.93818712 499.72460938 470.22851562 C499.66460054 471.05491287 499.60459171 471.88131011 499.54276443 472.7327497 C499.30023699 476.07286788 499.05772489 479.41298716 498.81533802 482.75311553 C498.51189114 486.93416586 498.20804526 491.11518651 497.90335464 495.29614639 C496.10841546 519.92650528 494.37594149 544.56053413 492.69921875 569.19921875 C492.64682053 569.96899898 492.59442231 570.7387792 492.54043627 571.5318861 C492.28230901 575.32424905 492.02427419 579.11661829 491.76626015 582.90898895 C491.71687522 583.6348202 491.6674903 584.36065145 491.61660886 585.10847759 C491.51855889 586.54963671 491.42052466 587.9907969 491.32250667 589.4319582 C489.30503613 619.08763988 487.12981529 648.73086844 484.91191101 678.37214088 C481.57183665 723.01086751 478.3368241 767.65552005 475.25 812.3125 C475.1667107 813.51740585 475.0834214 814.72231171 474.99760818 815.96372986 C474.5810361 821.99108073 474.16464339 828.01844399 473.74824524 834.04580688 C473.6670727 835.22069294 473.58590015 836.39557899 473.50226784 837.60606766 C473.339789 839.95793055 473.17734247 842.30979567 473.01492882 844.66166306 C471.18237506 871.1910448 469.30059634 897.71684432 467.38671875 924.24047852 C467.15096644 927.50927192 466.91531315 930.77807246 466.6796875 934.046875 C466.62303673 934.83210981 466.56638596 935.61734463 466.50801849 936.42637444 C465.72814889 947.24589337 464.98073906 958.06716136 464.2578125 968.890625 C460.27586037 1028.15205968 460.27586037 1028.15205968 454.375 1048.3125 C454.045 1049.50617188 453.715 1050.69984375 453.375 1051.9296875 C448.31056142 1068.4286788 439.9501639 1084.45479181 428.375 1097.3125 C427.86098633 1097.88548828 427.34697266 1098.45847656 426.81738281 1099.04882812 C411.6992182 1115.60469179 393.49816312 1126.14738927 372.125 1132.6875 C371.34616455 1132.92629883 370.5673291 1133.16509766 369.76489258 1133.41113281 C358.96454889 1136.52170382 348.14317662 1137.61262469 336.93755722 1137.56697559 C335.75085393 1137.57018207 334.56415063 1137.57338855 333.34148663 1137.57669219 C330.07371887 1137.5835202 326.80610021 1137.58151726 323.53833526 1137.57563647 C319.97321563 1137.57144022 316.40811621 1137.57888272 312.8430016 1137.58478898 C306.60314398 1137.59352833 300.36331918 1137.59487117 294.12345695 1137.59128571 C284.8441977 1137.58596792 275.5649701 1137.59208483 266.28571429 1137.60036864 C248.74687291 1137.61559598 231.20804598 1137.617315 213.66919938 1137.61484561 C200.12369513 1137.61301177 186.57819561 1137.61477448 173.03269196 1137.61907005 C171.08546254 1137.61967246 169.13823312 1137.62027366 167.1910037 1137.62087366 C164.25657955 1137.62178093 161.3221554 1137.62268959 158.38773126 1137.62360601 C131.11033843 1137.6320337 103.83294738 1137.63637251 76.55555344 1137.63219929 C75.52758676 1137.63204291 74.49962008 1137.63188654 73.44050289 1137.63172542 C68.23056415 1137.63091966 63.02062541 1137.63007389 57.81068668 1137.62921212 C56.7760085 1137.62904103 55.74133033 1137.62886994 54.67529827 1137.62869367 C52.58292844 1137.62834701 50.49055861 1137.62799848 48.39818877 1137.62764808 C15.84341071 1137.6222913 -16.71134027 1137.63022085 -49.26611328 1137.64868164 C-85.85682578 1137.66940687 -122.4475215 1137.68012335 -159.03824019 1137.67610615 C-162.94130309 1137.67571082 -166.84436599 1137.67534927 -170.74742889 1137.67500877 C-172.18893668 1137.67487268 -172.18893668 1137.67487268 -173.65956583 1137.67473383 C-188.15417736 1137.67356884 -202.64877192 1137.6802087 -217.14337921 1137.69082069 C-233.63209594 1137.70288047 -250.12077534 1137.70442269 -266.60949263 1137.69203053 C-275.83086796 1137.68540995 -285.05215398 1137.68701449 -294.27352214 1137.70061904 C-300.4414721 1137.70888272 -306.60935539 1137.70614114 -312.77729997 1137.69464377 C-316.28602704 1137.68840632 -319.79458026 1137.68673696 -323.30329707 1137.69850711 C-340.49141609 1137.74451766 -357.07496168 1137.44549692 -373.5 1131.75 C-374.22920654 1131.50024414 -374.95841309 1131.25048828 -375.7097168 1130.99316406 C-389.95565698 1125.86905234 -403.29846157 1118.37613659 -414.625 1108.3125 C-415.16318359 1107.83474121 -415.70136719 1107.35698242 -416.25585938 1106.86474609 C-431.36449642 1093.17752537 -440.54771412 1076.85510375 -448.625 1058.3125 C-449.30369141 1056.77142578 -449.30369141 1056.77142578 -449.99609375 1055.19921875 C-454.90946044 1042.90624294 -456.66904064 1029.37464983 -458.05859375 1016.30078125 C-458.18520386 1015.11088593 -458.31181396 1013.9209906 -458.44226074 1012.69503784 C-460.20530647 995.41199145 -461.27933162 978.07033427 -462.4375 960.73852539 C-462.99284159 952.44238734 -463.55882964 944.14696729 -464.125 935.8515625 C-464.18668806 934.94459248 -464.24837612 934.03762245 -464.31193352 933.10316849 C-465.23567617 919.54628578 -466.25923141 905.9999273 -467.34996223 892.45554352 C-468.61551249 876.71979953 -469.70837262 860.97504599 -470.75930786 845.22369385 C-471.28826006 837.29969661 -471.82627203 829.37631375 -472.3671875 821.453125 C-472.42089823 820.66625935 -472.47460896 819.87939369 -472.52994728 819.06868362 C-473.57286351 803.82267704 -474.72918643 788.58671442 -475.93084717 773.35241699 C-477.40629553 754.61240308 -478.69357923 735.8623598 -479.94265747 717.10601807 C-480.96465759 701.77786611 -482.0462476 686.45966735 -483.30252075 671.14898682 C-484.67054969 654.41447154 -485.76811984 637.66248704 -486.88525391 620.90966797 C-487.87856721 606.03615752 -488.90569095 591.16926016 -490.125 576.3125 C-491.55760346 558.85683859 -492.71994317 541.38495634 -493.88525391 523.90966797 C-494.92641455 508.31970893 -496.02212426 492.7391289 -497.30123901 477.16693115 C-498.79211098 458.94699026 -499.9792088 440.70585239 -501.1796875 422.46484375 C-501.9980457 410.10419381 -502.86427161 397.75425128 -503.97401428 385.415802 C-506.94400118 351.61884981 -506.94400118 351.61884981 -495.75 336.875 C-486.37083203 326.06363134 -474.55331497 318.58485107 -460.04867613 317.03769267 C-457.45014905 316.93940813 -454.86704156 316.92632016 -452.26679993 316.95173645 C-451.28551579 316.94917318 -450.30423166 316.9466099 -449.29321164 316.94396895 C-446.03815665 316.93906718 -442.78357598 316.95546417 -439.52856445 316.97192383 C-437.18214428 316.97277088 -434.8357233 316.97229343 -432.48930359 316.97059631 C-426.14297966 316.96973799 -419.79682694 316.9873375 -413.45054269 317.00831819 C-407.48306089 317.02520595 -401.51557864 317.02819148 -395.54807749 317.0312738 C-383.73555144 317.03782463 -371.92308787 317.05774844 -360.1105957 317.08618164 C-348.64217438 317.11375778 -337.17377009 317.13497391 -325.70532227 317.14770508 C-324.99730728 317.14849325 -324.28929229 317.14928142 -323.5598223 317.15009347 C-320.00759043 317.15400885 -316.45535843 317.15779991 -312.90312636 317.16152918 C-283.47704399 317.19258242 -254.05102267 317.24560518 -224.625 317.3125 C-224.62903619 316.56625429 -224.63307238 315.82000858 -224.63723087 315.05114937 C-224.64037013 314.06740271 -224.64350939 313.08365604 -224.64674377 312.07009888 C-224.65077996 311.09697817 -224.65481615 310.12385746 -224.65897465 309.12124825 C-224.61455101 305.44866255 -224.24609499 301.94981802 -223.77734375 298.3046875 C-223.6855484 297.58859314 -223.59375305 296.87249878 -223.49917603 296.13470459 C-223.19708056 293.81748616 -222.88156847 291.50243914 -222.5625 289.1875 C-222.45340302 288.38447449 -222.34430603 287.58144897 -222.23190308 286.75408936 C-219.89738191 269.73665323 -216.55029531 253.02856919 -212.625 236.3125 C-212.38700684 235.28092773 -212.14901367 234.24935547 -211.90380859 233.18652344 C-195.05485116 161.0744518 -160.16206266 82.1764519 -99.625 36.3125 C-98.8530127 35.725896 -98.8530127 35.725896 -98.06542969 35.12744141 C-78.82586203 20.62597623 -57.25987772 8.7225645 -33.625 3.3125 C-32.47902344 3.01601562 -31.33304688 2.71953125 -30.15234375 2.4140625 C-20.15033341 0.19591575 -10.20183144 0.02108611 0 0 Z " fill="#FEFEFE" transform="translate(748.625,180.6875)"/>
<path d="M0 0 C2.7316611 2.18221143 5.37054705 4.43253531 7.98828125 6.75 C8.4884375 7.18989258 8.98859375 7.62978516 9.50390625 8.08300781 C44.0671446 38.60388722 65.63597156 81.97369804 80.98828125 124.75 C81.25592285 125.4910498 81.52356445 126.23209961 81.79931641 126.99560547 C86.68855192 140.67245997 90.42926673 154.67670174 93.98828125 168.75 C94.21902344 169.65186035 94.44976563 170.5537207 94.6875 171.48291016 C99.10778412 189.09372393 101.37312193 207.11475879 103.8515625 225.078125 C103.96691345 225.90834167 104.0822644 226.73855835 104.20111084 227.59393311 C104.61883698 230.66998993 104.98828125 233.64173387 104.98828125 236.75 C-6.22171875 236.75 -117.43171875 236.75 -232.01171875 236.75 C-228.49254926 206.25053106 -228.49254926 206.25053106 -226.26171875 194.375 C-226.13444397 193.69176666 -226.00716919 193.00853333 -225.8760376 192.30459595 C-215.22290984 135.39257909 -195.21176311 78.59433385 -159.01171875 32.75 C-158.35558594 31.89019531 -157.69945312 31.03039062 -157.0234375 30.14453125 C-116.85112172 -21.07328001 -54.90721543 -41.02017651 0 0 Z " fill="#EA501F" transform="translate(813.01171875,261.25)"/>
<path d="M0 0 C0.72171387 0.09120117 1.44342773 0.18240234 2.18701172 0.27636719 C34.4249094 4.50550451 85.70912426 15.12780342 109.2890625 39.3515625 C113.12731932 45.88333288 114.30967385 51.47929716 113 59 C110.52157947 66.7178885 106.15485195 71.87359955 99.28637695 76.03930664 C93.08860842 78.64349449 85.61801308 77.84835184 79.37304688 75.82470703 C76.26053534 74.46940795 73.21499245 73.05442141 70.18347168 71.53051758 C66.83053591 69.85182696 63.42921968 68.27640153 60.03125 66.69140625 C59.35012146 66.37168854 58.66899292 66.05197083 57.96722412 65.7225647 C39.17033147 56.97108328 19.30839141 51.84024614 -1 48 C-1.73234863 47.85449707 -2.46469727 47.70899414 -3.21923828 47.55908203 C-22.87299672 43.77506769 -46.59242512 44.12701109 -66 49 C-67.2478125 49.26683594 -68.495625 49.53367187 -69.78125 49.80859375 C-89.01241823 54.27864835 -105.89668689 64.459041 -117.02734375 81.015625 C-122.74156016 90.44792081 -126.65994492 100.50774216 -130 111 C-130.3091333 111.960271 -130.3091333 111.960271 -130.62451172 112.93994141 C-134.86234845 127.67974997 -133.3056158 145.95335311 -126.71484375 159.67578125 C-114.93046319 180.78262442 -94.17918597 194.09726334 -72.83886719 204.13134766 C-71.19872717 204.90612437 -69.57105256 205.70716453 -67.9453125 206.51171875 C-50.51990501 214.94709506 -31.96077913 220.86548818 -13.42041016 226.29052734 C-8.26221879 227.80250073 -3.12918949 229.39294324 2 231 C3.09054687 231.33 4.18109375 231.66 5.3046875 232 C28.91011753 239.43803485 52.98509483 250.32998428 73 265 C74.051875 265.76828125 75.10375 266.5365625 76.1875 267.328125 C83.91459427 273.07690039 91.03022345 279.36211757 98 286 C99.07701172 286.99773437 99.07701172 286.99773437 100.17578125 288.015625 C117.61056742 304.64680379 129.45875501 326.9978198 136 350 C136.48146484 351.670625 136.48146484 351.670625 136.97265625 353.375 C139.20732371 362.85414754 139.31512405 372.36971412 139.375 382.0625 C139.38294586 382.73683075 139.39089172 383.4111615 139.39907837 384.10592651 C139.75362041 423.33376887 120.78749918 459.88482755 93.9375 487.5 C75.55344074 505.87943434 50.47943641 518.92224755 25 524 C23.07607422 524.41765625 23.07607422 524.41765625 21.11328125 524.84375 C-2.86990698 529.5235916 -30.11311144 528.79665193 -54 524 C-54.97275879 523.81195801 -55.94551758 523.62391602 -56.94775391 523.43017578 C-101.7718738 514.56409888 -143.02800012 495.36426507 -182 472 C-182.87833496 471.47809082 -183.75666992 470.95618164 -184.66162109 470.41845703 C-212.81788816 453.68289633 -212.81788816 453.68289633 -216 442 C-217.17866293 434.38993718 -215.47018452 428.24748681 -211 422 C-205.56314099 416.59663293 -199.83804291 414.00222245 -192.1875 413.625 C-183.15611699 413.89299356 -176.79069755 418.71641472 -169.55493164 423.66162109 C-135.249844 446.88134914 -96.47323802 465.71656088 -56 475 C-55.17854492 475.19754883 -54.35708984 475.39509766 -53.51074219 475.59863281 C-40.57170271 478.6264969 -27.85887585 479.39148668 -14.625 479.4375 C-13.87558136 479.4436734 -13.12616272 479.4498468 -12.35403442 479.45620728 C15.22616397 479.60248222 41.17867919 471.87332013 61.46826172 452.5390625 C80.51178589 433.40447908 91.39079674 406.51536573 91.37329102 379.6940918 C90.84606646 355.48475457 78.47848549 335.02161637 62 318 C58.48970179 314.76267177 54.83959912 311.83548404 51 309 C50.22527344 308.41089844 49.45054687 307.82179688 48.65234375 307.21484375 C26.9434737 291.30467021 0.52048397 279.86337663 -25.49536133 273.33178711 C-66.20197748 263.11117113 -108.12841225 245.89385449 -140 218 C-140.89847656 217.24589844 -141.79695312 216.49179687 -142.72265625 215.71484375 C-163.35619663 197.86726663 -178.77431381 171.45542893 -181 144 C-183.03954759 106.07978122 -170.39243205 67.65562329 -144.9453125 39.1015625 C-132.10460892 25.25916315 -116.11894915 16.48759845 -99 9 C-98.09121094 8.59910156 -97.18242188 8.19820312 -96.24609375 7.78515625 C-66.24051812 -4.20744139 -31.52042018 -4.1448267 0 0 Z " fill="#EA5020" transform="translate(788,636)"/>
</svg>
